<?xml version="1.0" encoding="UTF-8" standalone="no"?>
<!DOCTYPE svg PUBLIC "-//W3C//DTD SVG 1.1//EN"
 "http://www.w3.org/Graphics/SVG/1.1/DTD/svg11.dtd">
<!-- Generated by graphviz version 2.50.0 (20211204.2007)
 -->
<!-- Title: Começadas com 0 e com mais 0&#39;s que 1&#39;s Pages: 1 -->
<svg width="438pt" height="311pt"
 viewBox="0.00 0.00 438.00 311.00" xmlns="http://www.w3.org/2000/svg" xmlns:xlink="http://www.w3.org/1999/xlink">
<g id="graph0" class="graph" transform="scale(1 1) rotate(0) translate(4 307)">
<title>Começadas com 0 e com mais 0&#39;s que 1&#39;s</title>
<polygon fill="white" stroke="transparent" points="-4,4 -4,-307 434,-307 434,4 -4,4"/>
<!-- Start -->
<g id="node1" class="node">
<title>Start</title>
</g>
<!-- A -->
<g id="node5" class="node">
<title>A</title>
<ellipse fill="none" stroke="black" cx="109" cy="-80" rx="18" ry="18"/>
<text text-anchor="middle" x="109" y="-76.3" font-family="Times New Roman,serif" font-size="14.00">A</text>
</g>
<!-- Start&#45;&gt;A -->
<g id="edge1" class="edge">
<title>Start&#45;&gt;A</title>
<path fill="none" stroke="black" d="M54.19,-80C62.65,-80 72.05,-80 80.6,-80"/>
<polygon fill="black" stroke="black" points="90.83,-80 80.83,-84.5 85.83,-80 80.83,-80 80.83,-80 80.83,-80 85.83,-80 80.83,-75.5 90.83,-80 90.83,-80"/>
</g>
<!-- C -->
<g id="node2" class="node">
<title>C</title>
<ellipse fill="none" stroke="black" cx="315" cy="-130" rx="18" ry="18"/>
<text text-anchor="middle" x="315" y="-126.3" font-family="Times New Roman,serif" font-size="14.00">C</text>
</g>
<!-- C&#45;&gt;C -->
<g id="edge9" class="edge">
<title>C&#45;&gt;C</title>
<path fill="none" stroke="black" d="M306.64,-146.29C304.62,-156.39 307.41,-166 315,-166 319.86,-166 322.76,-162.06 323.68,-156.57"/>
<polygon fill="black" stroke="black" points="323.36,-146.29 328.17,-156.15 323.52,-151.29 323.67,-156.29 323.67,-156.29 323.67,-156.29 323.52,-151.29 319.17,-156.42 323.36,-146.29 323.36,-146.29"/>
<text text-anchor="middle" x="315" y="-169.8" font-family="Times New Roman,serif" font-size="14.00">XXL</text>
</g>
<!-- D -->
<g id="node3" class="node">
<title>D</title>
<ellipse fill="none" stroke="black" cx="412" cy="-186" rx="18" ry="18"/>
<text text-anchor="middle" x="412" y="-182.3" font-family="Times New Roman,serif" font-size="14.00">D</text>
</g>
<!-- C&#45;&gt;D -->
<g id="edge10" class="edge">
<title>C&#45;&gt;D</title>
<path fill="none" stroke="black" d="M330.84,-138.75C345.95,-147.66 369.61,-161.6 387.31,-172.03"/>
<polygon fill="black" stroke="black" points="395.95,-177.13 385.05,-175.93 391.64,-174.59 387.33,-172.05 387.33,-172.05 387.33,-172.05 391.64,-174.59 389.62,-168.17 395.95,-177.13 395.95,-177.13"/>
<text text-anchor="middle" x="363.5" y="-167.8" font-family="Times New Roman,serif" font-size="14.00">1XL</text>
</g>
<!-- D&#45;&gt;D -->
<g id="edge11" class="edge">
<title>D&#45;&gt;D</title>
<path fill="none" stroke="black" d="M409.12,-203.78C408.64,-213.31 409.59,-222 412,-222 413.47,-222 414.4,-218.77 414.79,-214.1"/>
<polygon fill="black" stroke="black" points="414.88,-203.78 419.29,-213.82 414.83,-208.78 414.79,-213.78 414.79,-213.78 414.79,-213.78 414.83,-208.78 410.29,-213.74 414.88,-203.78 414.88,-203.78"/>
<text text-anchor="middle" x="412" y="-225.8" font-family="Times New Roman,serif" font-size="14.00">00L</text>
</g>
<!-- D&#45;&gt;D -->
<g id="edge12" class="edge">
<title>D&#45;&gt;D</title>
<path fill="none" stroke="black" d="M407.27,-203.42C404.58,-220.79 406.16,-240 412,-240 416.7,-240 418.64,-227.56 417.81,-213.65"/>
<polygon fill="black" stroke="black" points="416.73,-203.42 422.26,-212.89 417.25,-208.39 417.78,-213.36 417.78,-213.36 417.78,-213.36 417.25,-208.39 413.31,-213.84 416.73,-203.42 416.73,-203.42"/>
<text text-anchor="middle" x="412" y="-243.8" font-family="Times New Roman,serif" font-size="14.00">11L</text>
</g>
<!-- D&#45;&gt;D -->
<g id="edge13" class="edge">
<title>D&#45;&gt;D</title>
<path fill="none" stroke="black" d="M406.09,-203.35C400.51,-227.82 402.48,-258 412,-258 420.25,-258 422.83,-235.3 419.73,-213.32"/>
<polygon fill="black" stroke="black" points="417.91,-203.35 424.14,-212.38 418.81,-208.27 419.71,-213.19 419.71,-213.19 419.71,-213.19 418.81,-208.27 415.28,-214 417.91,-203.35 417.91,-203.35"/>
<text text-anchor="middle" x="412" y="-261.8" font-family="Times New Roman,serif" font-size="14.00">XXL</text>
</g>
<!-- D&#45;&gt;A -->
<g id="edge14" class="edge">
<title>D&#45;&gt;A</title>
<path fill="none" stroke="black" d="M395.32,-193.06C357.34,-209.02 258.54,-243.67 190,-206 151.85,-185.03 129.32,-137.32 118.34,-106.99"/>
<polygon fill="black" stroke="black" points="115.05,-97.44 122.56,-105.43 116.67,-102.17 118.3,-106.9 118.3,-106.9 118.3,-106.9 116.67,-102.17 114.05,-108.36 115.05,-97.44 115.05,-97.44"/>
<text text-anchor="middle" x="265.5" y="-225.8" font-family="Times New Roman,serif" font-size="14.00">¬¬R</text>
</g>
<!-- B -->
<g id="node4" class="node">
<title>B</title>
<ellipse fill="none" stroke="black" cx="212" cy="-80" rx="18" ry="18"/>
<text text-anchor="middle" x="212" y="-76.3" font-family="Times New Roman,serif" font-size="14.00">B</text>
</g>
<!-- B&#45;&gt;C -->
<g id="edge8" class="edge">
<title>B&#45;&gt;C</title>
<path fill="none" stroke="black" d="M228.34,-87.59C244.58,-95.63 270.45,-108.44 289.51,-117.88"/>
<polygon fill="black" stroke="black" points="298.52,-122.33 287.56,-121.93 294.03,-120.12 289.55,-117.9 289.55,-117.9 289.55,-117.9 294.03,-120.12 291.55,-113.87 298.52,-122.33 298.52,-122.33"/>
<text text-anchor="middle" x="265.5" y="-115.8" font-family="Times New Roman,serif" font-size="14.00">¬¬L</text>
</g>
<!-- B&#45;&gt;B -->
<g id="edge5" class="edge">
<title>B&#45;&gt;B</title>
<path fill="none" stroke="black" d="M208.88,-97.78C208.35,-107.31 209.39,-116 212,-116 213.59,-116 214.59,-112.77 215.02,-108.1"/>
<polygon fill="black" stroke="black" points="215.12,-97.78 219.52,-107.82 215.07,-102.78 215.02,-107.78 215.02,-107.78 215.02,-107.78 215.07,-102.78 210.52,-107.74 215.12,-97.78 215.12,-97.78"/>
<text text-anchor="middle" x="212" y="-119.8" font-family="Times New Roman,serif" font-size="14.00">00R</text>
</g>
<!-- B&#45;&gt;B -->
<g id="edge6" class="edge">
<title>B&#45;&gt;B</title>
<path fill="none" stroke="black" d="M206.88,-97.42C203.96,-114.79 205.67,-134 212,-134 217.09,-134 219.19,-121.56 218.3,-107.65"/>
<polygon fill="black" stroke="black" points="217.12,-97.42 222.74,-106.84 217.69,-102.39 218.27,-107.35 218.27,-107.35 218.27,-107.35 217.69,-102.39 213.79,-107.87 217.12,-97.42 217.12,-97.42"/>
<text text-anchor="middle" x="212" y="-137.8" font-family="Times New Roman,serif" font-size="14.00">11R</text>
</g>
<!-- B&#45;&gt;B -->
<g id="edge7" class="edge">
<title>B&#45;&gt;B</title>
<path fill="none" stroke="black" d="M205.69,-96.99C199.54,-121.52 201.64,-152 212,-152 220.98,-152 223.76,-129.08 220.33,-106.99"/>
<polygon fill="black" stroke="black" points="218.31,-96.99 224.7,-105.91 219.3,-101.89 220.29,-106.8 220.29,-106.8 220.29,-106.8 219.3,-101.89 215.88,-107.68 218.31,-96.99 218.31,-96.99"/>
<text text-anchor="middle" x="212" y="-155.8" font-family="Times New Roman,serif" font-size="14.00">XXR</text>
</g>
<!-- A&#45;&gt;B -->
<g id="edge2" class="edge">
<title>A&#45;&gt;B</title>
<path fill="none" stroke="black" d="M127.13,-80C142.59,-80 165.58,-80 183.59,-80"/>
<polygon fill="black" stroke="black" points="193.78,-80 183.78,-84.5 188.78,-80 183.78,-80 183.78,-80 183.78,-80 188.78,-80 183.78,-75.5 193.78,-80 193.78,-80"/>
<text text-anchor="middle" x="158.5" y="-83.8" font-family="Times New Roman,serif" font-size="14.00">0XR</text>
</g>
<!-- A&#45;&gt;A -->
<g id="edge3" class="edge">
<title>A&#45;&gt;A</title>
<path fill="none" stroke="black" d="M102.62,-97.04C101.32,-106.86 103.45,-116 109,-116 112.47,-116 114.6,-112.43 115.4,-107.35"/>
<polygon fill="black" stroke="black" points="115.38,-97.04 119.9,-107.03 115.39,-102.04 115.4,-107.04 115.4,-107.04 115.4,-107.04 115.39,-102.04 110.9,-107.05 115.38,-97.04 115.38,-97.04"/>
<text text-anchor="middle" x="109" y="-119.8" font-family="Times New Roman,serif" font-size="14.00">XXR</text>
</g>
<!-- E -->
<g id="node6" class="node">
<title>E</title>
<ellipse fill="none" stroke="black" cx="212" cy="-22" rx="18" ry="18"/>
<ellipse fill="none" stroke="black" cx="212" cy="-22" rx="22" ry="22"/>
<text text-anchor="middle" x="212" y="-18.3" font-family="Times New Roman,serif" font-size="14.00">E</text>
</g>
<!-- A&#45;&gt;E -->
<g id="edge4" class="edge">
<title>A&#45;&gt;E</title>
<path fill="none" stroke="black" d="M124.9,-71.44C140.37,-62.56 164.9,-48.47 183.83,-37.6"/>
<polygon fill="black" stroke="black" points="192.61,-32.56 186.18,-41.44 188.27,-35.05 183.94,-37.54 183.94,-37.54 183.94,-37.54 188.27,-35.05 181.69,-33.64 192.61,-32.56 192.61,-32.56"/>
<text text-anchor="middle" x="158.5" y="-63.8" font-family="Times New Roman,serif" font-size="14.00">11S</text>
</g>
</g>
</svg>
