<?xml version="1.0" encoding="UTF-8" standalone="no"?>
<!DOCTYPE svg PUBLIC "-//W3C//DTD SVG 1.1//EN"
 "http://www.w3.org/Graphics/SVG/1.1/DTD/svg11.dtd">
<!-- Generated by graphviz version 2.50.0 (20211204.2007)
 -->
<!-- Title: Inverte Sequência Pages: 1 -->
<svg width="728pt" height="314pt"
 viewBox="0.00 0.00 728.00 314.00" xmlns="http://www.w3.org/2000/svg" xmlns:xlink="http://www.w3.org/1999/xlink">
<g id="graph0" class="graph" transform="scale(1 1) rotate(0) translate(4 310)">
<title>Inverte Sequência</title>
<polygon fill="white" stroke="transparent" points="-4,4 -4,-310 724,-310 724,4 -4,4"/>
<!-- Start -->
<g id="node1" class="node">
<title>Start</title>
</g>
<!-- A -->
<g id="node6" class="node">
<title>A</title>
<ellipse fill="none" stroke="black" cx="109" cy="-38" rx="18" ry="18"/>
<text text-anchor="middle" x="109" y="-34.3" font-family="Times New Roman,serif" font-size="14.00">A</text>
</g>
<!-- Start&#45;&gt;A -->
<g id="edge1" class="edge">
<title>Start&#45;&gt;A</title>
<path fill="none" stroke="black" d="M54.19,-38C62.65,-38 72.05,-38 80.6,-38"/>
<polygon fill="black" stroke="black" points="90.83,-38 80.83,-42.5 85.83,-38 80.83,-38 80.83,-38 80.83,-38 85.83,-38 80.83,-33.5 90.83,-38 90.83,-38"/>
</g>
<!-- E -->
<g id="node2" class="node">
<title>E</title>
<ellipse fill="none" stroke="black" cx="497" cy="-197" rx="18" ry="18"/>
<text text-anchor="middle" x="497" y="-193.3" font-family="Times New Roman,serif" font-size="14.00">E</text>
</g>
<!-- E&#45;&gt;E -->
<g id="edge15" class="edge">
<title>E&#45;&gt;E</title>
<path fill="none" stroke="black" d="M488.64,-213.29C486.62,-223.39 489.41,-233 497,-233 501.86,-233 504.76,-229.06 505.68,-223.57"/>
<polygon fill="black" stroke="black" points="505.36,-213.29 510.17,-223.15 505.52,-218.29 505.67,-223.29 505.67,-223.29 505.67,-223.29 505.52,-218.29 501.17,-223.42 505.36,-213.29 505.36,-213.29"/>
<text text-anchor="middle" x="497" y="-236.8" font-family="Times New Roman,serif" font-size="14.00">XXL</text>
</g>
<!-- F -->
<g id="node3" class="node">
<title>F</title>
<ellipse fill="none" stroke="black" cx="305" cy="-77" rx="18" ry="18"/>
<text text-anchor="middle" x="305" y="-73.3" font-family="Times New Roman,serif" font-size="14.00">F</text>
</g>
<!-- E&#45;&gt;F -->
<g id="edge18" class="edge">
<title>E&#45;&gt;F</title>
<path fill="none" stroke="black" d="M478.62,-196.23C455.25,-194.49 413.14,-188.76 383,-170 355.56,-152.92 333.25,-122.68 319.83,-101.32"/>
<polygon fill="black" stroke="black" points="314.47,-92.5 323.51,-98.71 317.07,-96.77 319.66,-101.05 319.66,-101.05 319.66,-101.05 317.07,-96.77 315.82,-103.38 314.47,-92.5 314.47,-92.5"/>
<text text-anchor="middle" x="401" y="-188.8" font-family="Times New Roman,serif" font-size="14.00">0XR</text>
</g>
<!-- H -->
<g id="node7" class="node">
<title>H</title>
<ellipse fill="none" stroke="black" cx="596" cy="-255" rx="18" ry="18"/>
<text text-anchor="middle" x="596" y="-251.3" font-family="Times New Roman,serif" font-size="14.00">H</text>
</g>
<!-- E&#45;&gt;H -->
<g id="edge16" class="edge">
<title>E&#45;&gt;H</title>
<path fill="none" stroke="black" d="M512.98,-206C519.18,-209.72 526.43,-214.07 533,-218 545.73,-225.62 559.94,-234.1 571.55,-241.02"/>
<polygon fill="black" stroke="black" points="580.21,-246.19 569.32,-244.93 575.92,-243.63 571.62,-241.07 571.62,-241.07 571.62,-241.07 575.92,-243.63 573.93,-237.2 580.21,-246.19 580.21,-246.19"/>
<text text-anchor="middle" x="546.5" y="-236.8" font-family="Times New Roman,serif" font-size="14.00">¬¬R</text>
</g>
<!-- C -->
<g id="node8" class="node">
<title>C</title>
<ellipse fill="none" stroke="black" cx="596" cy="-18" rx="18" ry="18"/>
<text text-anchor="middle" x="596" y="-14.3" font-family="Times New Roman,serif" font-size="14.00">C</text>
</g>
<!-- E&#45;&gt;C -->
<g id="edge17" class="edge">
<title>E&#45;&gt;C</title>
<path fill="none" stroke="black" d="M506.44,-181.43C523.32,-150.27 561.37,-80.06 581.66,-42.61"/>
<polygon fill="black" stroke="black" points="586.65,-33.41 585.84,-44.34 584.27,-37.8 581.89,-42.2 581.89,-42.2 581.89,-42.2 584.27,-37.8 577.93,-40.06 586.65,-33.41 586.65,-33.41"/>
<text text-anchor="middle" x="546.5" y="-131.8" font-family="Times New Roman,serif" font-size="14.00">1XR</text>
</g>
<!-- F&#45;&gt;F -->
<g id="edge19" class="edge">
<title>F&#45;&gt;F</title>
<path fill="none" stroke="black" d="M302.83,-95.15C302.5,-104.54 303.22,-113 305,-113 306.09,-113 306.78,-109.86 307.08,-105.28"/>
<polygon fill="black" stroke="black" points="307.17,-95.15 311.58,-105.19 307.13,-100.15 307.08,-105.15 307.08,-105.15 307.08,-105.15 307.13,-100.15 302.58,-105.11 307.17,-95.15 307.17,-95.15"/>
<text text-anchor="middle" x="305" y="-116.8" font-family="Times New Roman,serif" font-size="14.00">##R</text>
</g>
<!-- F&#45;&gt;F -->
<g id="edge20" class="edge">
<title>F&#45;&gt;F</title>
<path fill="none" stroke="black" d="M301.42,-94.7C299.45,-112 300.64,-131 305,-131 308.51,-131 309.96,-118.69 309.37,-104.87"/>
<polygon fill="black" stroke="black" points="308.58,-94.7 313.84,-104.32 308.97,-99.68 309.35,-104.67 309.35,-104.67 309.35,-104.67 308.97,-99.68 304.87,-105.02 308.58,-94.7 308.58,-94.7"/>
<text text-anchor="middle" x="305" y="-134.8" font-family="Times New Roman,serif" font-size="14.00">XXR</text>
</g>
<!-- F&#45;&gt;F -->
<g id="edge21" class="edge">
<title>F&#45;&gt;F</title>
<path fill="none" stroke="black" d="M300.51,-94.72C296.4,-119.11 297.9,-149 305,-149 311.16,-149 313.1,-126.53 310.83,-104.64"/>
<polygon fill="black" stroke="black" points="309.49,-94.72 315.29,-104.02 310.16,-99.67 310.83,-104.63 310.83,-104.63 310.83,-104.63 310.16,-99.67 306.37,-105.23 309.49,-94.72 309.49,-94.72"/>
<text text-anchor="middle" x="305" y="-152.8" font-family="Times New Roman,serif" font-size="14.00">11R</text>
</g>
<!-- F&#45;&gt;F -->
<g id="edge22" class="edge">
<title>F&#45;&gt;F</title>
<path fill="none" stroke="black" d="M299.88,-94.67C293.35,-125.85 295.06,-167 305,-167 313.89,-167 316.19,-134.07 311.91,-104.81"/>
<polygon fill="black" stroke="black" points="310.12,-94.67 316.29,-103.74 310.99,-99.59 311.86,-104.52 311.86,-104.52 311.86,-104.52 310.99,-99.59 307.43,-105.3 310.12,-94.67 310.12,-94.67"/>
<text text-anchor="middle" x="305" y="-170.8" font-family="Times New Roman,serif" font-size="14.00">00R</text>
</g>
<!-- G -->
<g id="node5" class="node">
<title>G</title>
<ellipse fill="none" stroke="black" cx="401" cy="-77" rx="18" ry="18"/>
<text text-anchor="middle" x="401" y="-73.3" font-family="Times New Roman,serif" font-size="14.00">G</text>
</g>
<!-- F&#45;&gt;G -->
<g id="edge23" class="edge">
<title>F&#45;&gt;G</title>
<path fill="none" stroke="black" d="M323.24,-77C337.02,-77 356.6,-77 372.53,-77"/>
<polygon fill="black" stroke="black" points="382.87,-77 372.87,-81.5 377.87,-77 372.87,-77 372.87,-77 372.87,-77 377.87,-77 372.87,-72.5 382.87,-77 382.87,-77"/>
<text text-anchor="middle" x="353" y="-80.8" font-family="Times New Roman,serif" font-size="14.00">¬0L</text>
</g>
<!-- B -->
<g id="node4" class="node">
<title>B</title>
<ellipse fill="none" stroke="black" cx="206" cy="-38" rx="18" ry="18"/>
<text text-anchor="middle" x="206" y="-34.3" font-family="Times New Roman,serif" font-size="14.00">B</text>
</g>
<!-- B&#45;&gt;F -->
<g id="edge6" class="edge">
<title>B&#45;&gt;F</title>
<path fill="none" stroke="black" d="M223.02,-44.44C238.04,-50.48 260.76,-59.62 278.32,-66.67"/>
<polygon fill="black" stroke="black" points="287.96,-70.55 277,-71 283.32,-68.69 278.68,-66.82 278.68,-66.82 278.68,-66.82 283.32,-68.69 280.36,-62.64 287.96,-70.55 287.96,-70.55"/>
<text text-anchor="middle" x="255.5" y="-65.8" font-family="Times New Roman,serif" font-size="14.00">0XR</text>
</g>
<!-- B&#45;&gt;C -->
<g id="edge5" class="edge">
<title>B&#45;&gt;C</title>
<path fill="none" stroke="black" d="M223.68,-33.54C242.9,-28.81 275.5,-22 304,-22 304,-22 304,-22 498,-22 521.5,-22 548.17,-20.81 567.59,-19.73"/>
<polygon fill="black" stroke="black" points="577.84,-19.14 568.12,-24.21 572.85,-19.43 567.85,-19.72 567.85,-19.72 567.85,-19.72 572.85,-19.43 567.59,-15.23 577.84,-19.14 577.84,-19.14"/>
<text text-anchor="middle" x="401" y="-25.8" font-family="Times New Roman,serif" font-size="14.00">1XR</text>
</g>
<!-- G&#45;&gt;E -->
<g id="edge26" class="edge">
<title>G&#45;&gt;E</title>
<path fill="none" stroke="black" d="M412.78,-90.77C428.92,-111.36 459.5,-150.4 478.76,-174.99"/>
<polygon fill="black" stroke="black" points="485.05,-183.03 475.34,-177.93 481.97,-179.09 478.89,-175.15 478.89,-175.15 478.89,-175.15 481.97,-179.09 482.43,-172.38 485.05,-183.03 485.05,-183.03"/>
<text text-anchor="middle" x="449" y="-154.8" font-family="Times New Roman,serif" font-size="14.00">##L</text>
</g>
<!-- G&#45;&gt;G -->
<g id="edge24" class="edge">
<title>G&#45;&gt;G</title>
<path fill="none" stroke="black" d="M396.69,-94.78C395.95,-104.31 397.39,-113 401,-113 403.2,-113 404.59,-109.77 405.18,-105.1"/>
<polygon fill="black" stroke="black" points="405.31,-94.78 409.68,-104.84 405.25,-99.78 405.18,-104.78 405.18,-104.78 405.18,-104.78 405.25,-99.78 400.68,-104.72 405.31,-94.78 405.31,-94.78"/>
<text text-anchor="middle" x="401" y="-116.8" font-family="Times New Roman,serif" font-size="14.00">11L</text>
</g>
<!-- G&#45;&gt;G -->
<g id="edge25" class="edge">
<title>G&#45;&gt;G</title>
<path fill="none" stroke="black" d="M394.04,-93.86C389.82,-111.38 392.14,-131 401,-131 408.2,-131 411.08,-118.05 409.64,-103.79"/>
<polygon fill="black" stroke="black" points="407.96,-93.86 414.07,-102.97 408.79,-98.79 409.63,-103.72 409.63,-103.72 409.63,-103.72 408.79,-98.79 405.19,-104.48 407.96,-93.86 407.96,-93.86"/>
<text text-anchor="middle" x="401" y="-134.8" font-family="Times New Roman,serif" font-size="14.00">00L</text>
</g>
<!-- A&#45;&gt;B -->
<g id="edge4" class="edge">
<title>A&#45;&gt;B</title>
<path fill="none" stroke="black" d="M127.42,-38C141.35,-38 161.14,-38 177.24,-38"/>
<polygon fill="black" stroke="black" points="187.69,-38 177.69,-42.5 182.69,-38 177.69,-38 177.69,-38 177.69,-38 182.69,-38 177.69,-33.5 187.69,-38 187.69,-38"/>
<text text-anchor="middle" x="157.5" y="-41.8" font-family="Times New Roman,serif" font-size="14.00">¬#L</text>
</g>
<!-- A&#45;&gt;A -->
<g id="edge2" class="edge">
<title>A&#45;&gt;A</title>
<path fill="none" stroke="black" d="M105.76,-55.78C105.21,-65.31 106.29,-74 109,-74 110.65,-74 111.69,-70.77 112.13,-66.1"/>
<polygon fill="black" stroke="black" points="112.24,-55.78 116.64,-65.83 112.19,-60.78 112.14,-65.78 112.14,-65.78 112.14,-65.78 112.19,-60.78 107.64,-65.74 112.24,-55.78 112.24,-55.78"/>
<text text-anchor="middle" x="109" y="-77.8" font-family="Times New Roman,serif" font-size="14.00">00R</text>
</g>
<!-- A&#45;&gt;A -->
<g id="edge3" class="edge">
<title>A&#45;&gt;A</title>
<path fill="none" stroke="black" d="M103.68,-55.42C100.65,-72.79 102.43,-92 109,-92 114.29,-92 116.47,-79.56 115.54,-65.65"/>
<polygon fill="black" stroke="black" points="114.32,-55.42 119.97,-64.81 114.91,-60.38 115.51,-65.35 115.51,-65.35 115.51,-65.35 114.91,-60.38 111.04,-65.88 114.32,-55.42 114.32,-55.42"/>
<text text-anchor="middle" x="109" y="-95.8" font-family="Times New Roman,serif" font-size="14.00">11R</text>
</g>
<!-- H&#45;&gt;H -->
<g id="edge27" class="edge">
<title>H&#45;&gt;H</title>
<path fill="none" stroke="black" d="M587.64,-271.29C585.62,-281.39 588.41,-291 596,-291 600.86,-291 603.76,-287.06 604.68,-281.57"/>
<polygon fill="black" stroke="black" points="604.36,-271.29 609.17,-281.15 604.52,-276.29 604.67,-281.29 604.67,-281.29 604.67,-281.29 604.52,-276.29 600.17,-281.42 604.36,-271.29 604.36,-271.29"/>
<text text-anchor="middle" x="596" y="-294.8" font-family="Times New Roman,serif" font-size="14.00">X¬R</text>
</g>
<!-- I -->
<g id="node10" class="node">
<title>I</title>
<ellipse fill="none" stroke="black" cx="698" cy="-255" rx="18" ry="18"/>
<ellipse fill="none" stroke="black" cx="698" cy="-255" rx="22" ry="22"/>
<text text-anchor="middle" x="698" y="-251.3" font-family="Times New Roman,serif" font-size="14.00">I</text>
</g>
<!-- H&#45;&gt;I -->
<g id="edge28" class="edge">
<title>H&#45;&gt;I</title>
<path fill="none" stroke="black" d="M614.42,-255C628.6,-255 648.97,-255 665.93,-255"/>
<polygon fill="black" stroke="black" points="675.97,-255 665.97,-259.5 670.97,-255 665.97,-255 665.97,-255 665.97,-255 670.97,-255 665.97,-250.5 675.97,-255 675.97,-255"/>
<text text-anchor="middle" x="645" y="-258.8" font-family="Times New Roman,serif" font-size="14.00">#¬R</text>
</g>
<!-- C&#45;&gt;C -->
<g id="edge7" class="edge">
<title>C&#45;&gt;C</title>
<path fill="none" stroke="black" d="M593.83,-36.15C593.5,-45.54 594.22,-54 596,-54 597.09,-54 597.78,-50.86 598.08,-46.28"/>
<polygon fill="black" stroke="black" points="598.17,-36.15 602.58,-46.19 598.13,-41.15 598.08,-46.15 598.08,-46.15 598.08,-46.15 598.13,-41.15 593.58,-46.11 598.17,-36.15 598.17,-36.15"/>
<text text-anchor="middle" x="596" y="-57.8" font-family="Times New Roman,serif" font-size="14.00">##R</text>
</g>
<!-- C&#45;&gt;C -->
<g id="edge8" class="edge">
<title>C&#45;&gt;C</title>
<path fill="none" stroke="black" d="M592.42,-35.7C590.45,-53 591.64,-72 596,-72 599.51,-72 600.96,-59.69 600.37,-45.87"/>
<polygon fill="black" stroke="black" points="599.58,-35.7 604.84,-45.32 599.97,-40.68 600.35,-45.67 600.35,-45.67 600.35,-45.67 599.97,-40.68 595.87,-46.02 599.58,-35.7 599.58,-35.7"/>
<text text-anchor="middle" x="596" y="-75.8" font-family="Times New Roman,serif" font-size="14.00">XXR</text>
</g>
<!-- C&#45;&gt;C -->
<g id="edge9" class="edge">
<title>C&#45;&gt;C</title>
<path fill="none" stroke="black" d="M591.51,-35.72C587.4,-60.11 588.9,-90 596,-90 602.16,-90 604.1,-67.53 601.83,-45.64"/>
<polygon fill="black" stroke="black" points="600.49,-35.72 606.29,-45.02 601.16,-40.67 601.83,-45.63 601.83,-45.63 601.83,-45.63 601.16,-40.67 597.37,-46.23 600.49,-35.72 600.49,-35.72"/>
<text text-anchor="middle" x="596" y="-93.8" font-family="Times New Roman,serif" font-size="14.00">11R</text>
</g>
<!-- C&#45;&gt;C -->
<g id="edge10" class="edge">
<title>C&#45;&gt;C</title>
<path fill="none" stroke="black" d="M590.88,-35.67C584.35,-66.85 586.06,-108 596,-108 604.89,-108 607.19,-75.07 602.91,-45.81"/>
<polygon fill="black" stroke="black" points="601.12,-35.67 607.29,-44.74 601.99,-40.59 602.86,-45.52 602.86,-45.52 602.86,-45.52 601.99,-40.59 598.43,-46.3 601.12,-35.67 601.12,-35.67"/>
<text text-anchor="middle" x="596" y="-111.8" font-family="Times New Roman,serif" font-size="14.00">00R</text>
</g>
<!-- D -->
<g id="node9" class="node">
<title>D</title>
<ellipse fill="none" stroke="black" cx="698" cy="-103" rx="18" ry="18"/>
<text text-anchor="middle" x="698" y="-99.3" font-family="Times New Roman,serif" font-size="14.00">D</text>
</g>
<!-- C&#45;&gt;D -->
<g id="edge11" class="edge">
<title>C&#45;&gt;D</title>
<path fill="none" stroke="black" d="M610.49,-29.46C627.28,-43.74 656.16,-68.28 675.89,-85.06"/>
<polygon fill="black" stroke="black" points="683.73,-91.72 673.19,-88.67 679.92,-88.48 676.11,-85.24 676.11,-85.24 676.11,-85.24 679.92,-88.48 679.02,-81.81 683.73,-91.72 683.73,-91.72"/>
<text text-anchor="middle" x="645" y="-71.8" font-family="Times New Roman,serif" font-size="14.00">¬1L</text>
</g>
<!-- D&#45;&gt;E -->
<g id="edge14" class="edge">
<title>D&#45;&gt;E</title>
<path fill="none" stroke="black" d="M685.97,-116.72C671.41,-133.8 644.08,-162.49 614,-177 585.75,-190.63 549.67,-195.1 525.31,-196.5"/>
<polygon fill="black" stroke="black" points="515.01,-196.95 524.81,-192.02 520.01,-196.73 525.01,-196.52 525.01,-196.52 525.01,-196.52 520.01,-196.73 525.2,-201.01 515.01,-196.95 515.01,-196.95"/>
<text text-anchor="middle" x="596" y="-192.8" font-family="Times New Roman,serif" font-size="14.00">##L</text>
</g>
<!-- D&#45;&gt;D -->
<g id="edge12" class="edge">
<title>D&#45;&gt;D</title>
<path fill="none" stroke="black" d="M693.36,-120.41C692.49,-130.09 694.04,-139 698,-139 700.48,-139 702.01,-135.52 702.6,-130.54"/>
<polygon fill="black" stroke="black" points="702.64,-120.41 707.1,-130.43 702.62,-125.41 702.6,-130.41 702.6,-130.41 702.6,-130.41 702.62,-125.41 698.1,-130.39 702.64,-120.41 702.64,-120.41"/>
<text text-anchor="middle" x="698" y="-142.8" font-family="Times New Roman,serif" font-size="14.00">11L</text>
</g>
<!-- D&#45;&gt;D -->
<g id="edge13" class="edge">
<title>D&#45;&gt;D</title>
<path fill="none" stroke="black" d="M690.54,-119.59C685.86,-137.17 688.35,-157 698,-157 705.84,-157 708.95,-143.91 707.34,-129.57"/>
<polygon fill="black" stroke="black" points="705.46,-119.59 711.73,-128.58 706.38,-124.5 707.31,-129.41 707.31,-129.41 707.31,-129.41 706.38,-124.5 702.88,-130.24 705.46,-119.59 705.46,-119.59"/>
<text text-anchor="middle" x="698" y="-160.8" font-family="Times New Roman,serif" font-size="14.00">00L</text>
</g>
</g>
</svg>
