<?xml version="1.0" encoding="UTF-8" standalone="no"?>
<!DOCTYPE svg PUBLIC "-//W3C//DTD SVG 1.1//EN"
 "http://www.w3.org/Graphics/SVG/1.1/DTD/svg11.dtd">
<!-- Generated by graphviz version 2.50.0 (20211204.2007)
 -->
<!-- Title: Obtém o sucessor de um número binário Pages: 1 -->
<svg width="527pt" height="161pt"
 viewBox="0.00 0.00 527.00 161.00" xmlns="http://www.w3.org/2000/svg" xmlns:xlink="http://www.w3.org/1999/xlink">
<g id="graph0" class="graph" transform="scale(1 1) rotate(0) translate(4 157)">
<title>Obtém o sucessor de um número binário</title>
<polygon fill="white" stroke="transparent" points="-4,4 -4,-157 523,-157 523,4 -4,4"/>
<!-- Start -->
<g id="node1" class="node">
<title>Start</title>
</g>
<!-- A -->
<g id="node5" class="node">
<title>A</title>
<ellipse fill="none" stroke="black" cx="109" cy="-62" rx="18" ry="18"/>
<text text-anchor="middle" x="109" y="-58.3" font-family="Times New Roman,serif" font-size="14.00">A</text>
</g>
<!-- Start&#45;&gt;A -->
<g id="edge1" class="edge">
<title>Start&#45;&gt;A</title>
<path fill="none" stroke="black" d="M54.19,-62C62.65,-62 72.05,-62 80.6,-62"/>
<polygon fill="black" stroke="black" points="90.83,-62 80.83,-66.5 85.83,-62 80.83,-62 80.83,-62 80.83,-62 85.83,-62 80.83,-57.5 90.83,-62 90.83,-62"/>
</g>
<!-- B -->
<g id="node2" class="node">
<title>B</title>
<ellipse fill="none" stroke="black" cx="206" cy="-62" rx="18" ry="18"/>
<text text-anchor="middle" x="206" y="-58.3" font-family="Times New Roman,serif" font-size="14.00">B</text>
</g>
<!-- C -->
<g id="node3" class="node">
<title>C</title>
<ellipse fill="none" stroke="black" cx="394" cy="-69" rx="18" ry="18"/>
<text text-anchor="middle" x="394" y="-65.3" font-family="Times New Roman,serif" font-size="14.00">C</text>
</g>
<!-- B&#45;&gt;C -->
<g id="edge5" class="edge">
<title>B&#45;&gt;C</title>
<path fill="none" stroke="black" d="M223.52,-66.57C238.61,-70.5 261.61,-75.85 282,-78 310.59,-81.02 343.41,-77.49 365.9,-74.01"/>
<polygon fill="black" stroke="black" points="376.05,-72.33 366.92,-78.4 371.12,-73.15 366.19,-73.96 366.19,-73.96 366.19,-73.96 371.12,-73.15 365.45,-69.52 376.05,-72.33 376.05,-72.33"/>
<text text-anchor="middle" x="300" y="-82.8" font-family="Times New Roman,serif" font-size="14.00">01L</text>
</g>
<!-- E -->
<g id="node4" class="node">
<title>E</title>
<ellipse fill="none" stroke="black" cx="300" cy="-18" rx="18" ry="18"/>
<text text-anchor="middle" x="300" y="-14.3" font-family="Times New Roman,serif" font-size="14.00">E</text>
</g>
<!-- B&#45;&gt;E -->
<g id="edge6" class="edge">
<title>B&#45;&gt;E</title>
<path fill="none" stroke="black" d="M222.61,-54.54C236.75,-47.77 257.83,-37.69 274.26,-29.83"/>
<polygon fill="black" stroke="black" points="283.32,-25.5 276.24,-33.87 278.81,-27.66 274.3,-29.82 274.3,-29.82 274.3,-29.82 278.81,-27.66 272.35,-25.76 283.32,-25.5 283.32,-25.5"/>
<text text-anchor="middle" x="253" y="-48.8" font-family="Times New Roman,serif" font-size="14.00">10L</text>
</g>
<!-- C&#45;&gt;C -->
<g id="edge7" class="edge">
<title>C&#45;&gt;C</title>
<path fill="none" stroke="black" d="M389.87,-86.78C389.16,-96.31 390.54,-105 394,-105 396.11,-105 397.44,-101.77 398.01,-97.1"/>
<polygon fill="black" stroke="black" points="398.13,-86.78 402.51,-96.84 398.07,-91.78 398.01,-96.78 398.01,-96.78 398.01,-96.78 398.07,-91.78 393.51,-96.72 398.13,-86.78 398.13,-86.78"/>
<text text-anchor="middle" x="394" y="-108.8" font-family="Times New Roman,serif" font-size="14.00">11L</text>
</g>
<!-- C&#45;&gt;C -->
<g id="edge8" class="edge">
<title>C&#45;&gt;C</title>
<path fill="none" stroke="black" d="M387.33,-85.86C383.29,-103.38 385.51,-123 394,-123 400.9,-123 403.66,-110.05 402.28,-95.79"/>
<polygon fill="black" stroke="black" points="400.67,-85.86 406.71,-95.01 401.47,-90.8 402.27,-95.73 402.27,-95.73 402.27,-95.73 401.47,-90.8 397.83,-96.46 400.67,-85.86 400.67,-85.86"/>
<text text-anchor="middle" x="394" y="-126.8" font-family="Times New Roman,serif" font-size="14.00">00L</text>
</g>
<!-- D -->
<g id="node6" class="node">
<title>D</title>
<ellipse fill="none" stroke="black" cx="497" cy="-34" rx="18" ry="18"/>
<ellipse fill="none" stroke="black" cx="497" cy="-34" rx="22" ry="22"/>
<text text-anchor="middle" x="497" y="-30.3" font-family="Times New Roman,serif" font-size="14.00">D</text>
</g>
<!-- C&#45;&gt;D -->
<g id="edge9" class="edge">
<title>C&#45;&gt;D</title>
<path fill="none" stroke="black" d="M411.23,-63.38C426.1,-58.22 448.47,-50.47 466.5,-44.22"/>
<polygon fill="black" stroke="black" points="475.99,-40.93 468.01,-48.46 471.26,-42.57 466.54,-44.21 466.54,-44.21 466.54,-44.21 471.26,-42.57 465.07,-39.96 475.99,-40.93 475.99,-40.93"/>
<text text-anchor="middle" x="443.5" y="-59.8" font-family="Times New Roman,serif" font-size="14.00">¬¬R</text>
</g>
<!-- E&#45;&gt;C -->
<g id="edge11" class="edge">
<title>E&#45;&gt;C</title>
<path fill="none" stroke="black" d="M316.19,-26.42C330.44,-34.32 351.99,-46.27 368.64,-55.5"/>
<polygon fill="black" stroke="black" points="377.79,-60.57 366.86,-59.65 373.41,-58.14 369.04,-55.72 369.04,-55.72 369.04,-55.72 373.41,-58.14 371.22,-51.78 377.79,-60.57 377.79,-60.57"/>
<text text-anchor="middle" x="347" y="-52.8" font-family="Times New Roman,serif" font-size="14.00">01L</text>
</g>
<!-- E&#45;&gt;E -->
<g id="edge10" class="edge">
<title>E&#45;&gt;E</title>
<path fill="none" stroke="black" d="M291.98,-34.29C290.05,-44.39 292.72,-54 300,-54 304.66,-54 307.43,-50.06 308.32,-44.57"/>
<polygon fill="black" stroke="black" points="308.02,-34.29 312.81,-44.15 308.16,-39.29 308.31,-44.29 308.31,-44.29 308.31,-44.29 308.16,-39.29 303.81,-44.42 308.02,-34.29 308.02,-34.29"/>
<text text-anchor="middle" x="300" y="-57.8" font-family="Times New Roman,serif" font-size="14.00">10L</text>
</g>
<!-- E&#45;&gt;D -->
<g id="edge12" class="edge">
<title>E&#45;&gt;D</title>
<path fill="none" stroke="black" d="M318.3,-19.39C340.14,-21.15 378.86,-24.28 412,-27 429.42,-28.43 448.87,-30.05 464.66,-31.37"/>
<polygon fill="black" stroke="black" points="474.94,-32.23 464.6,-35.88 469.96,-31.82 464.98,-31.4 464.98,-31.4 464.98,-31.4 469.96,-31.82 465.35,-26.91 474.94,-32.23 474.94,-32.23"/>
<text text-anchor="middle" x="394" y="-30.8" font-family="Times New Roman,serif" font-size="14.00">¬1S</text>
</g>
<!-- A&#45;&gt;B -->
<g id="edge4" class="edge">
<title>A&#45;&gt;B</title>
<path fill="none" stroke="black" d="M127.42,-62C141.35,-62 161.14,-62 177.24,-62"/>
<polygon fill="black" stroke="black" points="187.69,-62 177.69,-66.5 182.69,-62 177.69,-62 177.69,-62 177.69,-62 182.69,-62 177.69,-57.5 187.69,-62 187.69,-62"/>
<text text-anchor="middle" x="157.5" y="-65.8" font-family="Times New Roman,serif" font-size="14.00">¬¬L</text>
</g>
<!-- A&#45;&gt;A -->
<g id="edge2" class="edge">
<title>A&#45;&gt;A</title>
<path fill="none" stroke="black" d="M105.76,-79.78C105.21,-89.31 106.29,-98 109,-98 110.65,-98 111.69,-94.77 112.13,-90.1"/>
<polygon fill="black" stroke="black" points="112.24,-79.78 116.64,-89.83 112.19,-84.78 112.14,-89.78 112.14,-89.78 112.14,-89.78 112.19,-84.78 107.64,-89.74 112.24,-79.78 112.24,-79.78"/>
<text text-anchor="middle" x="109" y="-101.8" font-family="Times New Roman,serif" font-size="14.00">11R</text>
</g>
<!-- A&#45;&gt;A -->
<g id="edge3" class="edge">
<title>A&#45;&gt;A</title>
<path fill="none" stroke="black" d="M103.68,-79.42C100.65,-96.79 102.43,-116 109,-116 114.29,-116 116.47,-103.56 115.54,-89.65"/>
<polygon fill="black" stroke="black" points="114.32,-79.42 119.97,-88.81 114.91,-84.38 115.51,-89.35 115.51,-89.35 115.51,-89.35 114.91,-84.38 111.04,-89.88 114.32,-79.42 114.32,-79.42"/>
<text text-anchor="middle" x="109" y="-119.8" font-family="Times New Roman,serif" font-size="14.00">00R</text>
</g>
</g>
</svg>
