<?xml version="1.0" encoding="UTF-8" standalone="no"?>
<!DOCTYPE svg PUBLIC "-//W3C//DTD SVG 1.1//EN"
 "http://www.w3.org/Graphics/SVG/1.1/DTD/svg11.dtd">
<!-- Generated by graphviz version 2.50.0 (20211204.2007)
 -->
<!-- Title: Sequências binárias que começam e terminam com o mesmo símbolo Pages: 1 -->
<svg width="301pt" height="183pt"
 viewBox="0.00 0.00 301.00 183.00" xmlns="http://www.w3.org/2000/svg" xmlns:xlink="http://www.w3.org/1999/xlink">
<g id="graph0" class="graph" transform="scale(1 1) rotate(0) translate(4 179)">
<title>Sequências binárias que começam e terminam com o mesmo símbolo</title>
<polygon fill="white" stroke="transparent" points="-4,4 -4,-179 297,-179 297,4 -4,4"/>
<!-- Start -->
<g id="node1" class="node">
<title>Start</title>
</g>
<!-- A -->
<g id="node3" class="node">
<title>A</title>
<ellipse fill="none" stroke="black" cx="109" cy="-69" rx="18" ry="18"/>
<text text-anchor="middle" x="109" y="-65.3" font-family="Times New Roman,serif" font-size="14.00">A</text>
</g>
<!-- Start&#45;&gt;A -->
<g id="edge1" class="edge">
<title>Start&#45;&gt;A</title>
<path fill="none" stroke="black" d="M54.19,-69C62.65,-69 72.05,-69 80.6,-69"/>
<polygon fill="black" stroke="black" points="90.83,-69 80.83,-73.5 85.83,-69 80.83,-69 80.83,-69 80.83,-69 85.83,-69 80.83,-64.5 90.83,-69 90.83,-69"/>
</g>
<!-- E -->
<g id="node2" class="node">
<title>E</title>
<ellipse fill="none" stroke="black" cx="275" cy="-29" rx="18" ry="18"/>
<text text-anchor="middle" x="275" y="-25.3" font-family="Times New Roman,serif" font-size="14.00">E</text>
</g>
<!-- E&#45;&gt;E -->
<g id="edge10" class="edge">
<title>E&#45;&gt;E</title>
<path fill="none" stroke="black" d="M268.27,-46.04C266.89,-55.86 269.14,-65 275,-65 278.66,-65 280.92,-61.43 281.75,-56.35"/>
<polygon fill="black" stroke="black" points="281.73,-46.04 286.25,-56.03 281.74,-51.04 281.75,-56.04 281.75,-56.04 281.75,-56.04 281.74,-51.04 277.25,-56.05 281.73,-46.04 281.73,-46.04"/>
<text text-anchor="middle" x="275" y="-68.8" font-family="Times New Roman,serif" font-size="14.00">1</text>
</g>
<!-- C -->
<g id="node6" class="node">
<title>C</title>
<ellipse fill="none" stroke="black" cx="192" cy="-22" rx="18" ry="18"/>
<ellipse fill="none" stroke="black" cx="192" cy="-22" rx="22" ry="22"/>
<text text-anchor="middle" x="192" y="-18.3" font-family="Times New Roman,serif" font-size="14.00">C</text>
</g>
<!-- E&#45;&gt;C -->
<g id="edge11" class="edge">
<title>E&#45;&gt;C</title>
<path fill="none" stroke="black" d="M259.69,-19.13C253.6,-15.51 246.24,-11.84 239,-10 233.5,-8.6 227.64,-8.82 222,-9.89"/>
<polygon fill="black" stroke="black" points="212.23,-12.56 220.69,-5.58 217.06,-11.24 221.88,-9.92 221.88,-9.92 221.88,-9.92 217.06,-11.24 223.07,-14.26 212.23,-12.56 212.23,-12.56"/>
<text text-anchor="middle" x="235.5" y="-13.8" font-family="Times New Roman,serif" font-size="14.00">0</text>
</g>
<!-- B -->
<g id="node5" class="node">
<title>B</title>
<ellipse fill="none" stroke="black" cx="192" cy="-117" rx="18" ry="18"/>
<ellipse fill="none" stroke="black" cx="192" cy="-117" rx="22" ry="22"/>
<text text-anchor="middle" x="192" y="-113.3" font-family="Times New Roman,serif" font-size="14.00">B</text>
</g>
<!-- A&#45;&gt;B -->
<g id="edge2" class="edge">
<title>A&#45;&gt;B</title>
<path fill="none" stroke="black" d="M124.86,-77.8C135.77,-84.27 150.89,-93.23 163.93,-100.96"/>
<polygon fill="black" stroke="black" points="172.54,-106.06 161.64,-104.83 168.24,-103.51 163.94,-100.96 163.94,-100.96 163.94,-100.96 168.24,-103.51 166.23,-97.09 172.54,-106.06 172.54,-106.06"/>
<text text-anchor="middle" x="148.5" y="-96.8" font-family="Times New Roman,serif" font-size="14.00">1</text>
</g>
<!-- A&#45;&gt;C -->
<g id="edge3" class="edge">
<title>A&#45;&gt;C</title>
<path fill="none" stroke="black" d="M124.86,-60.38C135.66,-54.11 150.6,-45.44 163.55,-37.93"/>
<polygon fill="black" stroke="black" points="172.54,-32.71 166.15,-41.62 168.22,-35.22 163.89,-37.73 163.89,-37.73 163.89,-37.73 168.22,-35.22 161.63,-33.84 172.54,-32.71 172.54,-32.71"/>
<text text-anchor="middle" x="148.5" y="-51.8" font-family="Times New Roman,serif" font-size="14.00">0</text>
</g>
<!-- D -->
<g id="node4" class="node">
<title>D</title>
<ellipse fill="none" stroke="black" cx="275" cy="-124" rx="18" ry="18"/>
<text text-anchor="middle" x="275" y="-120.3" font-family="Times New Roman,serif" font-size="14.00">D</text>
</g>
<!-- D&#45;&gt;D -->
<g id="edge8" class="edge">
<title>D&#45;&gt;D</title>
<path fill="none" stroke="black" d="M268.27,-141.04C266.89,-150.86 269.14,-160 275,-160 278.66,-160 280.92,-156.43 281.75,-151.35"/>
<polygon fill="black" stroke="black" points="281.73,-141.04 286.25,-151.03 281.74,-146.04 281.75,-151.04 281.75,-151.04 281.75,-151.04 281.74,-146.04 277.25,-151.05 281.73,-141.04 281.73,-141.04"/>
<text text-anchor="middle" x="275" y="-163.8" font-family="Times New Roman,serif" font-size="14.00">0</text>
</g>
<!-- D&#45;&gt;B -->
<g id="edge9" class="edge">
<title>D&#45;&gt;B</title>
<path fill="none" stroke="black" d="M260.64,-112.57C254.48,-108.03 246.8,-103.33 239,-101 232.98,-99.2 226.58,-99.79 220.53,-101.54"/>
<polygon fill="black" stroke="black" points="210.79,-105.36 218.46,-97.52 215.45,-103.53 220.1,-101.71 220.1,-101.71 220.1,-101.71 215.45,-103.53 221.75,-105.9 210.79,-105.36 210.79,-105.36"/>
<text text-anchor="middle" x="235.5" y="-104.8" font-family="Times New Roman,serif" font-size="14.00">1</text>
</g>
<!-- B&#45;&gt;D -->
<g id="edge5" class="edge">
<title>B&#45;&gt;D</title>
<path fill="none" stroke="black" d="M214.28,-118.84C224.27,-119.7 236.28,-120.74 246.9,-121.66"/>
<polygon fill="black" stroke="black" points="256.94,-122.53 246.59,-126.15 251.96,-122.1 246.98,-121.66 246.98,-121.66 246.98,-121.66 251.96,-122.1 247.36,-117.18 256.94,-122.53 256.94,-122.53"/>
<text text-anchor="middle" x="235.5" y="-123.8" font-family="Times New Roman,serif" font-size="14.00">0</text>
</g>
<!-- B&#45;&gt;B -->
<g id="edge4" class="edge">
<title>B&#45;&gt;B</title>
<path fill="none" stroke="black" d="M184.32,-137.99C183.37,-148.09 185.93,-157 192,-157 195.89,-157 198.34,-153.34 199.35,-148.06"/>
<polygon fill="black" stroke="black" points="199.68,-137.99 203.85,-148.14 199.52,-142.99 199.35,-147.99 199.35,-147.99 199.35,-147.99 199.52,-142.99 194.85,-147.83 199.68,-137.99 199.68,-137.99"/>
<text text-anchor="middle" x="192" y="-160.8" font-family="Times New Roman,serif" font-size="14.00">1</text>
</g>
<!-- C&#45;&gt;E -->
<g id="edge6" class="edge">
<title>C&#45;&gt;E</title>
<path fill="none" stroke="black" d="M213.96,-26.47C219.77,-27.51 226.11,-28.48 232,-29 236.7,-29.42 241.71,-29.63 246.58,-29.7"/>
<polygon fill="black" stroke="black" points="256.8,-29.69 246.81,-34.2 251.8,-29.69 246.8,-29.7 246.8,-29.7 246.8,-29.7 251.8,-29.69 246.8,-25.2 256.8,-29.69 256.8,-29.69"/>
<text text-anchor="middle" x="235.5" y="-32.8" font-family="Times New Roman,serif" font-size="14.00">1</text>
</g>
<!-- C&#45;&gt;C -->
<g id="edge7" class="edge">
<title>C&#45;&gt;C</title>
<path fill="none" stroke="black" d="M184.32,-42.99C183.37,-53.09 185.93,-62 192,-62 195.89,-62 198.34,-58.34 199.35,-53.06"/>
<polygon fill="black" stroke="black" points="199.68,-42.99 203.85,-53.14 199.52,-47.99 199.35,-52.99 199.35,-52.99 199.35,-52.99 199.52,-47.99 194.85,-52.83 199.68,-42.99 199.68,-42.99"/>
<text text-anchor="middle" x="192" y="-65.8" font-family="Times New Roman,serif" font-size="14.00">0</text>
</g>
</g>
</svg>
