<?xml version="1.0" encoding="UTF-8" standalone="no"?>
<!DOCTYPE svg PUBLIC "-//W3C//DTD SVG 1.1//EN"
 "http://www.w3.org/Graphics/SVG/1.1/DTD/svg11.dtd">
<!-- Generated by graphviz version 2.50.0 (20211204.2007)
 -->
<!-- Title: Substitui 1&#39;s por 0&#39;s e 0&#39;s por 1&#39;s Pages: 1 -->
<svg width="339pt" height="114pt"
 viewBox="0.00 0.00 339.00 114.00" xmlns="http://www.w3.org/2000/svg" xmlns:xlink="http://www.w3.org/1999/xlink">
<g id="graph0" class="graph" transform="scale(1 1) rotate(0) translate(4 110)">
<title>Substitui 1&#39;s por 0&#39;s e 0&#39;s por 1&#39;s</title>
<polygon fill="white" stroke="transparent" points="-4,4 -4,-110 335,-110 335,4 -4,4"/>
<!-- Start -->
<g id="node1" class="node">
<title>Start</title>
</g>
<!-- A -->
<g id="node3" class="node">
<title>A</title>
<ellipse fill="none" stroke="black" cx="109" cy="-22" rx="18" ry="18"/>
<text text-anchor="middle" x="109" y="-18.3" font-family="Times New Roman,serif" font-size="14.00">A</text>
</g>
<!-- Start&#45;&gt;A -->
<g id="edge1" class="edge">
<title>Start&#45;&gt;A</title>
<path fill="none" stroke="black" d="M54.19,-22C62.65,-22 72.05,-22 80.6,-22"/>
<polygon fill="black" stroke="black" points="90.83,-22 80.83,-26.5 85.83,-22 80.83,-22 80.83,-22 80.83,-22 85.83,-22 80.83,-17.5 90.83,-22 90.83,-22"/>
</g>
<!-- B -->
<g id="node2" class="node">
<title>B</title>
<ellipse fill="none" stroke="black" cx="206" cy="-22" rx="18" ry="18"/>
<text text-anchor="middle" x="206" y="-18.3" font-family="Times New Roman,serif" font-size="14.00">B</text>
</g>
<!-- B&#45;&gt;B -->
<g id="edge5" class="edge">
<title>B&#45;&gt;B</title>
<path fill="none" stroke="black" d="M201.69,-39.78C200.95,-49.31 202.39,-58 206,-58 208.2,-58 209.59,-54.77 210.18,-50.1"/>
<polygon fill="black" stroke="black" points="210.31,-39.78 214.68,-49.84 210.25,-44.78 210.18,-49.78 210.18,-49.78 210.18,-49.78 210.25,-44.78 205.68,-49.72 210.31,-39.78 210.31,-39.78"/>
<text text-anchor="middle" x="206" y="-61.8" font-family="Times New Roman,serif" font-size="14.00">00L</text>
</g>
<!-- B&#45;&gt;B -->
<g id="edge6" class="edge">
<title>B&#45;&gt;B</title>
<path fill="none" stroke="black" d="M199.04,-38.86C194.82,-56.38 197.14,-76 206,-76 213.2,-76 216.08,-63.05 214.64,-48.79"/>
<polygon fill="black" stroke="black" points="212.96,-38.86 219.07,-47.97 213.79,-43.79 214.63,-48.72 214.63,-48.72 214.63,-48.72 213.79,-43.79 210.19,-49.48 212.96,-38.86 212.96,-38.86"/>
<text text-anchor="middle" x="206" y="-79.8" font-family="Times New Roman,serif" font-size="14.00">11L</text>
</g>
<!-- C -->
<g id="node4" class="node">
<title>C</title>
<ellipse fill="none" stroke="black" cx="309" cy="-22" rx="18" ry="18"/>
<ellipse fill="none" stroke="black" cx="309" cy="-22" rx="22" ry="22"/>
<text text-anchor="middle" x="309" y="-18.3" font-family="Times New Roman,serif" font-size="14.00">C</text>
</g>
<!-- B&#45;&gt;C -->
<g id="edge7" class="edge">
<title>B&#45;&gt;C</title>
<path fill="none" stroke="black" d="M224.13,-22C238.49,-22 259.35,-22 276.68,-22"/>
<polygon fill="black" stroke="black" points="286.92,-22 276.92,-26.5 281.92,-22 276.92,-22 276.92,-22 276.92,-22 281.92,-22 276.92,-17.5 286.92,-22 286.92,-22"/>
<text text-anchor="middle" x="255.5" y="-25.8" font-family="Times New Roman,serif" font-size="14.00">¬¬R</text>
</g>
<!-- A&#45;&gt;B -->
<g id="edge4" class="edge">
<title>A&#45;&gt;B</title>
<path fill="none" stroke="black" d="M127.42,-22C141.35,-22 161.14,-22 177.24,-22"/>
<polygon fill="black" stroke="black" points="187.69,-22 177.69,-26.5 182.69,-22 177.69,-22 177.69,-22 177.69,-22 182.69,-22 177.69,-17.5 187.69,-22 187.69,-22"/>
<text text-anchor="middle" x="157.5" y="-25.8" font-family="Times New Roman,serif" font-size="14.00">¬¬L</text>
</g>
<!-- A&#45;&gt;A -->
<g id="edge2" class="edge">
<title>A&#45;&gt;A</title>
<path fill="none" stroke="black" d="M105.76,-39.78C105.21,-49.31 106.29,-58 109,-58 110.65,-58 111.69,-54.77 112.13,-50.1"/>
<polygon fill="black" stroke="black" points="112.24,-39.78 116.64,-49.83 112.19,-44.78 112.14,-49.78 112.14,-49.78 112.14,-49.78 112.19,-44.78 107.64,-49.74 112.24,-39.78 112.24,-39.78"/>
<text text-anchor="middle" x="109" y="-61.8" font-family="Times New Roman,serif" font-size="14.00">10R</text>
</g>
<!-- A&#45;&gt;A -->
<g id="edge3" class="edge">
<title>A&#45;&gt;A</title>
<path fill="none" stroke="black" d="M103.68,-39.42C100.65,-56.79 102.43,-76 109,-76 114.29,-76 116.47,-63.56 115.54,-49.65"/>
<polygon fill="black" stroke="black" points="114.32,-39.42 119.97,-48.81 114.91,-44.38 115.51,-49.35 115.51,-49.35 115.51,-49.35 114.91,-44.38 111.04,-49.88 114.32,-39.42 114.32,-39.42"/>
<text text-anchor="middle" x="109" y="-79.8" font-family="Times New Roman,serif" font-size="14.00">01R</text>
</g>
</g>
</svg>
