<?xml version="1.0" encoding="UTF-8" standalone="no"?>
<!DOCTYPE svg PUBLIC "-//W3C//DTD SVG 1.1//EN"
 "http://www.w3.org/Graphics/SVG/1.1/DTD/svg11.dtd">
<!-- Generated by graphviz version 2.50.0 (20211204.2007)
 -->
<!-- Title: Validação código postal Pages: 1 -->
<svg width="852pt" height="1016pt"
 viewBox="0.00 0.00 852.00 1016.00" xmlns="http://www.w3.org/2000/svg" xmlns:xlink="http://www.w3.org/1999/xlink">
<g id="graph0" class="graph" transform="scale(1 1) rotate(0) translate(4 1012)">
<title>Validação código postal</title>
<polygon fill="white" stroke="transparent" points="-4,4 -4,-1012 848,-1012 848,4 -4,4"/>
<!-- Start -->
<g id="node1" class="node">
<title>Start</title>
</g>
<!-- A -->
<g id="node4" class="node">
<title>A</title>
<ellipse fill="none" stroke="black" cx="109" cy="-189" rx="18" ry="18"/>
<text text-anchor="middle" x="109" y="-185.3" font-family="Times New Roman,serif" font-size="14.00">A</text>
</g>
<!-- Start&#45;&gt;A -->
<g id="edge1" class="edge">
<title>Start&#45;&gt;A</title>
<path fill="none" stroke="black" d="M54.19,-189C62.65,-189 72.05,-189 80.6,-189"/>
<polygon fill="black" stroke="black" points="90.83,-189 80.83,-193.5 85.83,-189 80.83,-189 80.83,-189 80.83,-189 85.83,-189 80.83,-184.5 90.83,-189 90.83,-189"/>
</g>
<!-- F -->
<g id="node2" class="node">
<title>F</title>
<ellipse fill="none" stroke="black" cx="502" cy="-681" rx="18" ry="18"/>
<text text-anchor="middle" x="502" y="-677.3" font-family="Times New Roman,serif" font-size="14.00">F</text>
</g>
<!-- G -->
<g id="node6" class="node">
<title>G</title>
<ellipse fill="none" stroke="black" cx="581" cy="-738" rx="18" ry="18"/>
<text text-anchor="middle" x="581" y="-734.3" font-family="Times New Roman,serif" font-size="14.00">G</text>
</g>
<!-- F&#45;&gt;G -->
<g id="edge57" class="edge">
<title>F&#45;&gt;G</title>
<path fill="none" stroke="black" d="M503.56,-698.97C505.31,-741.55 512.21,-846.59 538,-868 572.45,-896.6 578.93,-812.31 579.96,-766.09"/>
<polygon fill="black" stroke="black" points="580.11,-756.05 584.46,-766.12 580.04,-761.05 579.96,-766.05 579.96,-766.05 579.96,-766.05 580.04,-761.05 575.46,-765.98 580.11,-756.05 580.11,-756.05"/>
<text text-anchor="middle" x="541.5" y="-874.8" font-family="Times New Roman,serif" font-size="14.00">1</text>
</g>
<!-- F&#45;&gt;G -->
<g id="edge58" class="edge">
<title>F&#45;&gt;G</title>
<path fill="none" stroke="black" d="M504.5,-699.05C507.92,-735.08 517.59,-813.83 538,-830 561.84,-848.89 572.65,-800.08 577.15,-766.54"/>
<polygon fill="black" stroke="black" points="578.39,-756.3 581.65,-766.77 577.79,-761.26 577.18,-766.23 577.18,-766.23 577.18,-766.23 577.79,-761.26 572.72,-765.68 578.39,-756.3 578.39,-756.3"/>
<text text-anchor="middle" x="541.5" y="-836.8" font-family="Times New Roman,serif" font-size="14.00">2</text>
</g>
<!-- F&#45;&gt;G -->
<g id="edge59" class="edge">
<title>F&#45;&gt;G</title>
<path fill="none" stroke="black" d="M502.68,-699.28C503.34,-724.87 508.83,-770.61 538,-792 552.05,-802.3 563.78,-783.08 571.24,-764.78"/>
<polygon fill="black" stroke="black" points="574.84,-755.18 575.55,-766.12 573.09,-759.86 571.33,-764.54 571.33,-764.54 571.33,-764.54 573.09,-759.86 567.12,-762.96 574.84,-755.18 574.84,-755.18"/>
<text text-anchor="middle" x="541.5" y="-797.8" font-family="Times New Roman,serif" font-size="14.00">3</text>
</g>
<!-- F&#45;&gt;G -->
<g id="edge60" class="edge">
<title>F&#45;&gt;G</title>
<path fill="none" stroke="black" d="M505.97,-698.72C509.94,-716.18 518.85,-741.94 538,-754 543.95,-757.74 550.9,-756.87 557.43,-754.17"/>
<polygon fill="black" stroke="black" points="566.5,-749.23 559.87,-757.97 562.11,-751.62 557.72,-754.01 557.72,-754.01 557.72,-754.01 562.11,-751.62 555.57,-750.06 566.5,-749.23 566.5,-749.23"/>
<text text-anchor="middle" x="541.5" y="-759.8" font-family="Times New Roman,serif" font-size="14.00">4</text>
</g>
<!-- F&#45;&gt;G -->
<g id="edge61" class="edge">
<title>F&#45;&gt;G</title>
<path fill="none" stroke="black" d="M514.47,-694.29C520.93,-701.28 529.41,-709.69 538,-716 543.18,-719.81 549.12,-723.35 554.86,-726.42"/>
<polygon fill="black" stroke="black" points="564.18,-731.12 553.22,-730.63 559.71,-728.86 555.25,-726.61 555.25,-726.61 555.25,-726.61 559.71,-728.86 557.27,-722.59 564.18,-731.12 564.18,-731.12"/>
<text text-anchor="middle" x="541.5" y="-723.8" font-family="Times New Roman,serif" font-size="14.00">5</text>
</g>
<!-- F&#45;&gt;G -->
<g id="edge62" class="edge">
<title>F&#45;&gt;G</title>
<path fill="none" stroke="black" d="M519.9,-685.31C527.96,-687.88 537.47,-691.69 545,-697 551.99,-701.93 558.45,-708.57 563.87,-715.06"/>
<polygon fill="black" stroke="black" points="570.14,-723.08 560.43,-717.97 567.06,-719.14 563.98,-715.2 563.98,-715.2 563.98,-715.2 567.06,-719.14 567.52,-712.43 570.14,-723.08 570.14,-723.08"/>
<text text-anchor="middle" x="541.5" y="-700.8" font-family="Times New Roman,serif" font-size="14.00">6</text>
</g>
<!-- F&#45;&gt;G -->
<g id="edge63" class="edge">
<title>F&#45;&gt;G</title>
<path fill="none" stroke="black" d="M518.7,-673.61C527.01,-670.82 537.12,-669.33 545,-674 558.59,-682.06 567.24,-697.45 572.55,-711.13"/>
<polygon fill="black" stroke="black" points="575.84,-720.65 568.32,-712.67 574.21,-715.92 572.57,-711.2 572.57,-711.2 572.57,-711.2 574.21,-715.92 576.82,-709.73 575.84,-720.65 575.84,-720.65"/>
<text text-anchor="middle" x="541.5" y="-677.8" font-family="Times New Roman,serif" font-size="14.00">7</text>
</g>
<!-- F&#45;&gt;G -->
<g id="edge64" class="edge">
<title>F&#45;&gt;G</title>
<path fill="none" stroke="black" d="M512.97,-666.39C521.45,-655.81 533.97,-644.58 545,-652 564.05,-664.81 572.73,-689.98 576.69,-709.8"/>
<polygon fill="black" stroke="black" points="578.4,-719.86 572.29,-710.75 577.56,-714.93 576.73,-710 576.73,-710 576.73,-710 577.56,-714.93 581.16,-709.25 578.4,-719.86 578.4,-719.86"/>
<text text-anchor="middle" x="541.5" y="-655.8" font-family="Times New Roman,serif" font-size="14.00">8</text>
</g>
<!-- F&#45;&gt;G -->
<g id="edge65" class="edge">
<title>F&#45;&gt;G</title>
<path fill="none" stroke="black" d="M508.57,-664.05C515.73,-645.1 529.14,-618.47 545,-630 569.83,-648.05 577.4,-684.12 579.52,-709.59"/>
<polygon fill="black" stroke="black" points="580.14,-719.78 575.04,-710.06 579.84,-714.79 579.54,-709.8 579.54,-709.8 579.54,-709.8 579.84,-714.79 584.03,-709.53 580.14,-719.78 580.14,-719.78"/>
<text text-anchor="middle" x="541.5" y="-633.8" font-family="Times New Roman,serif" font-size="14.00">9</text>
</g>
<!-- F&#45;&gt;G -->
<g id="edge66" class="edge">
<title>F&#45;&gt;G</title>
<path fill="none" stroke="black" d="M506.03,-663.04C511.29,-636.51 523.65,-591.63 545,-608 561.14,-620.37 571.51,-675.98 576.5,-710.34"/>
<polygon fill="black" stroke="black" points="577.87,-720.25 572.04,-710.96 577.18,-715.29 576.5,-710.34 576.5,-710.34 576.5,-710.34 577.18,-715.29 580.95,-709.72 577.87,-720.25 577.87,-720.25"/>
<text text-anchor="middle" x="541.5" y="-611.8" font-family="Times New Roman,serif" font-size="14.00">0</text>
</g>
<!-- J -->
<g id="node8" class="node">
<title>J</title>
<ellipse fill="none" stroke="black" cx="826" cy="-485" rx="18" ry="18"/>
<text text-anchor="middle" x="826" y="-481.3" font-family="Times New Roman,serif" font-size="14.00">J</text>
</g>
<!-- F&#45;&gt;J -->
<g id="edge67" class="edge">
<title>F&#45;&gt;J</title>
<path fill="none" stroke="black" d="M506.55,-663.31C511.01,-645.24 520.33,-617.43 538,-600 613.04,-525.95 741.87,-497.83 797.78,-488.76"/>
<polygon fill="black" stroke="black" points="807.96,-487.19 798.76,-493.16 803.01,-487.95 798.07,-488.71 798.07,-488.71 798.07,-488.71 803.01,-487.95 797.39,-484.26 807.96,-487.19 807.96,-487.19"/>
<text text-anchor="middle" x="660" y="-535.8" font-family="Times New Roman,serif" font-size="14.00">&#45;</text>
</g>
<!-- D -->
<g id="node3" class="node">
<title>D</title>
<ellipse fill="none" stroke="black" cx="346" cy="-312" rx="18" ry="18"/>
<text text-anchor="middle" x="346" y="-308.3" font-family="Times New Roman,serif" font-size="14.00">D</text>
</g>
<!-- D&#45;&gt;J -->
<g id="edge45" class="edge">
<title>D&#45;&gt;J</title>
<path fill="none" stroke="black" d="M347.09,-330.22C347.88,-438.51 355.29,-993 424,-993 424,-993 424,-993 744,-993 783.1,-993 777.87,-955.17 790,-918 814.71,-842.27 822.47,-596.7 824.43,-513.14"/>
<polygon fill="black" stroke="black" points="824.66,-503.11 828.93,-513.21 824.54,-508.11 824.43,-513.11 824.43,-513.11 824.43,-513.11 824.54,-508.11 819.93,-513.01 824.66,-503.11 824.66,-503.11"/>
<text text-anchor="middle" x="581" y="-996.8" font-family="Times New Roman,serif" font-size="14.00">&#45;</text>
</g>
<!-- E -->
<g id="node10" class="node">
<title>E</title>
<ellipse fill="none" stroke="black" cx="425" cy="-317" rx="18" ry="18"/>
<text text-anchor="middle" x="425" y="-313.3" font-family="Times New Roman,serif" font-size="14.00">E</text>
</g>
<!-- D&#45;&gt;E -->
<g id="edge35" class="edge">
<title>D&#45;&gt;E</title>
<path fill="none" stroke="black" d="M348.39,-329.85C351.65,-366.33 361.13,-447.39 382,-464 422.04,-495.87 425.59,-396.37 424.91,-345.29"/>
<polygon fill="black" stroke="black" points="424.71,-335.19 429.4,-345.1 424.81,-340.19 424.9,-345.19 424.9,-345.19 424.9,-345.19 424.81,-340.19 420.4,-345.28 424.71,-335.19 424.71,-335.19"/>
<text text-anchor="middle" x="385.5" y="-470.8" font-family="Times New Roman,serif" font-size="14.00">1</text>
</g>
<!-- D&#45;&gt;E -->
<g id="edge36" class="edge">
<title>D&#45;&gt;E</title>
<path fill="none" stroke="black" d="M346.5,-330.32C346.9,-356.49 352.03,-403.85 382,-426 411.51,-447.81 420.28,-384.36 422.89,-345.26"/>
<polygon fill="black" stroke="black" points="423.47,-335.2 427.39,-345.44 423.18,-340.2 422.9,-345.19 422.9,-345.19 422.9,-345.19 423.18,-340.2 418.41,-344.93 423.47,-335.2 423.47,-335.2"/>
<text text-anchor="middle" x="385.5" y="-431.8" font-family="Times New Roman,serif" font-size="14.00">2</text>
</g>
<!-- D&#45;&gt;E -->
<g id="edge37" class="edge">
<title>D&#45;&gt;E</title>
<path fill="none" stroke="black" d="M349.61,-329.75C353.32,-347.91 362.06,-375.23 382,-388 401.29,-400.35 412.87,-369.55 418.85,-344.7"/>
<polygon fill="black" stroke="black" points="421,-334.89 423.25,-345.62 419.93,-339.78 418.86,-344.66 418.86,-344.66 418.86,-344.66 419.93,-339.78 414.46,-343.69 421,-334.89 421,-334.89"/>
<text text-anchor="middle" x="385.5" y="-393.8" font-family="Times New Roman,serif" font-size="14.00">3</text>
</g>
<!-- D&#45;&gt;E -->
<g id="edge38" class="edge">
<title>D&#45;&gt;E</title>
<path fill="none" stroke="black" d="M356.33,-327.15C362.46,-335.59 371.32,-345.32 382,-350 391.65,-354.23 401.02,-348.2 408.44,-340.18"/>
<polygon fill="black" stroke="black" points="414.91,-332.16 412.14,-342.77 411.77,-336.05 408.63,-339.94 408.63,-339.94 408.63,-339.94 411.77,-336.05 405.13,-337.12 414.91,-332.16 414.91,-332.16"/>
<text text-anchor="middle" x="385.5" y="-354.8" font-family="Times New Roman,serif" font-size="14.00">4</text>
</g>
<!-- D&#45;&gt;E -->
<g id="edge39" class="edge">
<title>D&#45;&gt;E</title>
<path fill="none" stroke="black" d="M364.09,-313.11C373.66,-313.73 385.82,-314.52 396.68,-315.23"/>
<polygon fill="black" stroke="black" points="406.96,-315.89 396.69,-319.74 401.97,-315.57 396.98,-315.25 396.98,-315.25 396.98,-315.25 401.97,-315.57 397.27,-310.75 406.96,-315.89 406.96,-315.89"/>
<text text-anchor="middle" x="385.5" y="-317.8" font-family="Times New Roman,serif" font-size="14.00">5</text>
</g>
<!-- D&#45;&gt;E -->
<g id="edge40" class="edge">
<title>D&#45;&gt;E</title>
<path fill="none" stroke="black" d="M360.74,-301.41C368.82,-296.46 379.32,-292.21 389,-295 393.47,-296.29 397.91,-298.33 402.06,-300.66"/>
<polygon fill="black" stroke="black" points="410.57,-306.06 399.71,-304.5 406.35,-303.38 402.12,-300.7 402.12,-300.7 402.12,-300.7 406.35,-303.38 404.53,-296.9 410.57,-306.06 410.57,-306.06"/>
<text text-anchor="middle" x="385.5" y="-298.8" font-family="Times New Roman,serif" font-size="14.00">6</text>
</g>
<!-- D&#45;&gt;E -->
<g id="edge41" class="edge">
<title>D&#45;&gt;E</title>
<path fill="none" stroke="black" d="M355.24,-296.04C363,-283.33 375.45,-268.65 389,-275 397.28,-278.88 404.28,-285.78 409.8,-292.89"/>
<polygon fill="black" stroke="black" points="415.58,-301.15 406.16,-295.54 412.71,-297.05 409.85,-292.96 409.85,-292.96 409.85,-292.96 412.71,-297.05 413.53,-290.38 415.58,-301.15 415.58,-301.15"/>
<text text-anchor="middle" x="385.5" y="-278.8" font-family="Times New Roman,serif" font-size="14.00">7</text>
</g>
<!-- D&#45;&gt;E -->
<g id="edge42" class="edge">
<title>D&#45;&gt;E</title>
<path fill="none" stroke="black" d="M351.43,-294.58C357.65,-273.77 370.36,-243.03 389,-254 402.23,-261.79 410.82,-276.59 416.18,-289.88"/>
<polygon fill="black" stroke="black" points="419.67,-299.62 412.06,-291.72 417.98,-294.91 416.29,-290.21 416.29,-290.21 416.29,-290.21 417.98,-294.91 420.53,-288.69 419.67,-299.62 419.67,-299.62"/>
<text text-anchor="middle" x="385.5" y="-257.8" font-family="Times New Roman,serif" font-size="14.00">8</text>
</g>
<!-- D&#45;&gt;E -->
<g id="edge43" class="edge">
<title>D&#45;&gt;E</title>
<path fill="none" stroke="black" d="M349.2,-294.14C353.45,-265.89 364.63,-215.68 389,-232 407.88,-244.65 416.59,-269.53 420.6,-289.11"/>
<polygon fill="black" stroke="black" points="422.33,-299.06 416.18,-289.99 421.47,-294.14 420.61,-289.21 420.61,-289.21 420.61,-289.21 421.47,-294.14 425.05,-288.44 422.33,-299.06 422.33,-299.06"/>
<text text-anchor="middle" x="385.5" y="-235.8" font-family="Times New Roman,serif" font-size="14.00">9</text>
</g>
<!-- D&#45;&gt;E -->
<g id="edge44" class="edge">
<title>D&#45;&gt;E</title>
<path fill="none" stroke="black" d="M347.85,-293.92C350.18,-259.1 358.69,-188.02 389,-210 413.65,-227.87 421.26,-263.6 423.44,-288.85"/>
<polygon fill="black" stroke="black" points="424.08,-298.94 418.96,-289.24 423.76,-293.95 423.45,-288.96 423.45,-288.96 423.45,-288.96 423.76,-293.95 427.94,-288.68 424.08,-298.94 424.08,-298.94"/>
<text text-anchor="middle" x="385.5" y="-213.8" font-family="Times New Roman,serif" font-size="14.00">0</text>
</g>
<!-- B -->
<g id="node7" class="node">
<title>B</title>
<ellipse fill="none" stroke="black" cx="188" cy="-227" rx="18" ry="18"/>
<text text-anchor="middle" x="188" y="-223.3" font-family="Times New Roman,serif" font-size="14.00">B</text>
</g>
<!-- A&#45;&gt;B -->
<g id="edge2" class="edge">
<title>A&#45;&gt;B</title>
<path fill="none" stroke="black" d="M110.97,-206.9C113.52,-246.24 121.88,-338.2 145,-357 179.74,-385.25 186.08,-301.13 187.02,-255.02"/>
<polygon fill="black" stroke="black" points="187.15,-245 191.52,-255.06 187.08,-250 187.02,-255 187.02,-255 187.02,-255 187.08,-250 182.52,-254.94 187.15,-245 187.15,-245"/>
<text text-anchor="middle" x="148.5" y="-363.8" font-family="Times New Roman,serif" font-size="14.00">1</text>
</g>
<!-- A&#45;&gt;B -->
<g id="edge3" class="edge">
<title>A&#45;&gt;B</title>
<path fill="none" stroke="black" d="M112.13,-206.75C116.41,-239.05 127.19,-305.35 145,-319 169.14,-337.5 179.84,-288.83 184.24,-255.42"/>
<polygon fill="black" stroke="black" points="185.45,-245.22 188.74,-255.68 184.86,-250.18 184.27,-255.15 184.27,-255.15 184.27,-255.15 184.86,-250.18 179.8,-254.62 185.45,-245.22 185.45,-245.22"/>
<text text-anchor="middle" x="148.5" y="-325.8" font-family="Times New Roman,serif" font-size="14.00">2</text>
</g>
<!-- A&#45;&gt;B -->
<g id="edge4" class="edge">
<title>A&#45;&gt;B</title>
<path fill="none" stroke="black" d="M111.06,-207.21C113.41,-228.94 120.94,-264.41 145,-281 159.34,-290.89 171.03,-271.73 178.41,-253.55"/>
<polygon fill="black" stroke="black" points="181.95,-244.03 182.68,-254.97 180.21,-248.71 178.46,-253.4 178.46,-253.4 178.46,-253.4 180.21,-248.71 174.25,-251.83 181.95,-244.03 181.95,-244.03"/>
<text text-anchor="middle" x="148.5" y="-286.8" font-family="Times New Roman,serif" font-size="14.00">3</text>
</g>
<!-- A&#45;&gt;B -->
<g id="edge5" class="edge">
<title>A&#45;&gt;B</title>
<path fill="none" stroke="black" d="M115.78,-205.77C121.17,-218.52 130.57,-235.16 145,-243 151.08,-246.3 157.99,-245.4 164.42,-242.8"/>
<polygon fill="black" stroke="black" points="173.35,-238.09 166.61,-246.74 168.93,-240.42 164.51,-242.76 164.51,-242.76 164.51,-242.76 168.93,-240.42 162.41,-238.78 173.35,-238.09 173.35,-238.09"/>
<text text-anchor="middle" x="148.5" y="-248.8" font-family="Times New Roman,serif" font-size="14.00">4</text>
</g>
<!-- A&#45;&gt;B -->
<g id="edge6" class="edge">
<title>A&#45;&gt;B</title>
<path fill="none" stroke="black" d="M125.58,-196.69C136.12,-201.89 150.27,-208.87 162.33,-214.82"/>
<polygon fill="black" stroke="black" points="171.44,-219.32 160.48,-218.93 166.96,-217.11 162.47,-214.9 162.47,-214.9 162.47,-214.9 166.96,-217.11 164.47,-210.86 171.44,-219.32 171.44,-219.32"/>
<text text-anchor="middle" x="148.5" y="-212.8" font-family="Times New Roman,serif" font-size="14.00">5</text>
</g>
<!-- A&#45;&gt;B -->
<g id="edge7" class="edge">
<title>A&#45;&gt;B</title>
<path fill="none" stroke="black" d="M126.62,-184.78C134.62,-183.59 144.16,-183.44 152,-187 159.8,-190.54 166.54,-196.77 171.97,-203.27"/>
<polygon fill="black" stroke="black" points="178.13,-211.48 168.53,-206.18 175.13,-207.48 172.13,-203.48 172.13,-203.48 172.13,-203.48 175.13,-207.48 175.73,-200.78 178.13,-211.48 178.13,-211.48"/>
<text text-anchor="middle" x="148.5" y="-190.8" font-family="Times New Roman,serif" font-size="14.00">6</text>
</g>
<!-- A&#45;&gt;B -->
<g id="edge8" class="edge">
<title>A&#45;&gt;B</title>
<path fill="none" stroke="black" d="M121.44,-175.38C129.91,-167.03 141.7,-158.99 152,-165 165.01,-172.6 173.57,-187.02 178.96,-200.05"/>
<polygon fill="black" stroke="black" points="182.49,-209.6 174.81,-201.78 180.76,-204.91 179.03,-200.22 179.03,-200.22 179.03,-200.22 180.76,-204.91 183.25,-198.66 182.49,-209.6 182.49,-209.6"/>
<text text-anchor="middle" x="148.5" y="-168.8" font-family="Times New Roman,serif" font-size="14.00">7</text>
</g>
<!-- A&#45;&gt;B -->
<g id="edge9" class="edge">
<title>A&#45;&gt;B</title>
<path fill="none" stroke="black" d="M116.38,-172.25C123.84,-155.34 137.06,-133.04 152,-143 170.52,-155.35 179.26,-179.55 183.37,-198.82"/>
<polygon fill="black" stroke="black" points="185.21,-208.91 178.99,-199.88 184.31,-203.99 183.42,-199.07 183.42,-199.07 183.42,-199.07 184.31,-203.99 187.84,-198.26 185.21,-208.91 185.21,-208.91"/>
<text text-anchor="middle" x="148.5" y="-146.8" font-family="Times New Roman,serif" font-size="14.00">8</text>
</g>
<!-- A&#45;&gt;B -->
<g id="edge10" class="edge">
<title>A&#45;&gt;B</title>
<path fill="none" stroke="black" d="M113.37,-171.53C118.94,-146.82 131.53,-106.2 152,-121 176.32,-138.58 184.03,-173.69 186.32,-198.68"/>
<polygon fill="black" stroke="black" points="187,-208.69 181.83,-199.02 186.66,-203.7 186.32,-198.71 186.32,-198.71 186.32,-198.71 186.66,-203.7 190.81,-198.41 187,-208.69 187,-208.69"/>
<text text-anchor="middle" x="148.5" y="-124.8" font-family="Times New Roman,serif" font-size="14.00">9</text>
</g>
<!-- A&#45;&gt;B -->
<g id="edge11" class="edge">
<title>A&#45;&gt;B</title>
<path fill="none" stroke="black" d="M111.63,-171.17C115.22,-139.58 125.68,-78.91 152,-99 167.82,-111.08 178.23,-165.17 183.33,-199.05"/>
<polygon fill="black" stroke="black" points="184.79,-209.27 178.92,-200.01 184.08,-204.32 183.37,-199.37 183.37,-199.37 183.37,-199.37 184.08,-204.32 187.83,-198.73 184.79,-209.27 184.79,-209.27"/>
<text text-anchor="middle" x="148.5" y="-102.8" font-family="Times New Roman,serif" font-size="14.00">0</text>
</g>
<!-- A&#45;&gt;J -->
<g id="edge12" class="edge">
<title>A&#45;&gt;J</title>
<path fill="none" stroke="black" d="M109.32,-170.88C108.58,-123.57 113.66,0 187,0 187,0 187,0 744,0 765.97,0 784.35,-74.91 790,-100 819.48,-230.91 824.26,-392.17 824.94,-456.53"/>
<polygon fill="black" stroke="black" points="825.02,-466.7 820.44,-456.73 824.98,-461.7 824.94,-456.7 824.94,-456.7 824.94,-456.7 824.98,-461.7 829.44,-456.66 825.02,-466.7 825.02,-466.7"/>
<text text-anchor="middle" x="463.5" y="-3.8" font-family="Times New Roman,serif" font-size="14.00">&#45;</text>
</g>
<!-- C -->
<g id="node5" class="node">
<title>C</title>
<ellipse fill="none" stroke="black" cx="267" cy="-269" rx="18" ry="18"/>
<text text-anchor="middle" x="267" y="-265.3" font-family="Times New Roman,serif" font-size="14.00">C</text>
</g>
<!-- C&#45;&gt;D -->
<g id="edge24" class="edge">
<title>C&#45;&gt;D</title>
<path fill="none" stroke="black" d="M268.87,-287.13C271.22,-327.45 279.22,-422.55 303,-442 337.66,-470.35 344.04,-386.18 345,-340.04"/>
<polygon fill="black" stroke="black" points="345.14,-330.02 349.5,-340.08 345.07,-335.01 345,-340.01 345,-340.01 345,-340.01 345.07,-335.01 340.5,-339.95 345.14,-330.02 345.14,-330.02"/>
<text text-anchor="middle" x="306.5" y="-448.8" font-family="Times New Roman,serif" font-size="14.00">1</text>
</g>
<!-- C&#45;&gt;D -->
<g id="edge25" class="edge">
<title>C&#45;&gt;D</title>
<path fill="none" stroke="black" d="M269.96,-286.91C274.01,-320.23 284.52,-389.7 303,-404 327.06,-422.62 337.79,-373.9 342.21,-340.46"/>
<polygon fill="black" stroke="black" points="343.44,-330.24 346.72,-340.71 342.84,-335.21 342.25,-340.17 342.25,-340.17 342.25,-340.17 342.84,-335.21 337.78,-339.64 343.44,-330.24 343.44,-330.24"/>
<text text-anchor="middle" x="306.5" y="-410.8" font-family="Times New Roman,serif" font-size="14.00">2</text>
</g>
<!-- C&#45;&gt;D -->
<g id="edge26" class="edge">
<title>C&#45;&gt;D</title>
<path fill="none" stroke="black" d="M268.63,-286.97C270.5,-309.72 277.51,-348.1 303,-366 317.25,-376.01 328.96,-356.83 336.36,-338.62"/>
<polygon fill="black" stroke="black" points="339.92,-329.07 340.64,-340.01 338.17,-333.76 336.43,-338.44 336.43,-338.44 336.43,-338.44 338.17,-333.76 332.21,-336.87 339.92,-329.07 339.92,-329.07"/>
<text text-anchor="middle" x="306.5" y="-371.8" font-family="Times New Roman,serif" font-size="14.00">3</text>
</g>
<!-- C&#45;&gt;D -->
<g id="edge27" class="edge">
<title>C&#45;&gt;D</title>
<path fill="none" stroke="black" d="M272.95,-286.14C278,-300.17 287.37,-319.1 303,-328 309.1,-331.48 316.11,-330.53 322.63,-327.84"/>
<polygon fill="black" stroke="black" points="331.67,-322.96 325,-331.67 327.27,-325.34 322.86,-327.71 322.86,-327.71 322.86,-327.71 327.27,-325.34 320.73,-323.75 331.67,-322.96 331.67,-322.96"/>
<text text-anchor="middle" x="306.5" y="-333.8" font-family="Times New Roman,serif" font-size="14.00">4</text>
</g>
<!-- C&#45;&gt;D -->
<g id="edge28" class="edge">
<title>C&#45;&gt;D</title>
<path fill="none" stroke="black" d="M282.88,-278.18C289.05,-281.93 296.33,-286.25 303,-290 308.61,-293.15 314.71,-296.43 320.48,-299.46"/>
<polygon fill="black" stroke="black" points="329.72,-304.27 318.77,-303.65 325.29,-301.96 320.85,-299.65 320.85,-299.65 320.85,-299.65 325.29,-301.96 322.93,-295.66 329.72,-304.27 329.72,-304.27"/>
<text text-anchor="middle" x="306.5" y="-296.8" font-family="Times New Roman,serif" font-size="14.00">5</text>
</g>
<!-- C&#45;&gt;D -->
<g id="edge29" class="edge">
<title>C&#45;&gt;D</title>
<path fill="none" stroke="black" d="M285.12,-266.8C293.06,-266.51 302.4,-267.27 310,-271 317.92,-274.88 324.75,-281.46 330.22,-288.22"/>
<polygon fill="black" stroke="black" points="336.4,-296.7 326.87,-291.27 333.46,-292.66 330.51,-288.62 330.51,-288.62 330.51,-288.62 333.46,-292.66 334.15,-285.97 336.4,-296.7 336.4,-296.7"/>
<text text-anchor="middle" x="306.5" y="-274.8" font-family="Times New Roman,serif" font-size="14.00">6</text>
</g>
<!-- C&#45;&gt;D -->
<g id="edge30" class="edge">
<title>C&#45;&gt;D</title>
<path fill="none" stroke="black" d="M280.42,-256.57C288.94,-249.6 300.39,-243.35 310,-249 323.23,-256.79 331.82,-271.59 337.18,-284.88"/>
<polygon fill="black" stroke="black" points="340.67,-294.62 333.06,-286.72 338.98,-289.91 337.29,-285.21 337.29,-285.21 337.29,-285.21 338.98,-289.91 341.53,-283.69 340.67,-294.62 340.67,-294.62"/>
<text text-anchor="middle" x="306.5" y="-252.8" font-family="Times New Roman,serif" font-size="14.00">7</text>
</g>
<!-- C&#45;&gt;D -->
<g id="edge31" class="edge">
<title>C&#45;&gt;D</title>
<path fill="none" stroke="black" d="M275.07,-252.7C282.83,-237.23 296.03,-217.65 310,-227 328.88,-239.65 337.59,-264.53 341.6,-284.11"/>
<polygon fill="black" stroke="black" points="343.33,-294.06 337.18,-284.99 342.47,-289.14 341.61,-284.21 341.61,-284.21 341.61,-284.21 342.47,-289.14 346.05,-283.44 343.33,-294.06 343.33,-294.06"/>
<text text-anchor="middle" x="306.5" y="-230.8" font-family="Times New Roman,serif" font-size="14.00">8</text>
</g>
<!-- C&#45;&gt;D -->
<g id="edge32" class="edge">
<title>C&#45;&gt;D</title>
<path fill="none" stroke="black" d="M271.89,-251.32C277.88,-227.89 290.74,-191.04 310,-205 334.65,-222.87 342.26,-258.6 344.44,-283.85"/>
<polygon fill="black" stroke="black" points="345.08,-293.94 339.96,-284.24 344.76,-288.95 344.45,-283.96 344.45,-283.96 344.45,-283.96 344.76,-288.95 348.94,-283.68 345.08,-293.94 345.08,-293.94"/>
<text text-anchor="middle" x="306.5" y="-208.8" font-family="Times New Roman,serif" font-size="14.00">9</text>
</g>
<!-- C&#45;&gt;D -->
<g id="edge33" class="edge">
<title>C&#45;&gt;D</title>
<path fill="none" stroke="black" d="M269.94,-250.97C273.93,-220.48 284.92,-163.82 310,-183 325.93,-195.18 336.3,-249.69 341.36,-283.84"/>
<polygon fill="black" stroke="black" points="342.82,-294.13 336.96,-284.86 342.11,-289.18 341.41,-284.23 341.41,-284.23 341.41,-284.23 342.11,-289.18 345.87,-283.6 342.82,-294.13 342.82,-294.13"/>
<text text-anchor="middle" x="306.5" y="-186.8" font-family="Times New Roman,serif" font-size="14.00">0</text>
</g>
<!-- C&#45;&gt;J -->
<g id="edge34" class="edge">
<title>C&#45;&gt;J</title>
<path fill="none" stroke="black" d="M267.65,-250.75C267.83,-204.99 275.15,-89 345,-89 345,-89 345,-89 744,-89 819.19,-89 825.26,-366.47 825.24,-456.89"/>
<polygon fill="black" stroke="black" points="825.21,-466.96 820.74,-456.94 825.22,-461.96 825.24,-456.96 825.24,-456.96 825.24,-456.96 825.22,-461.96 829.74,-456.97 825.21,-466.96 825.21,-466.96"/>
<text text-anchor="middle" x="541.5" y="-92.8" font-family="Times New Roman,serif" font-size="14.00">&#45;</text>
</g>
<!-- G&#45;&gt;J -->
<g id="edge78" class="edge">
<title>G&#45;&gt;J</title>
<path fill="none" stroke="black" d="M583.25,-756.14C586.32,-795.06 595.6,-884.73 617,-905 665.03,-950.5 703.1,-944.36 765,-921 778.85,-915.77 783.34,-912.22 790,-899 824.17,-831.19 825.81,-594.88 825.31,-513.11"/>
<polygon fill="black" stroke="black" points="825.24,-503.05 829.81,-513.02 825.27,-508.05 825.31,-513.05 825.31,-513.05 825.31,-513.05 825.27,-508.05 820.81,-513.09 825.24,-503.05 825.24,-503.05"/>
<text text-anchor="middle" x="699.5" y="-941.8" font-family="Times New Roman,serif" font-size="14.00">&#45;</text>
</g>
<!-- H -->
<g id="node9" class="node">
<title>H</title>
<ellipse fill="none" stroke="black" cx="660" cy="-730" rx="18" ry="18"/>
<text text-anchor="middle" x="660" y="-726.3" font-family="Times New Roman,serif" font-size="14.00">H</text>
</g>
<!-- G&#45;&gt;H -->
<g id="edge68" class="edge">
<title>G&#45;&gt;H</title>
<path fill="none" stroke="black" d="M581.35,-756.28C580.31,-802.25 581.78,-916.65 624,-883 643.23,-867.68 652.74,-797.93 656.68,-758.1"/>
<polygon fill="black" stroke="black" points="657.62,-747.97 661.17,-758.34 657.16,-752.95 656.69,-757.93 656.69,-757.93 656.69,-757.93 657.16,-752.95 652.21,-757.51 657.62,-747.97 657.62,-747.97"/>
<text text-anchor="middle" x="620.5" y="-889.8" font-family="Times New Roman,serif" font-size="14.00">1</text>
</g>
<!-- G&#45;&gt;H -->
<g id="edge69" class="edge">
<title>G&#45;&gt;H</title>
<path fill="none" stroke="black" d="M582.63,-756.16C584.57,-792.43 592.41,-868.4 624,-845 650.79,-825.15 657.78,-785.27 659.24,-758.11"/>
<polygon fill="black" stroke="black" points="659.56,-748.04 663.74,-758.18 659.4,-753.04 659.24,-758.03 659.24,-758.03 659.24,-758.03 659.4,-753.04 654.74,-757.89 659.56,-748.04 659.56,-748.04"/>
<text text-anchor="middle" x="620.5" y="-851.8" font-family="Times New Roman,serif" font-size="14.00">2</text>
</g>
<!-- G&#45;&gt;H -->
<g id="edge70" class="edge">
<title>G&#45;&gt;H</title>
<path fill="none" stroke="black" d="M585.21,-755.84C590.5,-780.56 602.66,-820.74 624,-807 640.67,-796.27 649.49,-775.45 654.1,-758.16"/>
<polygon fill="black" stroke="black" points="656.47,-747.97 658.59,-758.73 655.34,-752.84 654.21,-757.71 654.21,-757.71 654.21,-757.71 655.34,-752.84 649.82,-756.7 656.47,-747.97 656.47,-747.97"/>
<text text-anchor="middle" x="620.5" y="-812.8" font-family="Times New Roman,serif" font-size="14.00">3</text>
</g>
<!-- G&#45;&gt;H -->
<g id="edge71" class="edge">
<title>G&#45;&gt;H</title>
<path fill="none" stroke="black" d="M591.58,-752.82C599.63,-763.25 611.75,-774.47 624,-769 631.71,-765.56 638.43,-759.49 643.87,-753.14"/>
<polygon fill="black" stroke="black" points="650.04,-745.14 647.49,-755.81 646.98,-749.1 643.93,-753.06 643.93,-753.06 643.93,-753.06 646.98,-749.1 640.37,-750.31 650.04,-745.14 650.04,-745.14"/>
<text text-anchor="middle" x="620.5" y="-773.8" font-family="Times New Roman,serif" font-size="14.00">4</text>
</g>
<!-- G&#45;&gt;H -->
<g id="edge72" class="edge">
<title>G&#45;&gt;H</title>
<path fill="none" stroke="black" d="M599.09,-736.22C608.66,-735.23 620.82,-733.97 631.68,-732.84"/>
<polygon fill="black" stroke="black" points="641.96,-731.77 632.48,-737.28 636.99,-732.29 632.01,-732.8 632.01,-732.8 632.01,-732.8 636.99,-732.29 631.55,-728.33 641.96,-731.77 641.96,-731.77"/>
<text text-anchor="middle" x="620.5" y="-737.8" font-family="Times New Roman,serif" font-size="14.00">5</text>
</g>
<!-- G&#45;&gt;H -->
<g id="edge73" class="edge">
<title>G&#45;&gt;H</title>
<path fill="none" stroke="black" d="M594.95,-726.33C601.16,-721.52 608.98,-716.49 617,-714 623.26,-712.06 629.93,-713.12 636.08,-715.41"/>
<polygon fill="black" stroke="black" points="645.15,-719.78 634.19,-719.5 640.65,-717.61 636.15,-715.44 636.15,-715.44 636.15,-715.44 640.65,-717.61 638.1,-711.39 645.15,-719.78 645.15,-719.78"/>
<text text-anchor="middle" x="620.5" y="-717.8" font-family="Times New Roman,serif" font-size="14.00">6</text>
</g>
<!-- G&#45;&gt;H -->
<g id="edge74" class="edge">
<title>G&#45;&gt;H</title>
<path fill="none" stroke="black" d="M589.63,-721.96C595.52,-711.61 604.73,-699 617,-693 627.5,-687.86 637.41,-695.73 644.96,-705.51"/>
<polygon fill="black" stroke="black" points="650.71,-713.93 641.36,-708.21 647.89,-709.8 645.07,-705.67 645.07,-705.67 645.07,-705.67 647.89,-709.8 648.79,-703.13 650.71,-713.93 650.71,-713.93"/>
<text text-anchor="middle" x="620.5" y="-696.8" font-family="Times New Roman,serif" font-size="14.00">7</text>
</g>
<!-- G&#45;&gt;H -->
<g id="edge75" class="edge">
<title>G&#45;&gt;H</title>
<path fill="none" stroke="black" d="M585.91,-720.43C590.46,-704.66 599.66,-682.43 617,-672 632.86,-662.46 644.47,-683.62 651.42,-703.01"/>
<polygon fill="black" stroke="black" points="654.54,-712.53 647.15,-704.43 652.98,-707.78 651.42,-703.02 651.42,-703.02 651.42,-703.02 652.98,-707.78 655.7,-701.62 654.54,-712.53 654.54,-712.53"/>
<text text-anchor="middle" x="620.5" y="-675.8" font-family="Times New Roman,serif" font-size="14.00">8</text>
</g>
<!-- G&#45;&gt;H -->
<g id="edge76" class="edge">
<title>G&#45;&gt;H</title>
<path fill="none" stroke="black" d="M583.41,-719.82C586.12,-698.95 594.01,-665.6 617,-650 638.62,-635.33 649.89,-673.61 655.12,-702.15"/>
<polygon fill="black" stroke="black" points="656.78,-712.11 650.7,-702.99 655.96,-707.18 655.13,-702.24 655.13,-702.24 655.13,-702.24 655.96,-707.18 659.57,-701.5 656.78,-712.11 656.78,-712.11"/>
<text text-anchor="middle" x="620.5" y="-653.8" font-family="Times New Roman,serif" font-size="14.00">9</text>
</g>
<!-- G&#45;&gt;H -->
<g id="edge77" class="edge">
<title>G&#45;&gt;H</title>
<path fill="none" stroke="black" d="M581.74,-719.88C582.47,-694.52 588.04,-649.17 617,-628 644.51,-607.89 654.07,-665.01 657.34,-701.72"/>
<polygon fill="black" stroke="black" points="658.14,-711.9 652.87,-702.28 657.75,-706.91 657.36,-701.93 657.36,-701.93 657.36,-701.93 657.75,-706.91 661.84,-701.58 658.14,-711.9 658.14,-711.9"/>
<text text-anchor="middle" x="620.5" y="-631.8" font-family="Times New Roman,serif" font-size="14.00">0</text>
</g>
<!-- B&#45;&gt;C -->
<g id="edge13" class="edge">
<title>B&#45;&gt;C</title>
<path fill="none" stroke="black" d="M189.89,-245.02C192.27,-285.11 200.34,-379.67 224,-399 258.68,-427.33 265.05,-343.17 266.01,-297.03"/>
<polygon fill="black" stroke="black" points="266.14,-287.01 270.51,-297.07 266.07,-292.01 266.01,-297.01 266.01,-297.01 266.01,-297.01 266.07,-292.01 261.51,-296.95 266.14,-287.01 266.14,-287.01"/>
<text text-anchor="middle" x="227.5" y="-405.8" font-family="Times New Roman,serif" font-size="14.00">1</text>
</g>
<!-- B&#45;&gt;C -->
<g id="edge14" class="edge">
<title>B&#45;&gt;C</title>
<path fill="none" stroke="black" d="M190.98,-244.77C195.07,-277.86 205.64,-346.82 224,-361 248.07,-379.59 258.8,-330.88 263.22,-297.45"/>
<polygon fill="black" stroke="black" points="264.44,-287.24 267.72,-297.7 263.85,-292.2 263.25,-297.17 263.25,-297.17 263.25,-297.17 263.85,-292.2 258.78,-296.63 264.44,-287.24 264.44,-287.24"/>
<text text-anchor="middle" x="227.5" y="-367.8" font-family="Times New Roman,serif" font-size="14.00">2</text>
</g>
<!-- B&#45;&gt;C -->
<g id="edge15" class="edge">
<title>B&#45;&gt;C</title>
<path fill="none" stroke="black" d="M189.72,-245.18C191.71,-267.75 198.86,-305.4 224,-323 238.27,-332.99 249.97,-313.81 257.37,-295.61"/>
<polygon fill="black" stroke="black" points="260.93,-286.06 261.65,-297.01 259.18,-290.75 257.43,-295.43 257.43,-295.43 257.43,-295.43 259.18,-290.75 253.22,-293.86 260.93,-286.06 260.93,-286.06"/>
<text text-anchor="middle" x="227.5" y="-328.8" font-family="Times New Roman,serif" font-size="14.00">3</text>
</g>
<!-- B&#45;&gt;C -->
<g id="edge16" class="edge">
<title>B&#45;&gt;C</title>
<path fill="none" stroke="black" d="M194.13,-244.14C199.26,-257.91 208.64,-276.33 224,-285 230.12,-288.45 237.13,-287.5 243.64,-284.81"/>
<polygon fill="black" stroke="black" points="252.68,-279.94 246.01,-288.65 248.28,-282.31 243.88,-284.68 243.88,-284.68 243.88,-284.68 248.28,-282.31 241.74,-280.72 252.68,-279.94 252.68,-279.94"/>
<text text-anchor="middle" x="227.5" y="-290.8" font-family="Times New Roman,serif" font-size="14.00">4</text>
</g>
<!-- B&#45;&gt;C -->
<g id="edge17" class="edge">
<title>B&#45;&gt;C</title>
<path fill="none" stroke="black" d="M203.92,-235.69C210.1,-239.24 217.37,-243.37 224,-247 229.64,-250.09 235.76,-253.34 241.52,-256.37"/>
<polygon fill="black" stroke="black" points="250.77,-261.19 239.82,-260.56 246.33,-258.88 241.9,-256.57 241.9,-256.57 241.9,-256.57 246.33,-258.88 243.98,-252.58 250.77,-261.19 250.77,-261.19"/>
<text text-anchor="middle" x="227.5" y="-253.8" font-family="Times New Roman,serif" font-size="14.00">5</text>
</g>
<!-- B&#45;&gt;C -->
<g id="edge18" class="edge">
<title>B&#45;&gt;C</title>
<path fill="none" stroke="black" d="M206.09,-224.31C214.02,-223.82 223.36,-224.37 231,-228 238.96,-231.79 245.81,-238.34 251.27,-245.11"/>
<polygon fill="black" stroke="black" points="257.45,-253.61 247.93,-248.16 254.51,-249.56 251.57,-245.52 251.57,-245.52 251.57,-245.52 254.51,-249.56 255.21,-242.87 257.45,-253.61 257.45,-253.61"/>
<text text-anchor="middle" x="227.5" y="-231.8" font-family="Times New Roman,serif" font-size="14.00">6</text>
</g>
<!-- B&#45;&gt;C -->
<g id="edge19" class="edge">
<title>B&#45;&gt;C</title>
<path fill="none" stroke="black" d="M201,-214.41C209.52,-207.04 221.16,-200.21 231,-206 244.23,-213.79 252.82,-228.59 258.18,-241.88"/>
<polygon fill="black" stroke="black" points="261.67,-251.62 254.06,-243.72 259.98,-246.91 258.29,-242.21 258.29,-242.21 258.29,-242.21 259.98,-246.91 262.53,-240.69 261.67,-251.62 261.67,-251.62"/>
<text text-anchor="middle" x="227.5" y="-209.8" font-family="Times New Roman,serif" font-size="14.00">7</text>
</g>
<!-- B&#45;&gt;C -->
<g id="edge20" class="edge">
<title>B&#45;&gt;C</title>
<path fill="none" stroke="black" d="M195.86,-210.64C203.54,-194.8 216.78,-174.48 231,-184 249.88,-196.65 258.59,-221.53 262.6,-241.11"/>
<polygon fill="black" stroke="black" points="264.33,-251.06 258.18,-241.99 263.47,-246.14 262.61,-241.21 262.61,-241.21 262.61,-241.21 263.47,-246.14 267.05,-240.44 264.33,-251.06 264.33,-251.06"/>
<text text-anchor="middle" x="227.5" y="-187.8" font-family="Times New Roman,serif" font-size="14.00">8</text>
</g>
<!-- B&#45;&gt;C -->
<g id="edge21" class="edge">
<title>B&#45;&gt;C</title>
<path fill="none" stroke="black" d="M192.73,-209.46C198.61,-185.71 211.42,-147.8 231,-162 255.65,-179.87 263.26,-215.6 265.44,-240.85"/>
<polygon fill="black" stroke="black" points="266.08,-250.94 260.96,-241.24 265.76,-245.95 265.45,-240.96 265.45,-240.96 265.45,-240.96 265.76,-245.95 269.94,-240.68 266.08,-250.94 266.08,-250.94"/>
<text text-anchor="middle" x="227.5" y="-165.8" font-family="Times New Roman,serif" font-size="14.00">9</text>
</g>
<!-- B&#45;&gt;C -->
<g id="edge22" class="edge">
<title>B&#45;&gt;C</title>
<path fill="none" stroke="black" d="M190.89,-208.77C194.81,-177.94 205.69,-120.64 231,-140 246.93,-152.18 257.3,-206.69 262.36,-240.84"/>
<polygon fill="black" stroke="black" points="263.82,-251.13 257.96,-241.86 263.11,-246.18 262.41,-241.23 262.41,-241.23 262.41,-241.23 263.11,-246.18 266.87,-240.6 263.82,-251.13 263.82,-251.13"/>
<text text-anchor="middle" x="227.5" y="-143.8" font-family="Times New Roman,serif" font-size="14.00">0</text>
</g>
<!-- B&#45;&gt;J -->
<g id="edge23" class="edge">
<title>B&#45;&gt;J</title>
<path fill="none" stroke="black" d="M188.61,-208.98C188.66,-163.2 195.65,-46 266,-46 266,-46 266,-46 744,-46 753.48,-46 787.59,-110.5 790,-118 810.25,-181.02 820.62,-381.76 823.86,-456.56"/>
<polygon fill="black" stroke="black" points="824.29,-466.65 819.37,-456.84 824.08,-461.65 823.87,-456.65 823.87,-456.65 823.87,-456.65 824.08,-461.65 828.36,-456.46 824.29,-466.65 824.29,-466.65"/>
<text text-anchor="middle" x="502" y="-49.8" font-family="Times New Roman,serif" font-size="14.00">&#45;</text>
</g>
<!-- J&#45;&gt;J -->
<g id="edge101" class="edge">
<title>J&#45;&gt;J</title>
<path fill="none" stroke="black" d="M824.55,-503.15C824.33,-512.54 824.81,-521 826,-521 826.72,-521 827.19,-517.86 827.39,-513.28"/>
<polygon fill="black" stroke="black" points="827.45,-503.15 831.89,-513.18 827.42,-508.15 827.39,-513.15 827.39,-513.15 827.39,-513.15 827.42,-508.15 822.89,-513.13 827.45,-503.15 827.45,-503.15"/>
<text text-anchor="middle" x="826" y="-524.8" font-family="Times New Roman,serif" font-size="14.00">1</text>
</g>
<!-- J&#45;&gt;J -->
<g id="edge102" class="edge">
<title>J&#45;&gt;J</title>
<path fill="none" stroke="black" d="M823.59,-502.98C822.31,-520.2 823.11,-539 826,-539 828.33,-539 829.3,-526.83 828.92,-513.1"/>
<polygon fill="black" stroke="black" points="828.41,-502.98 833.41,-512.74 828.66,-507.97 828.91,-512.97 828.91,-512.97 828.91,-512.97 828.66,-507.97 824.42,-513.19 828.41,-502.98 828.41,-502.98"/>
<text text-anchor="middle" x="826" y="-542.8" font-family="Times New Roman,serif" font-size="14.00">2</text>
</g>
<!-- J&#45;&gt;J -->
<g id="edge103" class="edge">
<title>J&#45;&gt;J</title>
<path fill="none" stroke="black" d="M822.96,-503.08C820.28,-527.41 821.29,-557 826,-557 830.07,-557 831.38,-534.95 829.93,-513.26"/>
<polygon fill="black" stroke="black" points="829.04,-503.08 834.39,-512.65 829.47,-508.06 829.91,-513.04 829.91,-513.04 829.91,-513.04 829.47,-508.06 825.43,-513.43 829.04,-503.08 829.04,-503.08"/>
<text text-anchor="middle" x="826" y="-560.8" font-family="Times New Roman,serif" font-size="14.00">3</text>
</g>
<!-- J&#45;&gt;J -->
<g id="edge104" class="edge">
<title>J&#45;&gt;J</title>
<path fill="none" stroke="black" d="M822.52,-503.11C818.25,-534.24 819.41,-575 826,-575 831.9,-575 833.45,-542.38 830.65,-513.22"/>
<polygon fill="black" stroke="black" points="829.48,-503.11 835.1,-512.53 830.05,-508.08 830.63,-513.05 830.63,-513.05 830.63,-513.05 830.05,-508.08 826.16,-513.56 829.48,-503.11 829.48,-503.11"/>
<text text-anchor="middle" x="826" y="-578.8" font-family="Times New Roman,serif" font-size="14.00">4</text>
</g>
<!-- J&#45;&gt;J -->
<g id="edge105" class="edge">
<title>J&#45;&gt;J</title>
<path fill="none" stroke="black" d="M822.25,-502.8C816.21,-540.55 817.46,-593 826,-593 833.8,-593 835.52,-549.18 831.15,-512.81"/>
<polygon fill="black" stroke="black" points="829.75,-502.8 835.59,-512.08 830.44,-507.75 831.13,-512.7 831.13,-512.7 831.13,-512.7 830.44,-507.75 826.67,-513.32 829.75,-502.8 829.75,-502.8"/>
<text text-anchor="middle" x="826" y="-596.8" font-family="Times New Roman,serif" font-size="14.00">5</text>
</g>
<!-- J&#45;&gt;J -->
<g id="edge106" class="edge">
<title>J&#45;&gt;J</title>
<path fill="none" stroke="black" d="M822.01,-502.77C814.19,-546.97 815.52,-611 826,-611 835.7,-611 837.56,-556.13 831.58,-512.9"/>
<polygon fill="black" stroke="black" points="829.99,-502.77 835.98,-511.95 830.76,-507.71 831.54,-512.65 831.54,-512.65 831.54,-512.65 830.76,-507.71 827.09,-513.35 829.99,-502.77 829.99,-502.77"/>
<text text-anchor="middle" x="826" y="-614.8" font-family="Times New Roman,serif" font-size="14.00">6</text>
</g>
<!-- J&#45;&gt;J -->
<g id="edge107" class="edge">
<title>J&#45;&gt;J</title>
<path fill="none" stroke="black" d="M821.84,-502.62C812.17,-553.19 813.56,-629 826,-629 837.64,-629 839.6,-562.64 831.89,-512.68"/>
<polygon fill="black" stroke="black" points="830.16,-502.62 836.29,-511.71 831,-507.54 831.85,-512.47 831.85,-512.47 831.85,-512.47 831,-507.54 827.42,-513.24 830.16,-502.62 830.16,-502.62"/>
<text text-anchor="middle" x="826" y="-632.8" font-family="Times New Roman,serif" font-size="14.00">7</text>
</g>
<!-- J&#45;&gt;J -->
<g id="edge108" class="edge">
<title>J&#45;&gt;J</title>
<path fill="none" stroke="black" d="M821.7,-502.58C810.16,-559.44 811.59,-647 826,-647 839.59,-647 841.64,-569.08 832.14,-512.52"/>
<polygon fill="black" stroke="black" points="830.3,-502.58 836.55,-511.6 831.21,-507.5 832.12,-512.42 832.12,-512.42 832.12,-512.42 831.21,-507.5 827.7,-513.24 830.3,-502.58 830.3,-502.58"/>
<text text-anchor="middle" x="826" y="-650.8" font-family="Times New Roman,serif" font-size="14.00">8</text>
</g>
<!-- J&#45;&gt;J -->
<g id="edge109" class="edge">
<title>J&#45;&gt;J</title>
<path fill="none" stroke="black" d="M821.58,-502.49C808.15,-565.59 809.62,-665 826,-665 841.55,-665 843.67,-575.43 832.35,-512.37"/>
<polygon fill="black" stroke="black" points="830.42,-502.49 836.75,-511.44 831.38,-507.4 832.34,-512.31 832.34,-512.31 832.34,-512.31 831.38,-507.4 827.92,-513.17 830.42,-502.49 830.42,-502.49"/>
<text text-anchor="middle" x="826" y="-668.8" font-family="Times New Roman,serif" font-size="14.00">9</text>
</g>
<!-- J&#45;&gt;J -->
<g id="edge110" class="edge">
<title>J&#45;&gt;J</title>
<path fill="none" stroke="black" d="M821.48,-502.47C806.13,-571.77 807.64,-683 826,-683 843.5,-683 845.69,-581.95 832.57,-512.47"/>
<polygon fill="black" stroke="black" points="830.52,-502.47 836.93,-511.36 831.52,-507.36 832.52,-512.26 832.52,-512.26 832.52,-512.26 831.52,-507.36 828.11,-513.16 830.52,-502.47 830.52,-502.47"/>
<text text-anchor="middle" x="826" y="-686.8" font-family="Times New Roman,serif" font-size="14.00">0</text>
</g>
<!-- J&#45;&gt;J -->
<g id="edge111" class="edge">
<title>J&#45;&gt;J</title>
<path fill="none" stroke="black" d="M821.36,-502.61C804.13,-578.1 805.68,-701 826,-701 845.45,-701 847.7,-588.44 832.76,-512.59"/>
<polygon fill="black" stroke="black" points="830.64,-502.61 837.12,-511.46 831.68,-507.5 832.72,-512.39 832.72,-512.39 832.72,-512.39 831.68,-507.5 828.32,-513.33 830.64,-502.61 830.64,-502.61"/>
<text text-anchor="middle" x="826" y="-704.8" font-family="Times New Roman,serif" font-size="14.00">&#45;</text>
</g>
<!-- H&#45;&gt;J -->
<g id="edge89" class="edge">
<title>H&#45;&gt;J</title>
<path fill="none" stroke="black" d="M662.44,-748.11C665.75,-784.69 675.28,-865.31 696,-882 728.54,-908.21 759.19,-911.22 790,-883 817.19,-858.09 823.36,-599.93 824.67,-513.22"/>
<polygon fill="black" stroke="black" points="824.81,-503.07 829.17,-513.13 824.74,-508.07 824.67,-513.07 824.67,-513.07 824.67,-513.07 824.74,-508.07 820.17,-513.01 824.81,-503.07 824.81,-503.07"/>
<text text-anchor="middle" x="743" y="-905.8" font-family="Times New Roman,serif" font-size="14.00">&#45;</text>
</g>
<!-- I -->
<g id="node11" class="node">
<title>I</title>
<ellipse fill="none" stroke="black" cx="743" cy="-692" rx="18" ry="18"/>
<ellipse fill="none" stroke="black" cx="743" cy="-692" rx="22" ry="22"/>
<text text-anchor="middle" x="743" y="-688.3" font-family="Times New Roman,serif" font-size="14.00">I</text>
</g>
<!-- H&#45;&gt;I -->
<g id="edge79" class="edge">
<title>H&#45;&gt;I</title>
<path fill="none" stroke="black" d="M660.81,-748.26C660.98,-790.66 665.3,-889.95 703,-860 723.95,-843.35 734.66,-768.04 739.21,-724.11"/>
<polygon fill="black" stroke="black" points="740.22,-713.93 743.71,-724.32 739.73,-718.9 739.24,-723.88 739.24,-723.88 739.24,-723.88 739.73,-718.9 734.76,-723.44 740.22,-713.93 740.22,-713.93"/>
<text text-anchor="middle" x="699.5" y="-866.8" font-family="Times New Roman,serif" font-size="14.00">1</text>
</g>
<!-- H&#45;&gt;I -->
<g id="edge80" class="edge">
<title>H&#45;&gt;I</title>
<path fill="none" stroke="black" d="M662.49,-748.15C665.85,-780.31 675.95,-842.12 703,-822 733.02,-799.67 740.8,-755.03 742.39,-724.34"/>
<polygon fill="black" stroke="black" points="742.71,-714.13 746.89,-724.27 742.55,-719.13 742.39,-724.13 742.39,-724.13 742.39,-724.13 742.55,-719.13 737.89,-723.98 742.71,-714.13 742.71,-714.13"/>
<text text-anchor="middle" x="699.5" y="-828.8" font-family="Times New Roman,serif" font-size="14.00">2</text>
</g>
<!-- H&#45;&gt;I -->
<g id="edge81" class="edge">
<title>H&#45;&gt;I</title>
<path fill="none" stroke="black" d="M666.1,-747.27C672.86,-767.03 685.97,-795.28 703,-784 723.14,-770.66 732.91,-744.63 737.63,-723.64"/>
<polygon fill="black" stroke="black" points="739.56,-713.83 742.04,-724.51 738.6,-718.73 737.63,-723.64 737.63,-723.64 737.63,-723.64 738.6,-718.73 733.21,-722.77 739.56,-713.83 739.56,-713.83"/>
<text text-anchor="middle" x="699.5" y="-789.8" font-family="Times New Roman,serif" font-size="14.00">3</text>
</g>
<!-- H&#45;&gt;I -->
<g id="edge82" class="edge">
<title>H&#45;&gt;I</title>
<path fill="none" stroke="black" d="M674.56,-740.93C682.95,-746.29 693.83,-750.69 703,-746 713.64,-740.56 722.05,-730.71 728.29,-720.9"/>
<polygon fill="black" stroke="black" points="733.41,-712.02 732.31,-722.93 730.91,-716.35 728.41,-720.68 728.41,-720.68 728.41,-720.68 730.91,-716.35 724.52,-718.43 733.41,-712.02 733.41,-712.02"/>
<text text-anchor="middle" x="699.5" y="-750.8" font-family="Times New Roman,serif" font-size="14.00">4</text>
</g>
<!-- H&#45;&gt;I -->
<g id="edge83" class="edge">
<title>H&#45;&gt;I</title>
<path fill="none" stroke="black" d="M676.62,-722.67C687.09,-717.76 701.2,-711.14 713.63,-705.31"/>
<polygon fill="black" stroke="black" points="722.71,-701.05 715.57,-709.37 718.19,-703.17 713.66,-705.29 713.66,-705.29 713.66,-705.29 718.19,-703.17 711.75,-701.22 722.71,-701.05 722.71,-701.05"/>
<text text-anchor="middle" x="699.5" y="-716.8" font-family="Times New Roman,serif" font-size="14.00">5</text>
</g>
<!-- H&#45;&gt;I -->
<g id="edge84" class="edge">
<title>H&#45;&gt;I</title>
<path fill="none" stroke="black" d="M670.33,-714.85C676.46,-706.41 685.32,-696.68 696,-692 700.6,-689.98 705.72,-688.96 710.83,-688.56"/>
<polygon fill="black" stroke="black" points="721.11,-688.5 711.14,-693.05 716.11,-688.53 711.11,-688.55 711.11,-688.55 711.11,-688.55 716.11,-688.53 711.09,-684.05 721.11,-688.5 721.11,-688.5"/>
<text text-anchor="middle" x="699.5" y="-695.8" font-family="Times New Roman,serif" font-size="14.00">6</text>
</g>
<!-- H&#45;&gt;I -->
<g id="edge85" class="edge">
<title>H&#45;&gt;I</title>
<path fill="none" stroke="black" d="M665.95,-712.86C671,-698.83 680.37,-679.9 696,-671 702.87,-667.09 710.59,-668.52 717.72,-672.03"/>
<polygon fill="black" stroke="black" points="726.32,-677.33 715.45,-675.92 722.07,-674.71 717.81,-672.08 717.81,-672.08 717.81,-672.08 722.07,-674.71 720.17,-668.25 726.32,-677.33 726.32,-677.33"/>
<text text-anchor="middle" x="699.5" y="-674.8" font-family="Times New Roman,serif" font-size="14.00">7</text>
</g>
<!-- H&#45;&gt;I -->
<g id="edge86" class="edge">
<title>H&#45;&gt;I</title>
<path fill="none" stroke="black" d="M663.06,-712.18C666.34,-692.88 674.75,-662.97 696,-649 707.43,-641.49 718.68,-651.59 727.19,-663.89"/>
<polygon fill="black" stroke="black" points="732.61,-672.56 723.49,-666.46 729.96,-668.32 727.31,-664.08 727.31,-664.08 727.31,-664.08 729.96,-668.32 731.12,-661.69 732.61,-672.56 732.61,-672.56"/>
<text text-anchor="middle" x="699.5" y="-652.8" font-family="Times New Roman,serif" font-size="14.00">8</text>
</g>
<!-- H&#45;&gt;I -->
<g id="edge87" class="edge">
<title>H&#45;&gt;I</title>
<path fill="none" stroke="black" d="M661.2,-711.78C662.57,-687.78 668.98,-646.36 696,-627 712.74,-615.01 725.57,-638.98 733.38,-661.12"/>
<polygon fill="black" stroke="black" points="736.51,-670.71 729.13,-662.6 734.96,-665.95 733.41,-661.2 733.41,-661.2 733.41,-661.2 734.96,-665.95 737.68,-659.8 736.51,-670.71 736.51,-670.71"/>
<text text-anchor="middle" x="699.5" y="-630.8" font-family="Times New Roman,serif" font-size="14.00">9</text>
</g>
<!-- H&#45;&gt;I -->
<g id="edge88" class="edge">
<title>H&#45;&gt;I</title>
<path fill="none" stroke="black" d="M663.28,-712.29C667.75,-680.8 678.74,-617.12 696,-604 718.73,-586.73 731.3,-628.61 737.34,-660.36"/>
<polygon fill="black" stroke="black" points="739.08,-670.22 732.91,-661.15 738.21,-665.29 737.35,-660.37 737.35,-660.37 737.35,-660.37 738.21,-665.29 741.78,-659.59 739.08,-670.22 739.08,-670.22"/>
<text text-anchor="middle" x="699.5" y="-607.8" font-family="Times New Roman,serif" font-size="14.00">0</text>
</g>
<!-- E&#45;&gt;F -->
<g id="edge56" class="edge">
<title>E&#45;&gt;F</title>
<path fill="none" stroke="black" d="M429.62,-334.56C441.67,-393.05 480.52,-581.61 495.26,-653.14"/>
<polygon fill="black" stroke="black" points="497.33,-663.19 490.91,-654.31 496.32,-658.3 495.31,-653.4 495.31,-653.4 495.31,-653.4 496.32,-658.3 499.72,-652.49 497.33,-663.19 497.33,-663.19"/>
<text text-anchor="middle" x="463.5" y="-512.8" font-family="Times New Roman,serif" font-size="14.00">&#45;</text>
</g>
<!-- E&#45;&gt;J -->
<g id="edge46" class="edge">
<title>E&#45;&gt;J</title>
<path fill="none" stroke="black" d="M426.71,-335.03C429.35,-375.3 441.85,-469 501,-469 501,-469 501,-469 700.5,-469 734.44,-469 773.17,-474.92 798.29,-479.56"/>
<polygon fill="black" stroke="black" points="808.17,-481.45 797.51,-483.99 803.26,-480.51 798.35,-479.57 798.35,-479.57 798.35,-479.57 803.26,-480.51 799.2,-475.15 808.17,-481.45 808.17,-481.45"/>
<text text-anchor="middle" x="620.5" y="-472.8" font-family="Times New Roman,serif" font-size="14.00">1</text>
</g>
<!-- E&#45;&gt;J -->
<g id="edge47" class="edge">
<title>E&#45;&gt;J</title>
<path fill="none" stroke="black" d="M429.19,-334.81C436.07,-366.88 455.51,-431 501,-431 501,-431 501,-431 700.5,-431 738.94,-431 778.95,-452.93 802.92,-468.84"/>
<polygon fill="black" stroke="black" points="811.28,-474.59 800.49,-472.64 807.16,-471.76 803.04,-468.93 803.04,-468.93 803.04,-468.93 807.16,-471.76 805.59,-465.22 811.28,-474.59 811.28,-474.59"/>
<text text-anchor="middle" x="620.5" y="-434.8" font-family="Times New Roman,serif" font-size="14.00">2</text>
</g>
<!-- E&#45;&gt;J -->
<g id="edge48" class="edge">
<title>E&#45;&gt;J</title>
<path fill="none" stroke="black" d="M433.08,-333.12C444.11,-355.43 467.63,-393 501,-393 501,-393 501,-393 744,-393 779.25,-393 802.8,-431.52 815.03,-458.71"/>
<polygon fill="black" stroke="black" points="819.02,-468.13 810.97,-460.68 817.07,-463.52 815.12,-458.92 815.12,-458.92 815.12,-458.92 817.07,-463.52 819.26,-457.16 819.02,-468.13 819.02,-468.13"/>
<text text-anchor="middle" x="620.5" y="-396.8" font-family="Times New Roman,serif" font-size="14.00">3</text>
</g>
<!-- E&#45;&gt;J -->
<g id="edge49" class="edge">
<title>E&#45;&gt;J</title>
<path fill="none" stroke="black" d="M439.08,-328.4C453.31,-339.59 477.21,-355 501,-355 501,-355 501,-355 744,-355 791.76,-355 812.38,-418.99 820.43,-457.18"/>
<polygon fill="black" stroke="black" points="822.38,-467.2 816.05,-458.24 821.42,-462.29 820.46,-457.38 820.46,-457.38 820.46,-457.38 821.42,-462.29 824.88,-456.52 822.38,-467.2 822.38,-467.2"/>
<text text-anchor="middle" x="620.5" y="-358.8" font-family="Times New Roman,serif" font-size="14.00">4</text>
</g>
<!-- E&#45;&gt;J -->
<g id="edge50" class="edge">
<title>E&#45;&gt;J</title>
<path fill="none" stroke="black" d="M443.28,-317C458.48,-317 481.21,-317 501,-317 501,-317 501,-317 744,-317 805.41,-317 820.29,-409.21 823.87,-457"/>
<polygon fill="black" stroke="black" points="824.51,-467.02 819.38,-457.33 824.19,-462.03 823.88,-457.04 823.88,-457.04 823.88,-457.04 824.19,-462.03 828.37,-456.76 824.51,-467.02 824.51,-467.02"/>
<text text-anchor="middle" x="620.5" y="-320.8" font-family="Times New Roman,serif" font-size="14.00">5</text>
</g>
<!-- E&#45;&gt;J -->
<g id="edge51" class="edge">
<title>E&#45;&gt;J</title>
<path fill="none" stroke="black" d="M439.08,-305.6C453.31,-294.41 477.21,-279 501,-279 501,-279 501,-279 744,-279 774.52,-279 775.96,-302.9 790,-330 811.21,-370.93 819.64,-424.47 822.94,-456.72"/>
<polygon fill="black" stroke="black" points="823.87,-466.79 818.47,-457.25 823.41,-461.81 822.95,-456.83 822.95,-456.83 822.95,-456.83 823.41,-461.81 827.43,-456.42 823.87,-466.79 823.87,-466.79"/>
<text text-anchor="middle" x="620.5" y="-282.8" font-family="Times New Roman,serif" font-size="14.00">6</text>
</g>
<!-- E&#45;&gt;J -->
<g id="edge52" class="edge">
<title>E&#45;&gt;J</title>
<path fill="none" stroke="black" d="M433.08,-300.88C444.11,-278.57 467.63,-241 501,-241 501,-241 501,-241 744,-241 789.04,-241 813.41,-392.65 821.7,-456.84"/>
<polygon fill="black" stroke="black" points="822.98,-467.06 817.28,-457.69 822.36,-462.1 821.74,-457.14 821.74,-457.14 821.74,-457.14 822.36,-462.1 826.21,-456.58 822.98,-467.06 822.98,-467.06"/>
<text text-anchor="middle" x="620.5" y="-244.8" font-family="Times New Roman,serif" font-size="14.00">7</text>
</g>
<!-- E&#45;&gt;J -->
<g id="edge53" class="edge">
<title>E&#45;&gt;J</title>
<path fill="none" stroke="black" d="M429.19,-299.19C436.07,-267.12 455.51,-203 501,-203 501,-203 501,-203 744,-203 796.45,-203 816.93,-385.47 822.94,-456.86"/>
<polygon fill="black" stroke="black" points="823.75,-466.93 818.46,-457.32 823.35,-461.95 822.94,-456.96 822.94,-456.96 822.94,-456.96 823.35,-461.95 827.43,-456.6 823.75,-466.93 823.75,-466.93"/>
<text text-anchor="middle" x="620.5" y="-206.8" font-family="Times New Roman,serif" font-size="14.00">8</text>
</g>
<!-- E&#45;&gt;J -->
<g id="edge54" class="edge">
<title>E&#45;&gt;J</title>
<path fill="none" stroke="black" d="M426.71,-298.97C429.35,-258.7 441.85,-165 501,-165 501,-165 501,-165 744,-165 803.93,-165 820,-378.62 823.88,-456.78"/>
<polygon fill="black" stroke="black" points="824.35,-466.88 819.39,-457.1 824.11,-461.88 823.88,-456.89 823.88,-456.89 823.88,-456.89 824.11,-461.88 828.38,-456.68 824.35,-466.88 824.35,-466.88"/>
<text text-anchor="middle" x="620.5" y="-168.8" font-family="Times New Roman,serif" font-size="14.00">9</text>
</g>
<!-- E&#45;&gt;J -->
<g id="edge55" class="edge">
<title>E&#45;&gt;J</title>
<path fill="none" stroke="black" d="M427.88,-299.21C431.34,-271.59 440.35,-217.28 461,-176 473.58,-150.86 472.89,-127 501,-127 501,-127 501,-127 744,-127 811.46,-127 822.74,-371.86 824.62,-456.57"/>
<polygon fill="black" stroke="black" points="824.82,-466.75 820.13,-456.84 824.72,-461.76 824.63,-456.76 824.63,-456.76 824.63,-456.76 824.72,-461.76 829.13,-456.67 824.82,-466.75 824.82,-466.75"/>
<text text-anchor="middle" x="620.5" y="-130.8" font-family="Times New Roman,serif" font-size="14.00">0</text>
</g>
<!-- I&#45;&gt;J -->
<g id="edge90" class="edge">
<title>I&#45;&gt;J</title>
<path fill="none" stroke="black" d="M743.29,-714.32C742.24,-768.9 744.17,-901.75 790,-860 815.53,-836.75 822.76,-596.54 824.51,-513.25"/>
<polygon fill="black" stroke="black" points="824.7,-503.23 829,-513.32 824.61,-508.23 824.51,-513.23 824.51,-513.23 824.51,-513.23 824.61,-508.23 820.01,-513.14 824.7,-503.23 824.7,-503.23"/>
<text text-anchor="middle" x="786.5" y="-867.8" font-family="Times New Roman,serif" font-size="14.00">1</text>
</g>
<!-- I&#45;&gt;J -->
<g id="edge91" class="edge">
<title>I&#45;&gt;J</title>
<path fill="none" stroke="black" d="M744.61,-714.22C746.57,-759.1 754.88,-853.66 790,-822 812.75,-801.49 821.65,-591.33 824.18,-513.65"/>
<polygon fill="black" stroke="black" points="824.5,-503.19 828.69,-513.33 824.35,-508.19 824.19,-513.19 824.19,-513.19 824.19,-513.19 824.35,-508.19 819.69,-513.04 824.5,-503.19 824.5,-503.19"/>
<text text-anchor="middle" x="786.5" y="-828.8" font-family="Times New Roman,serif" font-size="14.00">2</text>
</g>
<!-- I&#45;&gt;J -->
<g id="edge92" class="edge">
<title>I&#45;&gt;J</title>
<path fill="none" stroke="black" d="M746.87,-713.83C752.15,-747.51 765.19,-806.08 790,-784 810.06,-766.16 820.46,-584.37 823.79,-513.28"/>
<polygon fill="black" stroke="black" points="824.25,-503.24 828.29,-513.44 824.02,-508.24 823.79,-513.23 823.79,-513.23 823.79,-513.23 824.02,-508.24 819.3,-513.03 824.25,-503.24 824.25,-503.24"/>
<text text-anchor="middle" x="786.5" y="-790.8" font-family="Times New Roman,serif" font-size="14.00">3</text>
</g>
<!-- I&#45;&gt;J -->
<g id="edge93" class="edge">
<title>I&#45;&gt;J</title>
<path fill="none" stroke="black" d="M751.51,-712.69C760.02,-733.08 774.71,-759.38 790,-746 824.33,-715.97 826.41,-574.21 825.65,-513.12"/>
<polygon fill="black" stroke="black" points="825.49,-503.03 830.15,-512.96 825.57,-508.03 825.65,-513.03 825.65,-513.03 825.65,-513.03 825.57,-508.03 821.15,-513.1 825.49,-503.03 825.49,-503.03"/>
<text text-anchor="middle" x="786.5" y="-752.8" font-family="Times New Roman,serif" font-size="14.00">4</text>
</g>
<!-- I&#45;&gt;J -->
<g id="edge94" class="edge">
<title>I&#45;&gt;J</title>
<path fill="none" stroke="black" d="M760.83,-705.28C770.28,-711.03 781.78,-715.03 790,-708 818.91,-683.28 824.1,-567.82 824.92,-513.45"/>
<polygon fill="black" stroke="black" points="825.03,-503.13 829.42,-513.18 824.98,-508.13 824.92,-513.13 824.92,-513.13 824.92,-513.13 824.98,-508.13 820.42,-513.08 825.03,-503.13 825.03,-503.13"/>
<text text-anchor="middle" x="786.5" y="-714.8" font-family="Times New Roman,serif" font-size="14.00">5</text>
</g>
<!-- I&#45;&gt;J -->
<g id="edge95" class="edge">
<title>I&#45;&gt;J</title>
<path fill="none" stroke="black" d="M764.61,-686.76C773.71,-683.42 783.74,-678.14 790,-670 808.59,-645.84 818.67,-558.66 822.77,-513.13"/>
<polygon fill="black" stroke="black" points="823.65,-503.04 827.27,-513.39 823.22,-508.02 822.79,-513 822.79,-513 822.79,-513 823.22,-508.02 818.3,-512.61 823.65,-503.04 823.65,-503.04"/>
<text text-anchor="middle" x="786.5" y="-679.8" font-family="Times New Roman,serif" font-size="14.00">6</text>
</g>
<!-- I&#45;&gt;J -->
<g id="edge96" class="edge">
<title>I&#45;&gt;J</title>
<path fill="none" stroke="black" d="M758.91,-676.43C769.09,-664.98 782.11,-648.59 790,-632 808.54,-593.01 817.71,-543.39 821.89,-512.93"/>
<polygon fill="black" stroke="black" points="823.17,-503 826.36,-513.49 822.53,-507.96 821.89,-512.92 821.89,-512.92 821.89,-512.92 822.53,-507.96 817.43,-512.34 823.17,-503 823.17,-503"/>
<text text-anchor="middle" x="786.5" y="-647.8" font-family="Times New Roman,serif" font-size="14.00">7</text>
</g>
<!-- I&#45;&gt;J -->
<g id="edge97" class="edge">
<title>I&#45;&gt;J</title>
<path fill="none" stroke="black" d="M753.91,-672.8C763.77,-653.27 778.99,-621.98 790,-594 800.8,-566.54 810.85,-534.26 817.38,-512"/>
<polygon fill="black" stroke="black" points="820.21,-502.23 821.75,-513.09 818.82,-507.03 817.43,-511.84 817.43,-511.84 817.43,-511.84 818.82,-507.03 813.11,-510.58 820.21,-502.23 820.21,-502.23"/>
<text text-anchor="middle" x="786.5" y="-613.8" font-family="Times New Roman,serif" font-size="14.00">8</text>
</g>
<!-- I&#45;&gt;J -->
<g id="edge98" class="edge">
<title>I&#45;&gt;J</title>
<path fill="none" stroke="black" d="M750.19,-671.03C757.35,-647.41 769.84,-608.02 783,-575 791.94,-552.57 803.67,-527.74 812.46,-509.85"/>
<polygon fill="black" stroke="black" points="817.01,-500.69 816.59,-511.65 814.78,-505.17 812.56,-509.65 812.56,-509.65 812.56,-509.65 814.78,-505.17 808.53,-507.65 817.01,-500.69 817.01,-500.69"/>
<text text-anchor="middle" x="786.5" y="-578.8" font-family="Times New Roman,serif" font-size="14.00">9</text>
</g>
<!-- I&#45;&gt;J -->
<g id="edge99" class="edge">
<title>I&#45;&gt;J</title>
<path fill="none" stroke="black" d="M746.8,-670.16C751.31,-639.76 761.89,-583.51 783,-540 789.06,-527.5 798.22,-515.07 806.43,-505.2"/>
<polygon fill="black" stroke="black" points="813.03,-497.57 809.9,-508.08 809.76,-501.35 806.49,-505.13 806.49,-505.13 806.49,-505.13 809.76,-501.35 803.08,-502.19 813.03,-497.57 813.03,-497.57"/>
<text text-anchor="middle" x="786.5" y="-543.8" font-family="Times New Roman,serif" font-size="14.00">0</text>
</g>
<!-- I&#45;&gt;J -->
<g id="edge100" class="edge">
<title>I&#45;&gt;J</title>
<path fill="none" stroke="black" d="M743.16,-669.97C742.88,-633.09 747.17,-558.06 783,-509 787.26,-503.17 793.4,-498.55 799.67,-494.98"/>
<polygon fill="black" stroke="black" points="808.76,-490.49 801.78,-498.95 804.27,-492.7 799.79,-494.92 799.79,-494.92 799.79,-494.92 804.27,-492.7 797.8,-490.88 808.76,-490.49 808.76,-490.49"/>
<text text-anchor="middle" x="786.5" y="-512.8" font-family="Times New Roman,serif" font-size="14.00">&#45;</text>
</g>
</g>
</svg>
