<?xml version="1.0" encoding="UTF-8" standalone="no"?>
<!DOCTYPE svg PUBLIC "-//W3C//DTD SVG 1.1//EN"
 "http://www.w3.org/Graphics/SVG/1.1/DTD/svg11.dtd">
<!-- Generated by graphviz version 2.50.0 (20211204.2007)
 -->
<!-- Title: Validador de número de telefone português Pages: 1 -->
<svg width="1186pt" height="3083pt"
 viewBox="0.00 0.00 1185.70 3083.40" xmlns="http://www.w3.org/2000/svg" xmlns:xlink="http://www.w3.org/1999/xlink">
<g id="graph0" class="graph" transform="scale(1 1) rotate(0) translate(4 3079.4)">
<title>Validador de número de telefone português</title>
<polygon fill="white" stroke="transparent" points="-4,4 -4,-3079.4 1181.7,-3079.4 1181.7,4 -4,4"/>
<!-- Start -->
<g id="node1" class="node">
<title>Start</title>
</g>
<!-- A -->
<g id="node11" class="node">
<title>A</title>
<ellipse fill="none" stroke="black" cx="109" cy="-2870.4" rx="18" ry="18"/>
<text text-anchor="middle" x="109" y="-2866.7" font-family="Times New Roman,serif" font-size="14.00">A</text>
</g>
<!-- Start&#45;&gt;A -->
<g id="edge1" class="edge">
<title>Start&#45;&gt;A</title>
<path fill="none" stroke="black" d="M54.19,-2870.4C62.65,-2870.4 72.05,-2870.4 80.6,-2870.4"/>
<polygon fill="black" stroke="black" points="90.83,-2870.4 80.83,-2874.9 85.83,-2870.4 80.83,-2870.4 80.83,-2870.4 80.83,-2870.4 85.83,-2870.4 80.83,-2865.9 90.83,-2870.4 90.83,-2870.4"/>
</g>
<!-- L -->
<g id="node2" class="node">
<title>L</title>
<ellipse fill="none" stroke="black" cx="1155.7" cy="-1708.4" rx="18" ry="18"/>
<text text-anchor="middle" x="1155.7" y="-1704.7" font-family="Times New Roman,serif" font-size="14.00">L</text>
</g>
<!-- I -->
<g id="node3" class="node">
<title>I</title>
<ellipse fill="none" stroke="black" cx="745" cy="-285.4" rx="18" ry="18"/>
<text text-anchor="middle" x="745" y="-281.7" font-family="Times New Roman,serif" font-size="14.00">I</text>
</g>
<!-- I&#45;&gt;L -->
<g id="edge90" class="edge">
<title>I&#45;&gt;L</title>
<path fill="none" stroke="black" d="M747.8,-303.31C751.73,-338.7 762.26,-415.65 781,-433.4 890.75,-537.29 1016.87,-379.06 1115.7,-493.4 1155.74,-539.73 1155.23,-1501.1 1154.79,-1679.91"/>
<polygon fill="black" stroke="black" points="1154.76,-1690.09 1150.29,-1680.08 1154.77,-1685.09 1154.79,-1680.09 1154.79,-1680.09 1154.79,-1680.09 1154.77,-1685.09 1159.29,-1680.11 1154.76,-1690.09 1154.76,-1690.09"/>
<text text-anchor="middle" x="947.5" y="-465.2" font-family="Times New Roman,serif" font-size="14.00">+</text>
</g>
<!-- J -->
<g id="node13" class="node">
<title>J</title>
<ellipse fill="none" stroke="black" cx="826" cy="-241.4" rx="18" ry="18"/>
<text text-anchor="middle" x="826" y="-237.7" font-family="Times New Roman,serif" font-size="14.00">J</text>
</g>
<!-- I&#45;&gt;J -->
<g id="edge91" class="edge">
<title>I&#45;&gt;J</title>
<path fill="none" stroke="black" d="M746.27,-303.51C747.5,-344.47 754.2,-438.51 790,-409.4 811.31,-392.07 820.08,-312.56 823.32,-269.42"/>
<polygon fill="black" stroke="black" points="824.03,-259.3 827.82,-269.59 823.68,-264.29 823.33,-269.27 823.33,-269.27 823.33,-269.27 823.68,-264.29 818.84,-268.96 824.03,-259.3 824.03,-259.3"/>
<text text-anchor="middle" x="785.5" y="-418.2" font-family="Times New Roman,serif" font-size="14.00">0</text>
</g>
<!-- I&#45;&gt;J -->
<g id="edge92" class="edge">
<title>I&#45;&gt;J</title>
<path fill="none" stroke="black" d="M748.22,-303.46C752.72,-334.02 764.71,-390.78 790,-371.4 806.14,-359.03 816.51,-303.42 821.5,-269.06"/>
<polygon fill="black" stroke="black" points="822.87,-259.15 825.95,-269.67 822.18,-264.1 821.5,-269.06 821.5,-269.06 821.5,-269.06 822.18,-264.1 817.04,-268.44 822.87,-259.15 822.87,-259.15"/>
<text text-anchor="middle" x="785.5" y="-379.2" font-family="Times New Roman,serif" font-size="14.00">1</text>
</g>
<!-- I&#45;&gt;J -->
<g id="edge93" class="edge">
<title>I&#45;&gt;J</title>
<path fill="none" stroke="black" d="M752.34,-302.02C760.13,-319.85 774.27,-344.24 790,-333.4 810.58,-319.21 819.07,-291.19 822.56,-269.79"/>
<polygon fill="black" stroke="black" points="823.94,-259.6 827.06,-270.12 823.27,-264.56 822.6,-269.51 822.6,-269.51 822.6,-269.51 823.27,-264.56 818.14,-268.91 823.94,-259.6 823.94,-259.6"/>
<text text-anchor="middle" x="785.5" y="-340.2" font-family="Times New Roman,serif" font-size="14.00">2</text>
</g>
<!-- I&#45;&gt;J -->
<g id="edge94" class="edge">
<title>I&#45;&gt;J</title>
<path fill="none" stroke="black" d="M760.98,-293.81C769.85,-297.61 781.05,-300.26 790,-295.4 801.16,-289.33 809.31,-278 814.92,-267.28"/>
<polygon fill="black" stroke="black" points="819.22,-258.16 819.03,-269.13 817.09,-262.69 814.96,-267.21 814.96,-267.21 814.96,-267.21 817.09,-262.69 810.89,-265.3 819.22,-258.16 819.22,-258.16"/>
<text text-anchor="middle" x="785.5" y="-302.2" font-family="Times New Roman,serif" font-size="14.00">3</text>
</g>
<!-- I&#45;&gt;J -->
<g id="edge95" class="edge">
<title>I&#45;&gt;J</title>
<path fill="none" stroke="black" d="M761.23,-276.91C772.49,-270.64 788.04,-261.98 800.97,-254.78"/>
<polygon fill="black" stroke="black" points="809.81,-249.85 803.27,-258.65 805.45,-252.29 801.08,-254.72 801.08,-254.72 801.08,-254.72 805.45,-252.29 798.89,-250.79 809.81,-249.85 809.81,-249.85"/>
<text text-anchor="middle" x="785.5" y="-269.2" font-family="Times New Roman,serif" font-size="14.00">4</text>
</g>
<!-- I&#45;&gt;J -->
<g id="edge96" class="edge">
<title>I&#45;&gt;J</title>
<path fill="none" stroke="black" d="M754.51,-269.73C760.55,-260.29 769.61,-249.05 781,-243.4 786.14,-240.85 792.04,-239.62 797.82,-239.16"/>
<polygon fill="black" stroke="black" points="807.9,-239.04 797.95,-243.66 802.9,-239.1 797.9,-239.16 797.9,-239.16 797.9,-239.16 802.9,-239.1 797.85,-234.66 807.9,-239.04 807.9,-239.04"/>
<text text-anchor="middle" x="785.5" y="-247.2" font-family="Times New Roman,serif" font-size="14.00">5</text>
</g>
<!-- I&#45;&gt;J -->
<g id="edge97" class="edge">
<title>I&#45;&gt;J</title>
<path fill="none" stroke="black" d="M750.16,-268.05C754.85,-252.76 764.12,-231.41 781,-221.4 788.1,-217.18 796.25,-219.17 803.59,-223.21"/>
<polygon fill="black" stroke="black" points="812.31,-229.11 801.51,-227.23 808.17,-226.31 804.03,-223.5 804.03,-223.5 804.03,-223.5 808.17,-226.31 806.55,-219.78 812.31,-229.11 812.31,-229.11"/>
<text text-anchor="middle" x="785.5" y="-225.2" font-family="Times New Roman,serif" font-size="14.00">6</text>
</g>
<!-- I&#45;&gt;J -->
<g id="edge98" class="edge">
<title>I&#45;&gt;J</title>
<path fill="none" stroke="black" d="M747.67,-267.46C750.61,-247.26 758.72,-215.32 781,-200.4 792.49,-192.7 803.87,-203.94 812.17,-216.58"/>
<polygon fill="black" stroke="black" points="817.4,-225.35 808.41,-219.06 814.84,-221.05 812.28,-216.76 812.28,-216.76 812.28,-216.76 814.84,-221.05 816.14,-214.45 817.4,-225.35 817.4,-225.35"/>
<text text-anchor="middle" x="785.5" y="-204.2" font-family="Times New Roman,serif" font-size="14.00">7</text>
</g>
<!-- I&#45;&gt;J -->
<g id="edge99" class="edge">
<title>I&#45;&gt;J</title>
<path fill="none" stroke="black" d="M746,-267.09C747.11,-242.47 753.2,-199.49 781,-179.4 797.6,-167.39 810.25,-192.74 817.63,-214.56"/>
<polygon fill="black" stroke="black" points="820.65,-224.19 813.36,-215.99 819.15,-219.42 817.66,-214.64 817.66,-214.64 817.66,-214.64 819.15,-219.42 821.95,-213.3 820.65,-224.19 820.65,-224.19"/>
<text text-anchor="middle" x="785.5" y="-183.2" font-family="Times New Roman,serif" font-size="14.00">8</text>
</g>
<!-- I&#45;&gt;J -->
<g id="edge100" class="edge">
<title>I&#45;&gt;J</title>
<path fill="none" stroke="black" d="M748.21,-267.66C752.58,-235.77 763.47,-170.78 781,-157.4 803.12,-140.51 815.22,-182.56 820.88,-213.07"/>
<polygon fill="black" stroke="black" points="822.62,-223.27 816.5,-214.17 821.78,-218.34 820.94,-213.41 820.94,-213.41 820.94,-213.41 821.78,-218.34 825.37,-212.65 822.62,-223.27 822.62,-223.27"/>
<text text-anchor="middle" x="785.5" y="-161.2" font-family="Times New Roman,serif" font-size="14.00">9</text>
</g>
<!-- M -->
<g id="node4" class="node">
<title>M</title>
<ellipse fill="none" stroke="black" cx="988.85" cy="-157.4" rx="18.7" ry="18.7"/>
<text text-anchor="middle" x="988.85" y="-153.7" font-family="Times New Roman,serif" font-size="14.00">M</text>
</g>
<!-- M&#45;&gt;L -->
<g id="edge123" class="edge">
<title>M&#45;&gt;L</title>
<path fill="none" stroke="black" d="M989.88,-176.56C990.83,-207.36 996.6,-268.54 1025.7,-309.4 1053.17,-347.96 1092.27,-325.25 1115.7,-366.4 1149.34,-425.48 1154.05,-1491.9 1154.62,-1680.13"/>
<polygon fill="black" stroke="black" points="1154.65,-1690.32 1150.13,-1680.33 1154.64,-1685.32 1154.63,-1680.32 1154.63,-1680.32 1154.63,-1680.32 1154.64,-1685.32 1159.13,-1680.31 1154.65,-1690.32 1154.65,-1690.32"/>
<text text-anchor="middle" x="1070.7" y="-346.2" font-family="Times New Roman,serif" font-size="14.00">+</text>
</g>
<!-- N -->
<g id="node7" class="node">
<title>N</title>
<ellipse fill="none" stroke="black" cx="1070.7" cy="-117.4" rx="18" ry="18"/>
<text text-anchor="middle" x="1070.7" y="-113.7" font-family="Times New Roman,serif" font-size="14.00">N</text>
</g>
<!-- M&#45;&gt;N -->
<g id="edge124" class="edge">
<title>M&#45;&gt;N</title>
<path fill="none" stroke="black" d="M990.08,-176.4C991.24,-218.84 997.88,-315.33 1034.7,-285.4 1056.01,-268.07 1064.78,-188.56 1068.01,-145.42"/>
<polygon fill="black" stroke="black" points="1068.72,-135.3 1072.51,-145.59 1068.37,-140.29 1068.02,-145.27 1068.02,-145.27 1068.02,-145.27 1068.37,-140.29 1063.54,-144.96 1068.72,-135.3 1068.72,-135.3"/>
<text text-anchor="middle" x="1030.2" y="-294.2" font-family="Times New Roman,serif" font-size="14.00">0</text>
</g>
<!-- M&#45;&gt;N -->
<g id="edge125" class="edge">
<title>M&#45;&gt;N</title>
<path fill="none" stroke="black" d="M991.97,-176.03C996.35,-207.91 1008.3,-267.63 1034.7,-247.4 1050.84,-235.03 1061.21,-179.42 1066.19,-145.06"/>
<polygon fill="black" stroke="black" points="1067.57,-135.15 1070.65,-145.67 1066.88,-140.1 1066.19,-145.06 1066.19,-145.06 1066.19,-145.06 1066.88,-140.1 1061.74,-144.44 1067.57,-135.15 1067.57,-135.15"/>
<text text-anchor="middle" x="1030.2" y="-255.2" font-family="Times New Roman,serif" font-size="14.00">1</text>
</g>
<!-- M&#45;&gt;N -->
<g id="edge126" class="edge">
<title>M&#45;&gt;N</title>
<path fill="none" stroke="black" d="M995.98,-174.95C1003.71,-194.2 1018.01,-220.9 1034.7,-209.4 1055.28,-195.21 1063.77,-167.19 1067.26,-145.79"/>
<polygon fill="black" stroke="black" points="1068.64,-135.6 1071.76,-146.12 1067.97,-140.56 1067.3,-145.51 1067.3,-145.51 1067.3,-145.51 1067.97,-140.56 1062.84,-144.91 1068.64,-135.6 1068.64,-135.6"/>
<text text-anchor="middle" x="1030.2" y="-216.2" font-family="Times New Roman,serif" font-size="14.00">2</text>
</g>
<!-- M&#45;&gt;N -->
<g id="edge127" class="edge">
<title>M&#45;&gt;N</title>
<path fill="none" stroke="black" d="M1004.98,-167.91C1013.96,-172.77 1025.38,-176.46 1034.7,-171.4 1045.86,-165.33 1054.01,-154 1059.62,-143.28"/>
<polygon fill="black" stroke="black" points="1063.91,-134.16 1063.72,-145.13 1061.78,-138.69 1059.65,-143.21 1059.65,-143.21 1059.65,-143.21 1061.78,-138.69 1055.58,-141.3 1063.91,-134.16 1063.91,-134.16"/>
<text text-anchor="middle" x="1030.2" y="-178.2" font-family="Times New Roman,serif" font-size="14.00">3</text>
</g>
<!-- M&#45;&gt;N -->
<g id="edge128" class="edge">
<title>M&#45;&gt;N</title>
<path fill="none" stroke="black" d="M1006.01,-149.3C1017.26,-143.66 1032.48,-136.04 1045.22,-129.66"/>
<polygon fill="black" stroke="black" points="1054.37,-125.07 1047.45,-133.57 1049.9,-127.31 1045.43,-129.55 1045.43,-129.55 1045.43,-129.55 1049.9,-127.31 1043.42,-125.53 1054.37,-125.07 1054.37,-125.07"/>
<text text-anchor="middle" x="1030.2" y="-143.2" font-family="Times New Roman,serif" font-size="14.00">4</text>
</g>
<!-- M&#45;&gt;N -->
<g id="edge129" class="edge">
<title>M&#45;&gt;N</title>
<path fill="none" stroke="black" d="M999.22,-141.07C1005.43,-131.97 1014.5,-121.48 1025.7,-116.4 1030.91,-114.03 1036.85,-113.13 1042.64,-113.05"/>
<polygon fill="black" stroke="black" points="1052.71,-113.64 1042.46,-117.55 1047.71,-113.35 1042.72,-113.06 1042.72,-113.06 1042.72,-113.06 1047.71,-113.35 1042.99,-108.56 1052.71,-113.64 1052.71,-113.64"/>
<text text-anchor="middle" x="1030.2" y="-120.2" font-family="Times New Roman,serif" font-size="14.00">5</text>
</g>
<!-- M&#45;&gt;N -->
<g id="edge130" class="edge">
<title>M&#45;&gt;N</title>
<path fill="none" stroke="black" d="M994.79,-139.4C999.88,-124.66 1009.43,-104.78 1025.7,-95.4 1033.25,-91.04 1041.77,-93.66 1049.29,-98.37"/>
<polygon fill="black" stroke="black" points="1057.54,-104.59 1046.85,-102.17 1053.55,-101.58 1049.55,-98.57 1049.55,-98.57 1049.55,-98.57 1053.55,-101.58 1052.26,-94.98 1057.54,-104.59 1057.54,-104.59"/>
<text text-anchor="middle" x="1030.2" y="-99.2" font-family="Times New Roman,serif" font-size="14.00">6</text>
</g>
<!-- M&#45;&gt;N -->
<g id="edge131" class="edge">
<title>M&#45;&gt;N</title>
<path fill="none" stroke="black" d="M992.01,-138.78C995.42,-118.99 1004.06,-88.62 1025.7,-74.4 1037.78,-66.46 1049.38,-78.93 1057.64,-92.46"/>
<polygon fill="black" stroke="black" points="1062.55,-101.29 1053.76,-94.74 1060.12,-96.92 1057.69,-92.55 1057.69,-92.55 1057.69,-92.55 1060.12,-96.92 1061.62,-90.36 1062.55,-101.29 1062.55,-101.29"/>
<text text-anchor="middle" x="1030.2" y="-78.2" font-family="Times New Roman,serif" font-size="14.00">7</text>
</g>
<!-- M&#45;&gt;N -->
<g id="edge132" class="edge">
<title>M&#45;&gt;N</title>
<path fill="none" stroke="black" d="M990.17,-138.58C991.72,-114.27 998.48,-72.8 1025.7,-53.4 1042.91,-41.12 1055.54,-67.89 1062.75,-90.48"/>
<polygon fill="black" stroke="black" points="1065.59,-100.1 1058.44,-91.78 1064.17,-95.3 1062.76,-90.51 1062.76,-90.51 1062.76,-90.51 1064.17,-95.3 1067.07,-89.23 1065.59,-100.1 1065.59,-100.1"/>
<text text-anchor="middle" x="1030.2" y="-57.2" font-family="Times New Roman,serif" font-size="14.00">8</text>
</g>
<!-- M&#45;&gt;N -->
<g id="edge133" class="edge">
<title>M&#45;&gt;N</title>
<path fill="none" stroke="black" d="M992.41,-138.68C997.18,-106.85 1008.55,-44.35 1025.7,-31.4 1048.54,-14.14 1060.48,-58.14 1065.91,-89.37"/>
<polygon fill="black" stroke="black" points="1067.5,-99.37 1061.48,-90.2 1066.71,-94.43 1065.93,-89.49 1065.93,-89.49 1065.93,-89.49 1066.71,-94.43 1070.37,-88.78 1067.5,-99.37 1067.5,-99.37"/>
<text text-anchor="middle" x="1030.2" y="-35.2" font-family="Times New Roman,serif" font-size="14.00">9</text>
</g>
<!-- K -->
<g id="node5" class="node">
<title>K</title>
<ellipse fill="none" stroke="black" cx="907" cy="-203.4" rx="18" ry="18"/>
<text text-anchor="middle" x="907" y="-199.7" font-family="Times New Roman,serif" font-size="14.00">K</text>
</g>
<!-- K&#45;&gt;L -->
<g id="edge112" class="edge">
<title>K&#45;&gt;L</title>
<path fill="none" stroke="black" d="M907.13,-221.62C906.69,-252.02 910.28,-313.27 943,-349.4 997.54,-409.63 1067.62,-343.9 1115.7,-409.4 1154.58,-462.37 1154.99,-1494.9 1154.75,-1680.08"/>
<polygon fill="black" stroke="black" points="1154.74,-1690.36 1150.25,-1680.35 1154.74,-1685.36 1154.75,-1680.36 1154.75,-1680.36 1154.75,-1680.36 1154.74,-1685.36 1159.25,-1680.36 1154.74,-1690.36 1154.74,-1690.36"/>
<text text-anchor="middle" x="1030.2" y="-382.2" font-family="Times New Roman,serif" font-size="14.00">+</text>
</g>
<!-- K&#45;&gt;M -->
<g id="edge113" class="edge">
<title>K&#45;&gt;M</title>
<path fill="none" stroke="black" d="M908.34,-221.51C909.72,-261.96 916.73,-353.93 952,-325.4 973.21,-308.23 982.42,-229.77 985.94,-186.41"/>
<polygon fill="black" stroke="black" points="986.72,-176.2 990.45,-186.51 986.34,-181.18 985.96,-186.17 985.96,-186.17 985.96,-186.17 986.34,-181.18 981.47,-185.83 986.72,-176.2 986.72,-176.2"/>
<text text-anchor="middle" x="947.5" y="-334.2" font-family="Times New Roman,serif" font-size="14.00">0</text>
</g>
<!-- K&#45;&gt;M -->
<g id="edge114" class="edge">
<title>K&#45;&gt;M</title>
<path fill="none" stroke="black" d="M910.38,-221.52C915.06,-251.48 927.25,-306.25 952,-287.4 968.04,-275.18 978.72,-220.59 983.99,-186.15"/>
<polygon fill="black" stroke="black" points="985.46,-176.18 988.46,-186.72 984.73,-181.12 984,-186.07 984,-186.07 984,-186.07 984.73,-181.12 979.55,-185.42 985.46,-176.18 985.46,-176.18"/>
<text text-anchor="middle" x="947.5" y="-295.2" font-family="Times New Roman,serif" font-size="14.00">1</text>
</g>
<!-- K&#45;&gt;M -->
<g id="edge115" class="edge">
<title>K&#45;&gt;M</title>
<path fill="none" stroke="black" d="M914.73,-219.99C922.68,-237.06 936.76,-259.81 952,-249.4 972.46,-235.41 981.24,-207.88 985.01,-186.56"/>
<polygon fill="black" stroke="black" points="986.53,-176.39 989.51,-186.94 985.79,-181.33 985.06,-186.28 985.06,-186.28 985.06,-186.28 985.79,-181.33 980.61,-185.62 986.53,-176.39 986.53,-176.39"/>
<text text-anchor="middle" x="947.5" y="-256.2" font-family="Times New Roman,serif" font-size="14.00">2</text>
</g>
<!-- K&#45;&gt;M -->
<g id="edge116" class="edge">
<title>K&#45;&gt;M</title>
<path fill="none" stroke="black" d="M923.43,-210.92C932.24,-214.09 943.24,-216.09 952,-211.4 963.04,-205.47 971.26,-194.48 977.03,-183.96"/>
<polygon fill="black" stroke="black" points="981.47,-174.96 981.07,-185.92 979.25,-179.45 977.04,-183.93 977.04,-183.93 977.04,-183.93 979.25,-179.45 973,-181.94 981.47,-174.96 981.47,-174.96"/>
<text text-anchor="middle" x="947.5" y="-218.2" font-family="Times New Roman,serif" font-size="14.00">3</text>
</g>
<!-- K&#45;&gt;M -->
<g id="edge117" class="edge">
<title>K&#45;&gt;M</title>
<path fill="none" stroke="black" d="M923.02,-194.74C934.29,-188.25 949.97,-179.22 963.08,-171.67"/>
<polygon fill="black" stroke="black" points="972.08,-166.48 965.66,-175.37 967.74,-168.98 963.41,-171.47 963.41,-171.47 963.41,-171.47 967.74,-168.98 961.17,-167.58 972.08,-166.48 972.08,-166.48"/>
<text text-anchor="middle" x="947.5" y="-187.2" font-family="Times New Roman,serif" font-size="14.00">4</text>
</g>
<!-- K&#45;&gt;M -->
<g id="edge118" class="edge">
<title>K&#45;&gt;M</title>
<path fill="none" stroke="black" d="M916.2,-187.87C922.22,-178.17 931.37,-166.41 943,-160.4 948.11,-157.75 954,-156.38 959.79,-155.77"/>
<polygon fill="black" stroke="black" points="969.93,-155.39 960.11,-160.27 964.94,-155.58 959.94,-155.77 959.94,-155.77 959.94,-155.77 964.94,-155.58 959.77,-151.27 969.93,-155.39 969.93,-155.39"/>
<text text-anchor="middle" x="947.5" y="-164.2" font-family="Times New Roman,serif" font-size="14.00">5</text>
</g>
<!-- K&#45;&gt;M -->
<g id="edge119" class="edge">
<title>K&#45;&gt;M</title>
<path fill="none" stroke="black" d="M911.99,-186.08C916.59,-170.54 925.83,-148.65 943,-138.4 950.04,-134.19 958.19,-135.9 965.59,-139.65"/>
<polygon fill="black" stroke="black" points="974.43,-145.19 963.57,-143.69 970.2,-142.54 965.96,-139.88 965.96,-139.88 965.96,-139.88 970.2,-142.54 968.35,-136.07 974.43,-145.19 974.43,-145.19"/>
<text text-anchor="middle" x="947.5" y="-142.2" font-family="Times New Roman,serif" font-size="14.00">6</text>
</g>
<!-- K&#45;&gt;M -->
<g id="edge120" class="edge">
<title>K&#45;&gt;M</title>
<path fill="none" stroke="black" d="M909.6,-185.26C912.48,-164.83 920.53,-132.51 943,-117.4 954.25,-109.83 965.64,-120.26 974.13,-132.36"/>
<polygon fill="black" stroke="black" points="979.5,-140.81 970.34,-134.79 976.82,-136.59 974.13,-132.37 974.13,-132.37 974.13,-132.37 976.82,-136.59 977.93,-129.96 979.5,-140.81 979.5,-140.81"/>
<text text-anchor="middle" x="947.5" y="-121.2" font-family="Times New Roman,serif" font-size="14.00">7</text>
</g>
<!-- K&#45;&gt;M -->
<g id="edge121" class="edge">
<title>K&#45;&gt;M</title>
<path fill="none" stroke="black" d="M907.92,-185.34C908.92,-160.57 914.83,-116.82 943,-96.4 959.17,-84.67 971.94,-108.35 979.66,-129.54"/>
<polygon fill="black" stroke="black" points="982.93,-139.27 975.48,-131.23 981.34,-134.53 979.74,-129.79 979.74,-129.79 979.74,-129.79 981.34,-134.53 984.01,-128.36 982.93,-139.27 982.93,-139.27"/>
<text text-anchor="middle" x="947.5" y="-100.2" font-family="Times New Roman,serif" font-size="14.00">8</text>
</g>
<!-- K&#45;&gt;M -->
<g id="edge122" class="edge">
<title>K&#45;&gt;M</title>
<path fill="none" stroke="black" d="M910.18,-185.53C914.52,-153.38 925.35,-87.9 943,-74.4 964.76,-57.75 977.23,-98.3 983.26,-128.4"/>
<polygon fill="black" stroke="black" points="985.13,-138.5 978.89,-129.49 984.22,-133.59 983.31,-128.67 983.31,-128.67 983.31,-128.67 984.22,-133.59 987.74,-127.85 985.13,-138.5 985.13,-138.5"/>
<text text-anchor="middle" x="947.5" y="-78.2" font-family="Times New Roman,serif" font-size="14.00">9</text>
</g>
<!-- E -->
<g id="node6" class="node">
<title>E</title>
<ellipse fill="none" stroke="black" cx="427" cy="-1109.4" rx="18" ry="18"/>
<text text-anchor="middle" x="427" y="-1105.7" font-family="Times New Roman,serif" font-size="14.00">E</text>
</g>
<!-- E&#45;&gt;L -->
<g id="edge46" class="edge">
<title>E&#45;&gt;L</title>
<path fill="none" stroke="black" d="M428.01,-1127.37C429.08,-1171.28 438.42,-1280.4 505,-1280.4 505,-1280.4 505,-1280.4 1071.7,-1280.4 1095.88,-1280.4 1103.68,-1291.41 1115.7,-1312.4 1151.6,-1375.09 1154.87,-1599.69 1154.86,-1679.78"/>
<polygon fill="black" stroke="black" points="1154.84,-1690.09 1150.36,-1680.08 1154.85,-1685.09 1154.86,-1680.09 1154.86,-1680.09 1154.86,-1680.09 1154.85,-1685.09 1159.36,-1680.09 1154.84,-1690.09 1154.84,-1690.09"/>
<text text-anchor="middle" x="785.5" y="-1284.2" font-family="Times New Roman,serif" font-size="14.00">+</text>
</g>
<!-- E&#45;&gt;L -->
<g id="edge47" class="edge">
<title>E&#45;&gt;L</title>
<path fill="none" stroke="black" d="M430.01,-1127.33C435.17,-1163.64 452.44,-1242.4 505,-1242.4 505,-1242.4 505,-1242.4 1071.7,-1242.4 1101.97,-1242.4 1103.96,-1266.49 1115.7,-1294.4 1145.09,-1364.29 1152.51,-1598.25 1154.22,-1679.95"/>
<polygon fill="black" stroke="black" points="1154.42,-1690 1149.72,-1680.09 1154.32,-1685 1154.22,-1680 1154.22,-1680 1154.22,-1680 1154.32,-1685 1158.72,-1679.92 1154.42,-1690 1154.42,-1690"/>
<text text-anchor="middle" x="785.5" y="-1246.2" font-family="Times New Roman,serif" font-size="14.00">0</text>
</g>
<!-- E&#45;&gt;L -->
<g id="edge48" class="edge">
<title>E&#45;&gt;L</title>
<path fill="none" stroke="black" d="M433.11,-1126.38C442.51,-1153.71 465.3,-1204.4 505,-1204.4 505,-1204.4 505,-1204.4 1071.7,-1204.4 1075.89,-1204.4 1109.69,-1250.79 1115.7,-1267.4 1143.36,-1343.92 1151.94,-1595.5 1154.08,-1680.25"/>
<polygon fill="black" stroke="black" points="1154.33,-1690.4 1149.59,-1680.51 1154.21,-1685.4 1154.09,-1680.4 1154.09,-1680.4 1154.09,-1680.4 1154.21,-1685.4 1158.58,-1680.29 1154.33,-1690.4 1154.33,-1690.4"/>
<text text-anchor="middle" x="785.5" y="-1208.2" font-family="Times New Roman,serif" font-size="14.00">1</text>
</g>
<!-- E&#45;&gt;L -->
<g id="edge49" class="edge">
<title>E&#45;&gt;L</title>
<path fill="none" stroke="black" d="M438.19,-1123.78C451.47,-1140.67 476.39,-1166.4 505,-1166.4 505,-1166.4 505,-1166.4 1071.7,-1166.4 1087.41,-1166.4 1107.64,-1217.53 1115.7,-1247.4 1137.93,-1329.85 1150.14,-1593.43 1153.63,-1680.32"/>
<polygon fill="black" stroke="black" points="1154.03,-1690.47 1149.14,-1680.65 1153.84,-1685.47 1153.64,-1680.47 1153.64,-1680.47 1153.64,-1680.47 1153.84,-1685.47 1158.14,-1680.3 1154.03,-1690.47 1154.03,-1690.47"/>
<text text-anchor="middle" x="785.5" y="-1170.2" font-family="Times New Roman,serif" font-size="14.00">2</text>
</g>
<!-- E&#45;&gt;L -->
<g id="edge50" class="edge">
<title>E&#45;&gt;L</title>
<path fill="none" stroke="black" d="M443.94,-1115.72C459.32,-1121.25 483.38,-1128.4 505,-1128.4 505,-1128.4 505,-1128.4 1071.7,-1128.4 1091.39,-1128.4 1106.31,-1178.46 1115.7,-1217.4 1137.14,-1306.37 1149.99,-1589.82 1153.63,-1680.33"/>
<polygon fill="black" stroke="black" points="1154.02,-1690.39 1149.13,-1680.57 1153.83,-1685.39 1153.63,-1680.39 1153.63,-1680.39 1153.63,-1680.39 1153.83,-1685.39 1158.12,-1680.22 1154.02,-1690.39 1154.02,-1690.39"/>
<text text-anchor="middle" x="785.5" y="-1132.2" font-family="Times New Roman,serif" font-size="14.00">3</text>
</g>
<!-- E&#45;&gt;L -->
<g id="edge51" class="edge">
<title>E&#45;&gt;L</title>
<path fill="none" stroke="black" d="M443.94,-1103.07C459.32,-1097.54 483.38,-1090.4 505,-1090.4 505,-1090.4 505,-1090.4 1071.7,-1090.4 1092.79,-1090.4 1105.86,-1139.6 1115.7,-1182.4 1137.78,-1278.43 1150.3,-1584.78 1153.72,-1679.93"/>
<polygon fill="black" stroke="black" points="1154.09,-1690.21 1149.24,-1680.38 1153.91,-1685.21 1153.73,-1680.22 1153.73,-1680.22 1153.73,-1680.22 1153.91,-1685.21 1158.23,-1680.06 1154.09,-1690.21 1154.09,-1690.21"/>
<text text-anchor="middle" x="785.5" y="-1094.2" font-family="Times New Roman,serif" font-size="14.00">4</text>
</g>
<!-- E&#45;&gt;L -->
<g id="edge52" class="edge">
<title>E&#45;&gt;L</title>
<path fill="none" stroke="black" d="M438.19,-1095.01C451.47,-1078.13 476.39,-1052.4 505,-1052.4 505,-1052.4 505,-1052.4 1071.7,-1052.4 1093.28,-1052.4 1105.78,-1101.25 1115.7,-1145.4 1138.99,-1249.05 1150.81,-1581.13 1153.87,-1680.22"/>
<polygon fill="black" stroke="black" points="1154.18,-1690.36 1149.38,-1680.5 1154.03,-1685.36 1153.88,-1680.36 1153.88,-1680.36 1153.88,-1680.36 1154.03,-1685.36 1158.38,-1680.23 1154.18,-1690.36 1154.18,-1690.36"/>
<text text-anchor="middle" x="785.5" y="-1056.2" font-family="Times New Roman,serif" font-size="14.00">5</text>
</g>
<!-- E&#45;&gt;L -->
<g id="edge53" class="edge">
<title>E&#45;&gt;L</title>
<path fill="none" stroke="black" d="M433.11,-1092.41C442.51,-1065.09 465.3,-1014.4 505,-1014.4 505,-1014.4 505,-1014.4 1071.7,-1014.4 1093.32,-1014.4 1105.88,-1063.25 1115.7,-1107.4 1140.45,-1218.68 1151.33,-1576.42 1154.01,-1680.03"/>
<polygon fill="black" stroke="black" points="1154.27,-1690.32 1149.52,-1680.44 1154.15,-1685.32 1154.02,-1680.33 1154.02,-1680.33 1154.02,-1680.33 1154.15,-1685.32 1158.52,-1680.21 1154.27,-1690.32 1154.27,-1690.32"/>
<text text-anchor="middle" x="785.5" y="-1018.2" font-family="Times New Roman,serif" font-size="14.00">6</text>
</g>
<!-- E&#45;&gt;L -->
<g id="edge54" class="edge">
<title>E&#45;&gt;L</title>
<path fill="none" stroke="black" d="M430.01,-1091.46C435.17,-1055.16 452.44,-976.4 505,-976.4 505,-976.4 505,-976.4 1071.7,-976.4 1093.35,-976.4 1105.97,-1025.25 1115.7,-1069.4 1141.95,-1188.5 1151.85,-1573.01 1154.14,-1680.34"/>
<polygon fill="black" stroke="black" points="1154.35,-1690.4 1149.65,-1680.49 1154.25,-1685.4 1154.15,-1680.4 1154.15,-1680.4 1154.15,-1680.4 1154.25,-1685.4 1158.64,-1680.31 1154.35,-1690.4 1154.35,-1690.4"/>
<text text-anchor="middle" x="785.5" y="-980.2" font-family="Times New Roman,serif" font-size="14.00">7</text>
</g>
<!-- E&#45;&gt;L -->
<g id="edge55" class="edge">
<title>E&#45;&gt;L</title>
<path fill="none" stroke="black" d="M428.01,-1091.42C429.08,-1047.52 438.42,-938.4 505,-938.4 505,-938.4 505,-938.4 1071.7,-938.4 1092.04,-938.4 1106.59,-988.2 1115.7,-1028.4 1144.49,-1155.49 1152.61,-1567.81 1154.31,-1679.99"/>
<polygon fill="black" stroke="black" points="1154.46,-1690.18 1149.82,-1680.25 1154.39,-1685.18 1154.32,-1680.18 1154.32,-1680.18 1154.32,-1680.18 1154.39,-1685.18 1158.82,-1680.12 1154.46,-1690.18 1154.46,-1690.18"/>
<text text-anchor="middle" x="785.5" y="-942.2" font-family="Times New Roman,serif" font-size="14.00">8</text>
</g>
<!-- F -->
<g id="node8" class="node">
<title>F</title>
<ellipse fill="none" stroke="black" cx="506" cy="-665.4" rx="18" ry="18"/>
<text text-anchor="middle" x="506" y="-661.7" font-family="Times New Roman,serif" font-size="14.00">F</text>
</g>
<!-- E&#45;&gt;F -->
<g id="edge56" class="edge">
<title>E&#45;&gt;F</title>
<path fill="none" stroke="black" d="M431.07,-1091.72C442.91,-1023.42 485.73,-776.5 500.19,-693.12"/>
<polygon fill="black" stroke="black" points="501.93,-683.13 504.65,-693.75 501.07,-688.05 500.22,-692.98 500.22,-692.98 500.22,-692.98 501.07,-688.05 495.78,-692.21 501.93,-683.13 501.93,-683.13"/>
<text text-anchor="middle" x="466.5" y="-905.2" font-family="Times New Roman,serif" font-size="14.00">9</text>
</g>
<!-- N&#45;&gt;L -->
<g id="edge134" class="edge">
<title>N&#45;&gt;L</title>
<path fill="none" stroke="black" d="M1075.6,-134.97C1081.98,-163.59 1095.08,-222.02 1106.7,-271.4 1110.57,-287.87 1113.45,-291.62 1115.7,-308.4 1153.09,-587.39 1154.75,-1506.92 1154.72,-1680.13"/>
<polygon fill="black" stroke="black" points="1154.72,-1690.23 1150.22,-1680.22 1154.72,-1685.23 1154.72,-1680.23 1154.72,-1680.23 1154.72,-1680.23 1154.72,-1685.23 1159.22,-1680.23 1154.72,-1690.23 1154.72,-1690.23"/>
<text text-anchor="middle" x="1111.2" y="-312.2" font-family="Times New Roman,serif" font-size="14.00">+</text>
</g>
<!-- O -->
<g id="node16" class="node">
<title>O</title>
<ellipse fill="none" stroke="black" cx="1155.7" cy="-98.4" rx="18" ry="18"/>
<ellipse fill="none" stroke="black" cx="1155.7" cy="-98.4" rx="22" ry="22"/>
<text text-anchor="middle" x="1155.7" y="-94.7" font-family="Times New Roman,serif" font-size="14.00">O</text>
</g>
<!-- N&#45;&gt;O -->
<g id="edge135" class="edge">
<title>N&#45;&gt;O</title>
<path fill="none" stroke="black" d="M1071.65,-135.61C1072.18,-177.89 1077.41,-276.95 1115.7,-247.4 1134.11,-233.19 1145.5,-169.49 1150.92,-130.12"/>
<polygon fill="black" stroke="black" points="1152.23,-120.2 1155.38,-130.7 1151.57,-125.16 1150.92,-130.12 1150.92,-130.12 1150.92,-130.12 1151.57,-125.16 1146.46,-129.53 1152.23,-120.2 1152.23,-120.2"/>
<text text-anchor="middle" x="1111.2" y="-256.2" font-family="Times New Roman,serif" font-size="14.00">0</text>
</g>
<!-- N&#45;&gt;O -->
<g id="edge136" class="edge">
<title>N&#45;&gt;O</title>
<path fill="none" stroke="black" d="M1073.37,-135.46C1077.08,-167.47 1087.96,-229.05 1115.7,-209.4 1140.6,-191.75 1149.72,-156.89 1152.99,-130.92"/>
<polygon fill="black" stroke="black" points="1154.04,-120.76 1157.49,-131.17 1153.53,-125.74 1153.02,-130.71 1153.02,-130.71 1153.02,-130.71 1153.53,-125.74 1148.54,-130.25 1154.04,-120.76 1154.04,-120.76"/>
<text text-anchor="middle" x="1111.2" y="-217.2" font-family="Times New Roman,serif" font-size="14.00">1</text>
</g>
<!-- N&#45;&gt;O -->
<g id="edge137" class="edge">
<title>N&#45;&gt;O</title>
<path fill="none" stroke="black" d="M1077.04,-134.48C1084.13,-154.04 1097.86,-182.09 1115.7,-171.4 1130.86,-162.31 1140.46,-145.09 1146.34,-129.66"/>
<polygon fill="black" stroke="black" points="1149.68,-119.88 1150.7,-130.8 1148.06,-124.61 1146.44,-129.34 1146.44,-129.34 1146.44,-129.34 1148.06,-124.61 1142.19,-127.88 1149.68,-119.88 1149.68,-119.88"/>
<text text-anchor="middle" x="1111.2" y="-178.2" font-family="Times New Roman,serif" font-size="14.00">2</text>
</g>
<!-- N&#45;&gt;O -->
<g id="edge138" class="edge">
<title>N&#45;&gt;O</title>
<path fill="none" stroke="black" d="M1085.61,-127.72C1094.29,-132.86 1105.68,-137.23 1115.7,-133.4 1122.2,-130.91 1128.31,-126.77 1133.67,-122.2"/>
<polygon fill="black" stroke="black" points="1140.95,-115.33 1136.76,-125.47 1137.31,-118.76 1133.68,-122.19 1133.68,-122.19 1133.68,-122.19 1137.31,-118.76 1130.59,-118.92 1140.95,-115.33 1140.95,-115.33"/>
<text text-anchor="middle" x="1111.2" y="-139.2" font-family="Times New Roman,serif" font-size="14.00">3</text>
</g>
<!-- N&#45;&gt;O -->
<g id="edge139" class="edge">
<title>N&#45;&gt;O</title>
<path fill="none" stroke="black" d="M1088.49,-113.55C1098.68,-111.22 1111.98,-108.17 1123.99,-105.43"/>
<polygon fill="black" stroke="black" points="1134.1,-103.11 1125.36,-109.73 1129.23,-104.23 1124.36,-105.34 1124.36,-105.34 1124.36,-105.34 1129.23,-104.23 1123.35,-100.96 1134.1,-103.11 1134.1,-103.11"/>
<text text-anchor="middle" x="1111.2" y="-113.2" font-family="Times New Roman,serif" font-size="14.00">4</text>
</g>
<!-- N&#45;&gt;O -->
<g id="edge140" class="edge">
<title>N&#45;&gt;O</title>
<path fill="none" stroke="black" d="M1083.29,-104.26C1089.54,-98.18 1097.79,-91.61 1106.7,-88.4 1112.54,-86.29 1118.96,-86.2 1125.15,-87.14"/>
<polygon fill="black" stroke="black" points="1135.2,-89.54 1124.43,-91.6 1130.34,-88.38 1125.47,-87.22 1125.47,-87.22 1125.47,-87.22 1130.34,-88.38 1126.52,-82.84 1135.2,-89.54 1135.2,-89.54"/>
<text text-anchor="middle" x="1111.2" y="-92.2" font-family="Times New Roman,serif" font-size="14.00">5</text>
</g>
<!-- N&#45;&gt;O -->
<g id="edge141" class="edge">
<title>N&#45;&gt;O</title>
<path fill="none" stroke="black" d="M1078.48,-100.94C1084.17,-89.52 1093.5,-75.19 1106.7,-68.4 1115.83,-63.69 1125.52,-67.84 1133.77,-74.39"/>
<polygon fill="black" stroke="black" points="1141.19,-81.2 1130.78,-77.75 1137.51,-77.81 1133.82,-74.43 1133.82,-74.43 1133.82,-74.43 1137.51,-77.81 1136.86,-71.12 1141.19,-81.2 1141.19,-81.2"/>
<text text-anchor="middle" x="1111.2" y="-72.2" font-family="Times New Roman,serif" font-size="14.00">6</text>
</g>
<!-- N&#45;&gt;O -->
<g id="edge142" class="edge">
<title>N&#45;&gt;O</title>
<path fill="none" stroke="black" d="M1075.05,-99.75C1079.27,-83.01 1088.32,-58.75 1106.7,-47.4 1120.62,-38.79 1133.17,-53.33 1141.94,-69.06"/>
<polygon fill="black" stroke="black" points="1146.65,-78.29 1138.1,-71.43 1144.38,-73.83 1142.11,-69.38 1142.11,-69.38 1142.11,-69.38 1144.38,-73.83 1146.11,-67.34 1146.65,-78.29 1146.65,-78.29"/>
<text text-anchor="middle" x="1111.2" y="-51.2" font-family="Times New Roman,serif" font-size="14.00">7</text>
</g>
<!-- N&#45;&gt;O -->
<g id="edge143" class="edge">
<title>N&#45;&gt;O</title>
<path fill="none" stroke="black" d="M1072.82,-99.38C1075.24,-77.88 1082.84,-42.78 1106.7,-26.4 1125.83,-13.26 1139.35,-42.2 1147.07,-67.22"/>
<polygon fill="black" stroke="black" points="1149.83,-76.86 1142.75,-68.49 1148.45,-72.06 1147.08,-67.25 1147.08,-67.25 1147.08,-67.25 1148.45,-72.06 1151.4,-66.01 1149.83,-76.86 1149.83,-76.86"/>
<text text-anchor="middle" x="1111.2" y="-30.2" font-family="Times New Roman,serif" font-size="14.00">8</text>
</g>
<!-- N&#45;&gt;O -->
<g id="edge144" class="edge">
<title>N&#45;&gt;O</title>
<path fill="none" stroke="black" d="M1071.25,-99.23C1071.73,-73.29 1076.94,-26.33 1106.7,-4.4 1131.56,13.93 1144.49,-32.63 1150.42,-66.58"/>
<polygon fill="black" stroke="black" points="1152.05,-76.62 1146.01,-67.47 1151.25,-71.68 1150.45,-66.75 1150.45,-66.75 1150.45,-66.75 1151.25,-71.68 1154.89,-66.03 1152.05,-76.62 1152.05,-76.62"/>
<text text-anchor="middle" x="1111.2" y="-8.2" font-family="Times New Roman,serif" font-size="14.00">9</text>
</g>
<!-- F&#45;&gt;L -->
<g id="edge57" class="edge">
<title>F&#45;&gt;L</title>
<path fill="none" stroke="black" d="M506.45,-683.47C506.15,-719.28 509.44,-800.72 542,-858.4 554.23,-880.06 559.12,-895.4 584,-895.4 584,-895.4 584,-895.4 1071.7,-895.4 1095.12,-895.4 1104.08,-904.06 1115.7,-924.4 1153.74,-991.01 1155.03,-1546.98 1154.79,-1679.92"/>
<polygon fill="black" stroke="black" points="1154.77,-1690.11 1150.29,-1680.1 1154.78,-1685.11 1154.79,-1680.11 1154.79,-1680.11 1154.79,-1680.11 1154.78,-1685.11 1159.29,-1680.12 1154.77,-1690.11 1154.77,-1690.11"/>
<text text-anchor="middle" x="826" y="-899.2" font-family="Times New Roman,serif" font-size="14.00">+</text>
</g>
<!-- F&#45;&gt;L -->
<g id="edge58" class="edge">
<title>F&#45;&gt;L</title>
<path fill="none" stroke="black" d="M506.69,-683.55C506.95,-729.05 514.48,-844.4 584,-844.4 584,-844.4 584,-844.4 1071.7,-844.4 1105.85,-844.4 1104.66,-875.08 1115.7,-907.4 1141.06,-981.64 1151.99,-1546.17 1154.25,-1680.01"/>
<polygon fill="black" stroke="black" points="1154.42,-1690.25 1149.75,-1680.33 1154.33,-1685.25 1154.25,-1680.25 1154.25,-1680.25 1154.25,-1680.25 1154.33,-1685.25 1158.75,-1680.18 1154.42,-1690.25 1154.42,-1690.25"/>
<text text-anchor="middle" x="826" y="-848.2" font-family="Times New Roman,serif" font-size="14.00">0</text>
</g>
<!-- F&#45;&gt;L -->
<g id="edge62" class="edge">
<title>F&#45;&gt;L</title>
<path fill="none" stroke="black" d="M509.33,-683.19C515.04,-718.37 533.17,-793.4 584,-793.4 584,-793.4 584,-793.4 1071.7,-793.4 1111.89,-793.4 1104.69,-833.74 1115.7,-872.4 1138.19,-951.4 1151.38,-1543.11 1154.15,-1680.13"/>
<polygon fill="black" stroke="black" points="1154.35,-1690.24 1149.65,-1680.33 1154.25,-1685.24 1154.15,-1680.24 1154.15,-1680.24 1154.15,-1680.24 1154.25,-1685.24 1158.65,-1680.15 1154.35,-1690.24 1154.35,-1690.24"/>
<text text-anchor="middle" x="826" y="-797.2" font-family="Times New Roman,serif" font-size="14.00">4</text>
</g>
<!-- F&#45;&gt;L -->
<g id="edge63" class="edge">
<title>F&#45;&gt;L</title>
<path fill="none" stroke="black" d="M514.33,-681.73C525.73,-704.33 549.97,-742.4 584,-742.4 584,-742.4 584,-742.4 1071.7,-742.4 1113.06,-742.4 1104.73,-784.52 1115.7,-824.4 1138.81,-908.49 1151.61,-1538.97 1154.2,-1680.33"/>
<polygon fill="black" stroke="black" points="1154.38,-1690.36 1149.7,-1680.45 1154.29,-1685.36 1154.2,-1680.36 1154.2,-1680.36 1154.2,-1680.36 1154.29,-1685.36 1158.7,-1680.28 1154.38,-1690.36 1154.38,-1690.36"/>
<text text-anchor="middle" x="826" y="-746.2" font-family="Times New Roman,serif" font-size="14.00">5</text>
</g>
<!-- F&#45;&gt;L -->
<g id="edge65" class="edge">
<title>F&#45;&gt;L</title>
<path fill="none" stroke="black" d="M522.12,-673.77C537.3,-681.37 561.57,-691.4 584,-691.4 584,-691.4 584,-691.4 1071.7,-691.4 1112.67,-691.4 1104.78,-732.91 1115.7,-772.4 1140.37,-861.67 1152.01,-1533.21 1154.28,-1680.07"/>
<polygon fill="black" stroke="black" points="1154.43,-1690.1 1149.78,-1680.17 1154.36,-1685.1 1154.28,-1680.1 1154.28,-1680.1 1154.28,-1680.1 1154.36,-1685.1 1158.78,-1680.03 1154.43,-1690.1 1154.43,-1690.1"/>
<text text-anchor="middle" x="826" y="-695.2" font-family="Times New Roman,serif" font-size="14.00">7</text>
</g>
<!-- F&#45;&gt;L -->
<g id="edge66" class="edge">
<title>F&#45;&gt;L</title>
<path fill="none" stroke="black" d="M522.16,-657.35C537.36,-650.04 561.65,-640.4 584,-640.4 584,-640.4 584,-640.4 1071.7,-640.4 1112.67,-640.4 1104.83,-681.9 1115.7,-721.4 1141.69,-815.86 1152.36,-1528.22 1154.34,-1680.01"/>
<polygon fill="black" stroke="black" points="1154.48,-1690.33 1149.85,-1680.39 1154.41,-1685.33 1154.35,-1680.33 1154.35,-1680.33 1154.35,-1680.33 1154.41,-1685.33 1158.85,-1680.27 1154.48,-1690.33 1154.48,-1690.33"/>
<text text-anchor="middle" x="826" y="-644.2" font-family="Times New Roman,serif" font-size="14.00">8</text>
</g>
<!-- F&#45;&gt;L -->
<g id="edge67" class="edge">
<title>F&#45;&gt;L</title>
<path fill="none" stroke="black" d="M514.39,-649.28C525.86,-626.97 550.19,-589.4 584,-589.4 584,-589.4 584,-589.4 1071.7,-589.4 1112.67,-589.4 1104.86,-630.89 1115.7,-670.4 1143.02,-770.07 1152.68,-1523.62 1154.4,-1680.03"/>
<polygon fill="black" stroke="black" points="1154.51,-1690.24 1149.91,-1680.29 1154.46,-1685.24 1154.41,-1680.24 1154.41,-1680.24 1154.41,-1680.24 1154.46,-1685.24 1158.91,-1680.19 1154.51,-1690.24 1154.51,-1690.24"/>
<text text-anchor="middle" x="826" y="-593.2" font-family="Times New Roman,serif" font-size="14.00">9</text>
</g>
<!-- G -->
<g id="node10" class="node">
<title>G</title>
<ellipse fill="none" stroke="black" cx="585" cy="-437.4" rx="18" ry="18"/>
<text text-anchor="middle" x="585" y="-433.7" font-family="Times New Roman,serif" font-size="14.00">G</text>
</g>
<!-- F&#45;&gt;G -->
<g id="edge59" class="edge">
<title>F&#45;&gt;G</title>
<path fill="none" stroke="black" d="M512.66,-648.29C519.55,-627.5 531.56,-591.35 542,-560.4 553.29,-526.95 566.46,-488.45 575.01,-463.56"/>
<polygon fill="black" stroke="black" points="578.25,-454.1 579.26,-465.01 576.63,-458.82 575.01,-463.55 575.01,-463.55 575.01,-463.55 576.63,-458.82 570.75,-462.09 578.25,-454.1 578.25,-454.1"/>
<text text-anchor="middle" x="545.5" y="-564.2" font-family="Times New Roman,serif" font-size="14.00">1</text>
</g>
<!-- F&#45;&gt;G -->
<g id="edge60" class="edge">
<title>F&#45;&gt;G</title>
<path fill="none" stroke="black" d="M509.97,-647.73C514.88,-620.2 525.81,-565.61 542,-521.4 549.64,-500.54 561.05,-478.08 570.04,-461.65"/>
<polygon fill="black" stroke="black" points="575.02,-452.72 574.08,-463.64 572.58,-457.09 570.15,-461.45 570.15,-461.45 570.15,-461.45 572.58,-457.09 566.22,-459.26 575.02,-452.72 575.02,-452.72"/>
<text text-anchor="middle" x="545.5" y="-525.2" font-family="Times New Roman,serif" font-size="14.00">2</text>
</g>
<!-- F&#45;&gt;G -->
<g id="edge61" class="edge">
<title>F&#45;&gt;G</title>
<path fill="none" stroke="black" d="M507.51,-647.43C509.1,-614.06 515.58,-540.98 542,-486.4 547.38,-475.28 555.92,-464.65 563.89,-456.15"/>
<polygon fill="black" stroke="black" points="570.95,-448.99 567.14,-459.27 567.44,-452.55 563.93,-456.11 563.93,-456.11 563.93,-456.11 567.44,-452.55 560.73,-452.95 570.95,-448.99 570.95,-448.99"/>
<text text-anchor="middle" x="545.5" y="-490.2" font-family="Times New Roman,serif" font-size="14.00">3</text>
</g>
<!-- F&#45;&gt;G -->
<g id="edge64" class="edge">
<title>F&#45;&gt;G</title>
<path fill="none" stroke="black" d="M507.92,-647.49C510.55,-602.71 519.39,-487.36 542,-457.4 546.02,-452.07 551.83,-448.09 557.85,-445.16"/>
<polygon fill="black" stroke="black" points="567.25,-441.35 559.67,-449.27 562.62,-443.22 557.98,-445.1 557.98,-445.1 557.98,-445.1 562.62,-443.22 556.29,-440.93 567.25,-441.35 567.25,-441.35"/>
<text text-anchor="middle" x="545.5" y="-461.2" font-family="Times New Roman,serif" font-size="14.00">6</text>
</g>
<!-- B -->
<g id="node9" class="node">
<title>B</title>
<ellipse fill="none" stroke="black" cx="190" cy="-2445.4" rx="18" ry="18"/>
<text text-anchor="middle" x="190" y="-2441.7" font-family="Times New Roman,serif" font-size="14.00">B</text>
</g>
<!-- B&#45;&gt;L -->
<g id="edge13" class="edge">
<title>B&#45;&gt;L</title>
<path fill="none" stroke="black" d="M190.45,-2463.47C190.15,-2499.28 193.44,-2580.72 226,-2638.4 238.23,-2660.06 243.12,-2675.4 268,-2675.4 268,-2675.4 268,-2675.4 1071.7,-2675.4 1097.25,-2675.4 1104.43,-2661.33 1115.7,-2638.4 1156.29,-2555.8 1155.52,-1883.81 1154.86,-1736.76"/>
<polygon fill="black" stroke="black" points="1154.81,-1726.72 1159.36,-1736.7 1154.83,-1731.72 1154.86,-1736.72 1154.86,-1736.72 1154.86,-1736.72 1154.83,-1731.72 1150.36,-1736.75 1154.81,-1726.72 1154.81,-1726.72"/>
<text text-anchor="middle" x="664" y="-2679.2" font-family="Times New Roman,serif" font-size="14.00">+</text>
</g>
<!-- B&#45;&gt;L -->
<g id="edge14" class="edge">
<title>B&#45;&gt;L</title>
<path fill="none" stroke="black" d="M190.69,-2463.55C190.95,-2509.05 198.48,-2624.4 268,-2624.4 268,-2624.4 268,-2624.4 1071.7,-2624.4 1097.25,-2624.4 1104.4,-2610.31 1115.7,-2587.4 1154.04,-2509.61 1155.05,-1878.18 1154.78,-1736.53"/>
<polygon fill="black" stroke="black" points="1154.76,-1726.47 1159.28,-1736.46 1154.77,-1731.47 1154.78,-1736.47 1154.78,-1736.47 1154.78,-1736.47 1154.77,-1731.47 1150.28,-1736.48 1154.76,-1726.47 1154.76,-1726.47"/>
<text text-anchor="middle" x="664" y="-2628.2" font-family="Times New Roman,serif" font-size="14.00">0</text>
</g>
<!-- B&#45;&gt;L -->
<g id="edge15" class="edge">
<title>B&#45;&gt;L</title>
<path fill="none" stroke="black" d="M193.33,-2463.19C199.04,-2498.37 217.17,-2573.4 268,-2573.4 268,-2573.4 268,-2573.4 1071.7,-2573.4 1097.25,-2573.4 1104.37,-2559.3 1115.7,-2536.4 1151.77,-2463.48 1154.54,-1873.35 1154.7,-1736.61"/>
<polygon fill="black" stroke="black" points="1154.71,-1726.52 1159.2,-1736.52 1154.7,-1731.52 1154.7,-1736.52 1154.7,-1736.52 1154.7,-1736.52 1154.7,-1731.52 1150.2,-1736.52 1154.71,-1726.52 1154.71,-1726.52"/>
<text text-anchor="middle" x="664" y="-2577.2" font-family="Times New Roman,serif" font-size="14.00">1</text>
</g>
<!-- B&#45;&gt;L -->
<g id="edge16" class="edge">
<title>B&#45;&gt;L</title>
<path fill="none" stroke="black" d="M198.33,-2461.73C209.73,-2484.33 233.97,-2522.4 268,-2522.4 268,-2522.4 268,-2522.4 1071.7,-2522.4 1097.25,-2522.4 1104.33,-2508.28 1115.7,-2485.4 1149.51,-2417.3 1154.01,-1867.87 1154.61,-1736.53"/>
<polygon fill="black" stroke="black" points="1154.65,-1726.46 1159.11,-1736.48 1154.63,-1731.46 1154.61,-1736.46 1154.61,-1736.46 1154.61,-1736.46 1154.63,-1731.46 1150.11,-1736.44 1154.65,-1726.46 1154.65,-1726.46"/>
<text text-anchor="middle" x="664" y="-2526.2" font-family="Times New Roman,serif" font-size="14.00">2</text>
</g>
<!-- B&#45;&gt;L -->
<g id="edge18" class="edge">
<title>B&#45;&gt;L</title>
<path fill="none" stroke="black" d="M206.12,-2453.77C221.3,-2461.37 245.57,-2471.4 268,-2471.4 268,-2471.4 268,-2471.4 1071.7,-2471.4 1097.25,-2471.4 1104.29,-2457.26 1115.7,-2434.4 1147.24,-2371.15 1153.44,-1862.87 1154.5,-1736.67"/>
<polygon fill="black" stroke="black" points="1154.58,-1726.63 1159,-1736.67 1154.54,-1731.63 1154.5,-1736.63 1154.5,-1736.63 1154.5,-1736.63 1154.54,-1731.63 1150,-1736.6 1154.58,-1726.63 1154.58,-1726.63"/>
<text text-anchor="middle" x="664" y="-2475.2" font-family="Times New Roman,serif" font-size="14.00">4</text>
</g>
<!-- B&#45;&gt;L -->
<g id="edge19" class="edge">
<title>B&#45;&gt;L</title>
<path fill="none" stroke="black" d="M206.16,-2437.35C221.36,-2430.04 245.65,-2420.4 268,-2420.4 268,-2420.4 268,-2420.4 1071.7,-2420.4 1097.25,-2420.4 1104.25,-2406.24 1115.7,-2383.4 1144.96,-2325.01 1152.82,-1858 1154.37,-1736.96"/>
<polygon fill="black" stroke="black" points="1154.5,-1726.66 1158.88,-1736.72 1154.44,-1731.66 1154.38,-1736.66 1154.38,-1736.66 1154.38,-1736.66 1154.44,-1731.66 1149.88,-1736.61 1154.5,-1726.66 1154.5,-1726.66"/>
<text text-anchor="middle" x="664" y="-2424.2" font-family="Times New Roman,serif" font-size="14.00">5</text>
</g>
<!-- B&#45;&gt;L -->
<g id="edge20" class="edge">
<title>B&#45;&gt;L</title>
<path fill="none" stroke="black" d="M198.39,-2429.28C209.86,-2406.97 234.19,-2369.4 268,-2369.4 268,-2369.4 268,-2369.4 1071.7,-2369.4 1097.25,-2369.4 1104.19,-2355.21 1115.7,-2332.4 1142.74,-2278.76 1152.18,-1851.33 1154.23,-1736.64"/>
<polygon fill="black" stroke="black" points="1154.41,-1726.54 1158.73,-1736.61 1154.32,-1731.53 1154.23,-1736.53 1154.23,-1736.53 1154.23,-1736.53 1154.32,-1731.53 1149.74,-1736.45 1154.41,-1726.54 1154.41,-1726.54"/>
<text text-anchor="middle" x="664" y="-2373.2" font-family="Times New Roman,serif" font-size="14.00">6</text>
</g>
<!-- B&#45;&gt;L -->
<g id="edge21" class="edge">
<title>B&#45;&gt;L</title>
<path fill="none" stroke="black" d="M193.42,-2427.47C199.27,-2392.46 217.59,-2318.4 268,-2318.4 268,-2318.4 268,-2318.4 1071.7,-2318.4 1097.25,-2318.4 1104.13,-2304.18 1115.7,-2281.4 1140.49,-2232.56 1151.45,-1845.51 1154.06,-1736.74"/>
<polygon fill="black" stroke="black" points="1154.3,-1726.54 1158.57,-1736.65 1154.18,-1731.54 1154.07,-1736.54 1154.07,-1736.54 1154.07,-1736.54 1154.18,-1731.54 1149.57,-1736.43 1154.3,-1726.54 1154.3,-1726.54"/>
<text text-anchor="middle" x="664" y="-2322.2" font-family="Times New Roman,serif" font-size="14.00">7</text>
</g>
<!-- B&#45;&gt;L -->
<g id="edge22" class="edge">
<title>B&#45;&gt;L</title>
<path fill="none" stroke="black" d="M190.73,-2427.35C191.08,-2382.1 198.81,-2267.4 268,-2267.4 268,-2267.4 268,-2267.4 1071.7,-2267.4 1097.25,-2267.4 1104.05,-2253.14 1115.7,-2230.4 1138.27,-2186.3 1150.68,-1838.6 1153.87,-1736.5"/>
<polygon fill="black" stroke="black" points="1154.18,-1726.34 1158.37,-1736.47 1154.03,-1731.34 1153.87,-1736.33 1153.87,-1736.33 1153.87,-1736.33 1154.03,-1731.34 1149.37,-1736.2 1154.18,-1726.34 1154.18,-1726.34"/>
<text text-anchor="middle" x="664" y="-2271.2" font-family="Times New Roman,serif" font-size="14.00">8</text>
</g>
<!-- B&#45;&gt;L -->
<g id="edge23" class="edge">
<title>B&#45;&gt;L</title>
<path fill="none" stroke="black" d="M193.1,-2427.43C199.91,-2373.44 223.54,-2216.4 268,-2216.4 268,-2216.4 268,-2216.4 1071.7,-2216.4 1101.3,-2216.4 1104.08,-2193.62 1115.7,-2166.4 1149,-2088.35 1153.88,-1823.93 1154.59,-1736.63"/>
<polygon fill="black" stroke="black" points="1154.65,-1726.43 1159.09,-1736.46 1154.62,-1731.43 1154.59,-1736.43 1154.59,-1736.43 1154.59,-1736.43 1154.62,-1731.43 1150.09,-1736.4 1154.65,-1726.43 1154.65,-1726.43"/>
<text text-anchor="middle" x="664" y="-2220.2" font-family="Times New Roman,serif" font-size="14.00">9</text>
</g>
<!-- C -->
<g id="node14" class="node">
<title>C</title>
<ellipse fill="none" stroke="black" cx="269" cy="-1999.4" rx="18" ry="18"/>
<text text-anchor="middle" x="269" y="-1995.7" font-family="Times New Roman,serif" font-size="14.00">C</text>
</g>
<!-- B&#45;&gt;C -->
<g id="edge17" class="edge">
<title>B&#45;&gt;C</title>
<path fill="none" stroke="black" d="M192.9,-2427.49C197.48,-2385.41 209.93,-2277.05 226,-2187.4 236.34,-2129.72 252.2,-2062.93 261.18,-2026.52"/>
<polygon fill="black" stroke="black" points="263.63,-2016.66 265.58,-2027.45 262.42,-2021.52 261.22,-2026.37 261.22,-2026.37 261.22,-2026.37 262.42,-2021.52 256.85,-2025.28 263.63,-2016.66 263.63,-2016.66"/>
<text text-anchor="middle" x="229.5" y="-2191.2" font-family="Times New Roman,serif" font-size="14.00">3</text>
</g>
<!-- G&#45;&gt;L -->
<g id="edge68" class="edge">
<title>G&#45;&gt;L</title>
<path fill="none" stroke="black" d="M590.1,-454.9C598.3,-485.01 619.78,-543.4 663,-543.4 663,-543.4 663,-543.4 786.5,-543.4 857.68,-543.4 875.32,-550.4 946.5,-550.4 946.5,-550.4 946.5,-550.4 1071.7,-550.4 1094.19,-550.4 1104.05,-556.15 1115.7,-575.4 1145.14,-624.05 1153.21,-1508.74 1154.5,-1679.87"/>
<polygon fill="black" stroke="black" points="1154.57,-1690.09 1150,-1680.13 1154.54,-1685.09 1154.5,-1680.1 1154.5,-1680.1 1154.5,-1680.1 1154.54,-1685.09 1159,-1680.06 1154.57,-1690.09 1154.57,-1690.09"/>
<text text-anchor="middle" x="866.5" y="-551.2" font-family="Times New Roman,serif" font-size="14.00">+</text>
</g>
<!-- H -->
<g id="node12" class="node">
<title>H</title>
<ellipse fill="none" stroke="black" cx="664" cy="-323.4" rx="18" ry="18"/>
<text text-anchor="middle" x="664" y="-319.7" font-family="Times New Roman,serif" font-size="14.00">H</text>
</g>
<!-- G&#45;&gt;H -->
<g id="edge69" class="edge">
<title>G&#45;&gt;H</title>
<path fill="none" stroke="black" d="M591.23,-454.48C598.33,-474.8 611.97,-504.43 628,-491.4 649.31,-474.07 658.08,-394.56 661.32,-351.42"/>
<polygon fill="black" stroke="black" points="662.03,-341.3 665.82,-351.59 661.68,-346.29 661.33,-351.27 661.33,-351.27 661.33,-351.27 661.68,-346.29 656.84,-350.96 662.03,-341.3 662.03,-341.3"/>
<text text-anchor="middle" x="624.5" y="-499.2" font-family="Times New Roman,serif" font-size="14.00">0</text>
</g>
<!-- G&#45;&gt;H -->
<g id="edge70" class="edge">
<title>G&#45;&gt;H</title>
<path fill="none" stroke="black" d="M599.1,-448.64C607.92,-454.79 619.45,-459.95 628,-453.4 644.14,-441.03 654.51,-385.42 659.5,-351.06"/>
<polygon fill="black" stroke="black" points="660.87,-341.15 663.95,-351.67 660.18,-346.1 659.5,-351.06 659.5,-351.06 659.5,-351.06 660.18,-346.1 655.04,-350.44 660.87,-341.15 660.87,-341.15"/>
<text text-anchor="middle" x="624.5" y="-460.2" font-family="Times New Roman,serif" font-size="14.00">1</text>
</g>
<!-- G&#45;&gt;H -->
<g id="edge71" class="edge">
<title>G&#45;&gt;H</title>
<path fill="none" stroke="black" d="M602.58,-431.97C611.16,-428.43 621.22,-423.03 628,-415.4 644.06,-397.3 653.06,-371.09 657.9,-351.27"/>
<polygon fill="black" stroke="black" points="660.12,-341.28 662.34,-352.02 659.03,-346.17 657.95,-351.05 657.95,-351.05 657.95,-351.05 659.03,-346.17 653.55,-350.07 660.12,-341.28 660.12,-341.28"/>
<text text-anchor="middle" x="624.5" y="-426.2" font-family="Times New Roman,serif" font-size="14.00">2</text>
</g>
<!-- G&#45;&gt;H -->
<g id="edge72" class="edge">
<title>G&#45;&gt;H</title>
<path fill="none" stroke="black" d="M596.16,-423.19C604.75,-411.1 617.34,-393.21 628,-377.4 634.72,-367.43 641.97,-356.3 648.12,-346.74"/>
<polygon fill="black" stroke="black" points="653.63,-338.16 652.02,-349 650.93,-342.37 648.23,-346.57 648.23,-346.57 648.23,-346.57 650.93,-342.37 644.45,-344.14 653.63,-338.16 653.63,-338.16"/>
<text text-anchor="middle" x="624.5" y="-391.2" font-family="Times New Roman,serif" font-size="14.00">3</text>
</g>
<!-- G&#45;&gt;H -->
<g id="edge73" class="edge">
<title>G&#45;&gt;H</title>
<path fill="none" stroke="black" d="M591.08,-420.17C596.61,-403.3 606.63,-377.43 621,-358.4 626.31,-351.37 633.29,-344.83 640.03,-339.36"/>
<polygon fill="black" stroke="black" points="648.3,-333.04 643.09,-342.69 644.32,-336.08 640.35,-339.11 640.35,-339.11 640.35,-339.11 644.32,-336.08 637.62,-335.54 648.3,-333.04 648.3,-333.04"/>
<text text-anchor="middle" x="624.5" y="-362.2" font-family="Times New Roman,serif" font-size="14.00">4</text>
</g>
<!-- G&#45;&gt;H -->
<g id="edge74" class="edge">
<title>G&#45;&gt;H</title>
<path fill="none" stroke="black" d="M586.77,-419.25C588.79,-395.66 595.94,-354.82 621,-332.4 625.06,-328.76 630.23,-326.47 635.54,-325.05"/>
<polygon fill="black" stroke="black" points="645.68,-323.27 636.61,-329.43 640.75,-324.13 635.83,-325 635.83,-325 635.83,-325 640.75,-324.13 635.05,-320.56 645.68,-323.27 645.68,-323.27"/>
<text text-anchor="middle" x="624.5" y="-336.2" font-family="Times New Roman,serif" font-size="14.00">5</text>
</g>
<!-- G&#45;&gt;H -->
<g id="edge75" class="edge">
<title>G&#45;&gt;H</title>
<path fill="none" stroke="black" d="M588.21,-419.66C592.58,-387.77 603.47,-322.78 621,-309.4 626.5,-305.2 633.33,-305.68 639.87,-308.08"/>
<polygon fill="black" stroke="black" points="649.05,-312.63 638.1,-312.22 644.57,-310.41 640.09,-308.19 640.09,-308.19 640.09,-308.19 644.57,-310.41 642.09,-304.16 649.05,-312.63 649.05,-312.63"/>
<text text-anchor="middle" x="624.5" y="-313.2" font-family="Times New Roman,serif" font-size="14.00">6</text>
</g>
<!-- G&#45;&gt;H -->
<g id="edge76" class="edge">
<title>G&#45;&gt;H</title>
<path fill="none" stroke="black" d="M587.5,-419.34C590.92,-383.32 600.59,-304.57 621,-288.4 630.27,-281.05 640.48,-289.16 648.5,-299.41"/>
<polygon fill="black" stroke="black" points="654.42,-307.84 644.99,-302.24 651.54,-303.75 648.67,-299.65 648.67,-299.65 648.67,-299.65 651.54,-303.75 652.36,-297.07 654.42,-307.84 654.42,-307.84"/>
<text text-anchor="middle" x="624.5" y="-292.2" font-family="Times New Roman,serif" font-size="14.00">7</text>
</g>
<!-- G&#45;&gt;H -->
<g id="edge77" class="edge">
<title>G&#45;&gt;H</title>
<path fill="none" stroke="black" d="M586.94,-419.28C589.42,-379.49 597.64,-286.43 621,-267.4 635.1,-255.9 647.07,-277 654.58,-296.51"/>
<polygon fill="black" stroke="black" points="658,-306.09 650.4,-298.18 656.32,-301.38 654.64,-296.67 654.64,-296.67 654.64,-296.67 656.32,-301.38 658.88,-295.16 658,-306.09 658,-306.09"/>
<text text-anchor="middle" x="624.5" y="-271.2" font-family="Times New Roman,serif" font-size="14.00">8</text>
</g>
<!-- G&#45;&gt;H -->
<g id="edge78" class="edge">
<title>G&#45;&gt;H</title>
<path fill="none" stroke="black" d="M586.49,-419.36C588.08,-376.1 594.65,-268.36 621,-246.4 640.48,-230.16 652.39,-267.64 658.34,-295.82"/>
<polygon fill="black" stroke="black" points="660.26,-305.66 653.92,-296.71 659.3,-300.75 658.34,-295.84 658.34,-295.84 658.34,-295.84 659.3,-300.75 662.76,-294.98 660.26,-305.66 660.26,-305.66"/>
<text text-anchor="middle" x="624.5" y="-250.2" font-family="Times New Roman,serif" font-size="14.00">9</text>
</g>
<!-- A&#45;&gt;L -->
<g id="edge3" class="edge">
<title>A&#45;&gt;L</title>
<path fill="none" stroke="black" d="M109.45,-2888.61C109.04,-2936.17 115.05,-3060.4 189,-3060.4 189,-3060.4 189,-3060.4 1071.7,-3060.4 1093.97,-3060.4 1104.05,-3055.38 1115.7,-3036.4 1150.85,-2979.11 1154.32,-1925.05 1154.66,-1736.98"/>
<polygon fill="black" stroke="black" points="1154.68,-1726.79 1159.16,-1736.8 1154.67,-1731.79 1154.66,-1736.79 1154.66,-1736.79 1154.66,-1736.79 1154.67,-1731.79 1150.16,-1736.78 1154.68,-1726.79 1154.68,-1726.79"/>
<text text-anchor="middle" x="624.5" y="-3064.2" font-family="Times New Roman,serif" font-size="14.00">0</text>
</g>
<!-- A&#45;&gt;L -->
<g id="edge4" class="edge">
<title>A&#45;&gt;L</title>
<path fill="none" stroke="black" d="M111.09,-2888.43C114.61,-2928.69 129.22,-3022.4 189,-3022.4 189,-3022.4 189,-3022.4 1071.7,-3022.4 1093.97,-3022.4 1104.04,-3017.38 1115.7,-2998.4 1149.83,-2942.82 1154.14,-1921.01 1154.64,-1736.75"/>
<polygon fill="black" stroke="black" points="1154.66,-1726.75 1159.13,-1736.76 1154.65,-1731.75 1154.63,-1736.75 1154.63,-1736.75 1154.63,-1736.75 1154.65,-1731.75 1150.13,-1736.73 1154.66,-1726.75 1154.66,-1726.75"/>
<text text-anchor="middle" x="624.5" y="-3026.2" font-family="Times New Roman,serif" font-size="14.00">1</text>
</g>
<!-- A&#45;&gt;L -->
<g id="edge5" class="edge">
<title>A&#45;&gt;L</title>
<path fill="none" stroke="black" d="M113.12,-2888.2C117.36,-2907.86 126.62,-2939.5 145,-2960.4 159.71,-2977.13 166.72,-2984.4 189,-2984.4 189,-2984.4 189,-2984.4 1071.7,-2984.4 1093.97,-2984.4 1104.03,-2979.37 1115.7,-2960.4 1148.8,-2906.56 1153.94,-1917.82 1154.61,-1736.75"/>
<polygon fill="black" stroke="black" points="1154.64,-1726.68 1159.11,-1736.69 1154.63,-1731.68 1154.61,-1736.68 1154.61,-1736.68 1154.61,-1736.68 1154.63,-1731.68 1150.11,-1736.66 1154.64,-1726.68 1154.64,-1726.68"/>
<text text-anchor="middle" x="624.5" y="-2988.2" font-family="Times New Roman,serif" font-size="14.00">2</text>
</g>
<!-- A&#45;&gt;L -->
<g id="edge6" class="edge">
<title>A&#45;&gt;L</title>
<path fill="none" stroke="black" d="M117.7,-2886.51C129.6,-2908.82 154.74,-2946.4 189,-2946.4 189,-2946.4 189,-2946.4 1071.7,-2946.4 1093.97,-2946.4 1104.02,-2941.37 1115.7,-2922.4 1147.77,-2870.29 1153.74,-1914.44 1154.58,-1736.71"/>
<polygon fill="black" stroke="black" points="1154.63,-1726.59 1159.08,-1736.61 1154.6,-1731.59 1154.58,-1736.59 1154.58,-1736.59 1154.58,-1736.59 1154.6,-1731.59 1150.08,-1736.57 1154.63,-1726.59 1154.63,-1726.59"/>
<text text-anchor="middle" x="624.5" y="-2950.2" font-family="Times New Roman,serif" font-size="14.00">3</text>
</g>
<!-- A&#45;&gt;L -->
<g id="edge7" class="edge">
<title>A&#45;&gt;L</title>
<path fill="none" stroke="black" d="M123.33,-2881.39C138.33,-2892.61 163.89,-2908.4 189,-2908.4 189,-2908.4 189,-2908.4 1071.7,-2908.4 1093.97,-2908.4 1104.01,-2903.36 1115.7,-2884.4 1146.75,-2834.01 1153.54,-1910.86 1154.55,-1736.63"/>
<polygon fill="black" stroke="black" points="1154.61,-1726.47 1159.05,-1736.5 1154.58,-1731.47 1154.55,-1736.47 1154.55,-1736.47 1154.55,-1736.47 1154.58,-1731.47 1150.05,-1736.45 1154.61,-1726.47 1154.61,-1726.47"/>
<text text-anchor="middle" x="624.5" y="-2912.2" font-family="Times New Roman,serif" font-size="14.00">4</text>
</g>
<!-- A&#45;&gt;L -->
<g id="edge8" class="edge">
<title>A&#45;&gt;L</title>
<path fill="none" stroke="black" d="M127.26,-2870.4C143.26,-2870.4 167.74,-2870.4 189,-2870.4 189,-2870.4 189,-2870.4 1071.7,-2870.4 1093.97,-2870.4 1104,-2865.35 1115.7,-2846.4 1145.71,-2797.76 1153.32,-1908.09 1154.52,-1736.8"/>
<polygon fill="black" stroke="black" points="1154.58,-1726.78 1159.02,-1736.81 1154.55,-1731.78 1154.52,-1736.78 1154.52,-1736.78 1154.52,-1736.78 1154.55,-1731.78 1150.02,-1736.75 1154.58,-1726.78 1154.58,-1726.78"/>
<text text-anchor="middle" x="624.5" y="-2874.2" font-family="Times New Roman,serif" font-size="14.00">5</text>
</g>
<!-- A&#45;&gt;L -->
<g id="edge9" class="edge">
<title>A&#45;&gt;L</title>
<path fill="none" stroke="black" d="M123.33,-2859.41C138.33,-2848.18 163.89,-2832.4 189,-2832.4 189,-2832.4 189,-2832.4 1071.7,-2832.4 1093.97,-2832.4 1103.99,-2827.35 1115.7,-2808.4 1144.69,-2761.47 1153.11,-1904.1 1154.48,-1736.63"/>
<polygon fill="black" stroke="black" points="1154.56,-1726.61 1158.98,-1736.65 1154.52,-1731.61 1154.48,-1736.61 1154.48,-1736.61 1154.48,-1736.61 1154.52,-1731.61 1149.98,-1736.57 1154.56,-1726.61 1154.56,-1726.61"/>
<text text-anchor="middle" x="624.5" y="-2836.2" font-family="Times New Roman,serif" font-size="14.00">6</text>
</g>
<!-- A&#45;&gt;L -->
<g id="edge10" class="edge">
<title>A&#45;&gt;L</title>
<path fill="none" stroke="black" d="M117.7,-2854.28C129.6,-2831.97 154.74,-2794.4 189,-2794.4 189,-2794.4 189,-2794.4 1071.7,-2794.4 1093.97,-2794.4 1103.98,-2789.34 1115.7,-2770.4 1143.66,-2725.2 1152.88,-1900.75 1154.44,-1736.66"/>
<polygon fill="black" stroke="black" points="1154.54,-1726.41 1158.95,-1736.45 1154.49,-1731.41 1154.45,-1736.41 1154.45,-1736.41 1154.45,-1736.41 1154.49,-1731.41 1149.95,-1736.37 1154.54,-1726.41 1154.54,-1726.41"/>
<text text-anchor="middle" x="624.5" y="-2798.2" font-family="Times New Roman,serif" font-size="14.00">7</text>
</g>
<!-- A&#45;&gt;L -->
<g id="edge11" class="edge">
<title>A&#45;&gt;L</title>
<path fill="none" stroke="black" d="M113.68,-2852.58C121.45,-2820.52 142.77,-2756.4 189,-2756.4 189,-2756.4 189,-2756.4 1071.7,-2756.4 1093.97,-2756.4 1103.96,-2751.33 1115.7,-2732.4 1142.63,-2688.93 1152.65,-1897.24 1154.4,-1736.66"/>
<polygon fill="black" stroke="black" points="1154.51,-1726.61 1158.9,-1736.66 1154.46,-1731.61 1154.4,-1736.61 1154.4,-1736.61 1154.4,-1736.61 1154.46,-1731.61 1149.91,-1736.56 1154.51,-1726.61 1154.51,-1726.61"/>
<text text-anchor="middle" x="624.5" y="-2760.2" font-family="Times New Roman,serif" font-size="14.00">8</text>
</g>
<!-- A&#45;&gt;L -->
<g id="edge12" class="edge">
<title>A&#45;&gt;L</title>
<path fill="none" stroke="black" d="M111.09,-2852.36C114.61,-2812.1 129.22,-2718.4 189,-2718.4 189,-2718.4 189,-2718.4 1071.7,-2718.4 1103.7,-2718.4 1104.75,-2691.47 1115.7,-2661.4 1147.99,-2572.69 1153.7,-1885.8 1154.56,-1736.84"/>
<polygon fill="black" stroke="black" points="1154.61,-1726.68 1159.06,-1736.71 1154.59,-1731.68 1154.56,-1736.68 1154.56,-1736.68 1154.56,-1736.68 1154.59,-1731.68 1150.06,-1736.66 1154.61,-1726.68 1154.61,-1726.68"/>
<text text-anchor="middle" x="624.5" y="-2722.2" font-family="Times New Roman,serif" font-size="14.00">9</text>
</g>
<!-- A&#45;&gt;B -->
<g id="edge2" class="edge">
<title>A&#45;&gt;B</title>
<path fill="none" stroke="black" d="M113.29,-2852.68C125.59,-2786.52 168.87,-2553.69 183.85,-2473.1"/>
<polygon fill="black" stroke="black" points="185.69,-2463.19 188.29,-2473.85 184.78,-2468.11 183.86,-2473.02 183.86,-2473.02 183.86,-2473.02 184.78,-2468.11 179.44,-2472.2 185.69,-2463.19 185.69,-2463.19"/>
<text text-anchor="middle" x="149.5" y="-2675.2" font-family="Times New Roman,serif" font-size="14.00">+</text>
</g>
<!-- H&#45;&gt;L -->
<g id="edge79" class="edge">
<title>H&#45;&gt;L</title>
<path fill="none" stroke="black" d="M666.53,-341.28C670.03,-377.86 679.95,-459.3 700,-477.4 781.93,-551.34 836.14,-507.4 946.5,-507.4 946.5,-507.4 946.5,-507.4 1071.7,-507.4 1095.12,-507.4 1104.25,-515.96 1115.7,-536.4 1144.53,-587.86 1153.12,-1506.85 1154.49,-1680.29"/>
<polygon fill="black" stroke="black" points="1154.57,-1690.4 1149.99,-1680.44 1154.53,-1685.4 1154.49,-1680.4 1154.49,-1680.4 1154.49,-1680.4 1154.53,-1685.4 1158.99,-1680.37 1154.57,-1690.4 1154.57,-1690.4"/>
<text text-anchor="middle" x="907" y="-515.2" font-family="Times New Roman,serif" font-size="14.00">+</text>
</g>
<!-- H&#45;&gt;I -->
<g id="edge80" class="edge">
<title>H&#45;&gt;I</title>
<path fill="none" stroke="black" d="M665.05,-341.42C665.77,-383.8 671.38,-483.99 709,-453.4 730.31,-436.07 739.08,-356.56 742.32,-313.42"/>
<polygon fill="black" stroke="black" points="743.03,-303.3 746.82,-313.59 742.68,-308.29 742.33,-313.27 742.33,-313.27 742.33,-313.27 742.68,-308.29 737.84,-312.96 743.03,-303.3 743.03,-303.3"/>
<text text-anchor="middle" x="704.5" y="-462.2" font-family="Times New Roman,serif" font-size="14.00">0</text>
</g>
<!-- H&#45;&gt;I -->
<g id="edge81" class="edge">
<title>H&#45;&gt;I</title>
<path fill="none" stroke="black" d="M666.82,-341.65C670.76,-373.99 682.02,-436.07 709,-415.4 725.14,-403.03 735.51,-347.42 740.5,-313.06"/>
<polygon fill="black" stroke="black" points="741.87,-303.15 744.95,-313.67 741.18,-308.1 740.5,-313.06 740.5,-313.06 740.5,-313.06 741.18,-308.1 736.04,-312.44 741.87,-303.15 741.87,-303.15"/>
<text text-anchor="middle" x="704.5" y="-423.2" font-family="Times New Roman,serif" font-size="14.00">1</text>
</g>
<!-- H&#45;&gt;I -->
<g id="edge82" class="edge">
<title>H&#45;&gt;I</title>
<path fill="none" stroke="black" d="M670.44,-340.49C677.74,-360.44 691.78,-389.27 709,-377.4 729.58,-363.21 738.07,-335.19 741.56,-313.79"/>
<polygon fill="black" stroke="black" points="742.94,-303.6 746.06,-314.12 742.27,-308.56 741.6,-313.51 741.6,-313.51 741.6,-313.51 742.27,-308.56 737.14,-312.91 742.94,-303.6 742.94,-303.6"/>
<text text-anchor="middle" x="704.5" y="-384.2" font-family="Times New Roman,serif" font-size="14.00">2</text>
</g>
<!-- H&#45;&gt;I -->
<g id="edge83" class="edge">
<title>H&#45;&gt;I</title>
<path fill="none" stroke="black" d="M678.54,-334.13C687.48,-339.83 699.29,-344.68 709,-339.4 720.16,-333.33 728.31,-322 733.92,-311.28"/>
<polygon fill="black" stroke="black" points="738.22,-302.16 738.03,-313.13 736.09,-306.69 733.96,-311.21 733.96,-311.21 733.96,-311.21 736.09,-306.69 729.89,-309.3 738.22,-302.16 738.22,-302.16"/>
<text text-anchor="middle" x="704.5" y="-346.2" font-family="Times New Roman,serif" font-size="14.00">3</text>
</g>
<!-- H&#45;&gt;I -->
<g id="edge84" class="edge">
<title>H&#45;&gt;I</title>
<path fill="none" stroke="black" d="M680.61,-315.89C691.64,-310.58 706.67,-303.35 719.32,-297.27"/>
<polygon fill="black" stroke="black" points="728.42,-292.89 721.36,-301.28 723.92,-295.06 719.41,-297.22 719.41,-297.22 719.41,-297.22 723.92,-295.06 717.46,-293.17 728.42,-292.89 728.42,-292.89"/>
<text text-anchor="middle" x="704.5" y="-310.2" font-family="Times New Roman,serif" font-size="14.00">4</text>
</g>
<!-- H&#45;&gt;I -->
<g id="edge85" class="edge">
<title>H&#45;&gt;I</title>
<path fill="none" stroke="black" d="M673.96,-308.25C680.07,-299.51 689.03,-289.29 700,-284.4 705.23,-282.06 711.18,-281.18 716.97,-281.1"/>
<polygon fill="black" stroke="black" points="727.03,-281.69 716.79,-285.6 722.04,-281.4 717.05,-281.11 717.05,-281.11 717.05,-281.11 722.04,-281.4 717.31,-276.61 727.03,-281.69 727.03,-281.69"/>
<text text-anchor="middle" x="704.5" y="-288.2" font-family="Times New Roman,serif" font-size="14.00">5</text>
</g>
<!-- H&#45;&gt;I -->
<g id="edge86" class="edge">
<title>H&#45;&gt;I</title>
<path fill="none" stroke="black" d="M669.77,-306.26C674.75,-291.97 684.11,-272.53 700,-263.4 707.56,-259.06 716.08,-261.67 723.6,-266.39"/>
<polygon fill="black" stroke="black" points="731.85,-272.6 721.16,-270.18 727.86,-269.59 723.86,-266.59 723.86,-266.59 723.86,-266.59 727.86,-269.59 726.57,-262.99 731.85,-272.6 731.85,-272.6"/>
<text text-anchor="middle" x="704.5" y="-267.2" font-family="Times New Roman,serif" font-size="14.00">6</text>
</g>
<!-- H&#45;&gt;I -->
<g id="edge87" class="edge">
<title>H&#45;&gt;I</title>
<path fill="none" stroke="black" d="M667.06,-305.58C670.34,-286.28 678.75,-256.36 700,-242.4 712.08,-234.46 723.69,-246.93 731.94,-260.46"/>
<polygon fill="black" stroke="black" points="736.86,-269.29 728.06,-262.74 734.43,-264.92 732,-260.55 732,-260.55 732,-260.55 734.43,-264.92 735.93,-258.36 736.86,-269.29 736.86,-269.29"/>
<text text-anchor="middle" x="704.5" y="-246.2" font-family="Times New Roman,serif" font-size="14.00">7</text>
</g>
<!-- H&#45;&gt;I -->
<g id="edge88" class="edge">
<title>H&#45;&gt;I</title>
<path fill="none" stroke="black" d="M665.26,-305.35C666.7,-281.58 673.18,-240.55 700,-221.4 717.21,-209.11 729.84,-235.88 737.05,-258.48"/>
<polygon fill="black" stroke="black" points="739.89,-268.09 732.74,-259.78 738.47,-263.3 737.06,-258.5 737.06,-258.5 737.06,-258.5 738.47,-263.3 741.37,-257.23 739.89,-268.09 739.89,-268.09"/>
<text text-anchor="middle" x="704.5" y="-225.2" font-family="Times New Roman,serif" font-size="14.00">8</text>
</g>
<!-- H&#45;&gt;I -->
<g id="edge89" class="edge">
<title>H&#45;&gt;I</title>
<path fill="none" stroke="black" d="M667.4,-305.48C671.98,-274.31 683.06,-212.22 700,-199.4 722.83,-182.12 734.78,-226.12 740.2,-257.36"/>
<polygon fill="black" stroke="black" points="741.8,-267.36 735.78,-258.2 741.01,-262.42 740.22,-257.49 740.22,-257.49 740.22,-257.49 741.01,-262.42 744.67,-256.78 741.8,-267.36 741.8,-267.36"/>
<text text-anchor="middle" x="704.5" y="-203.2" font-family="Times New Roman,serif" font-size="14.00">9</text>
</g>
<!-- J&#45;&gt;L -->
<g id="edge101" class="edge">
<title>J&#45;&gt;L</title>
<path fill="none" stroke="black" d="M826.74,-259.51C827.13,-305.55 835.04,-423.4 906,-423.4 906,-423.4 906,-423.4 1071.7,-423.4 1095.12,-423.4 1104.27,-431.95 1115.7,-452.4 1146.62,-507.75 1153.54,-1498.55 1154.55,-1679.99"/>
<polygon fill="black" stroke="black" points="1154.61,-1690.08 1150.05,-1680.1 1154.58,-1685.08 1154.55,-1680.08 1154.55,-1680.08 1154.55,-1680.08 1154.58,-1685.08 1159.05,-1680.06 1154.61,-1690.08 1154.61,-1690.08"/>
<text text-anchor="middle" x="988.85" y="-427.2" font-family="Times New Roman,serif" font-size="14.00">+</text>
</g>
<!-- J&#45;&gt;K -->
<g id="edge102" class="edge">
<title>J&#45;&gt;K</title>
<path fill="none" stroke="black" d="M827.05,-259.42C827.77,-301.8 833.38,-401.99 871,-371.4 892.31,-354.07 901.08,-274.56 904.32,-231.42"/>
<polygon fill="black" stroke="black" points="905.03,-221.3 908.82,-231.59 904.68,-226.29 904.33,-231.27 904.33,-231.27 904.33,-231.27 904.68,-226.29 899.84,-230.96 905.03,-221.3 905.03,-221.3"/>
<text text-anchor="middle" x="866.5" y="-380.2" font-family="Times New Roman,serif" font-size="14.00">0</text>
</g>
<!-- J&#45;&gt;K -->
<g id="edge103" class="edge">
<title>J&#45;&gt;K</title>
<path fill="none" stroke="black" d="M828.82,-259.65C832.76,-291.99 844.02,-354.07 871,-333.4 887.14,-321.03 897.51,-265.42 902.5,-231.06"/>
<polygon fill="black" stroke="black" points="903.87,-221.15 906.95,-231.67 903.18,-226.1 902.5,-231.06 902.5,-231.06 902.5,-231.06 903.18,-226.1 898.04,-230.44 903.87,-221.15 903.87,-221.15"/>
<text text-anchor="middle" x="866.5" y="-341.2" font-family="Times New Roman,serif" font-size="14.00">1</text>
</g>
<!-- J&#45;&gt;K -->
<g id="edge104" class="edge">
<title>J&#45;&gt;K</title>
<path fill="none" stroke="black" d="M832.44,-258.49C839.74,-278.44 853.78,-307.27 871,-295.4 891.58,-281.21 900.07,-253.19 903.56,-231.79"/>
<polygon fill="black" stroke="black" points="904.94,-221.6 908.06,-232.12 904.27,-226.56 903.6,-231.51 903.6,-231.51 903.6,-231.51 904.27,-226.56 899.14,-230.91 904.94,-221.6 904.94,-221.6"/>
<text text-anchor="middle" x="866.5" y="-302.2" font-family="Times New Roman,serif" font-size="14.00">2</text>
</g>
<!-- J&#45;&gt;K -->
<g id="edge105" class="edge">
<title>J&#45;&gt;K</title>
<path fill="none" stroke="black" d="M840.54,-252.13C849.48,-257.83 861.29,-262.68 871,-257.4 882.16,-251.33 890.31,-240 895.92,-229.28"/>
<polygon fill="black" stroke="black" points="900.22,-220.16 900.03,-231.13 898.09,-224.69 895.96,-229.21 895.96,-229.21 895.96,-229.21 898.09,-224.69 891.89,-227.3 900.22,-220.16 900.22,-220.16"/>
<text text-anchor="middle" x="866.5" y="-264.2" font-family="Times New Roman,serif" font-size="14.00">3</text>
</g>
<!-- J&#45;&gt;K -->
<g id="edge106" class="edge">
<title>J&#45;&gt;K</title>
<path fill="none" stroke="black" d="M842.61,-233.89C853.64,-228.58 868.67,-221.35 881.32,-215.27"/>
<polygon fill="black" stroke="black" points="890.42,-210.89 883.36,-219.28 885.92,-213.06 881.41,-215.22 881.41,-215.22 881.41,-215.22 885.92,-213.06 879.46,-211.17 890.42,-210.89 890.42,-210.89"/>
<text text-anchor="middle" x="866.5" y="-228.2" font-family="Times New Roman,serif" font-size="14.00">4</text>
</g>
<!-- J&#45;&gt;K -->
<g id="edge107" class="edge">
<title>J&#45;&gt;K</title>
<path fill="none" stroke="black" d="M835.96,-226.25C842.07,-217.51 851.03,-207.29 862,-202.4 867.23,-200.06 873.18,-199.18 878.97,-199.1"/>
<polygon fill="black" stroke="black" points="889.03,-199.69 878.79,-203.6 884.04,-199.4 879.05,-199.11 879.05,-199.11 879.05,-199.11 884.04,-199.4 879.31,-194.61 889.03,-199.69 889.03,-199.69"/>
<text text-anchor="middle" x="866.5" y="-206.2" font-family="Times New Roman,serif" font-size="14.00">5</text>
</g>
<!-- J&#45;&gt;K -->
<g id="edge108" class="edge">
<title>J&#45;&gt;K</title>
<path fill="none" stroke="black" d="M831.77,-224.26C836.75,-209.97 846.11,-190.53 862,-181.4 869.56,-177.06 878.08,-179.67 885.6,-184.39"/>
<polygon fill="black" stroke="black" points="893.85,-190.6 883.16,-188.18 889.86,-187.59 885.86,-184.59 885.86,-184.59 885.86,-184.59 889.86,-187.59 888.57,-180.99 893.85,-190.6 893.85,-190.6"/>
<text text-anchor="middle" x="866.5" y="-185.2" font-family="Times New Roman,serif" font-size="14.00">6</text>
</g>
<!-- J&#45;&gt;K -->
<g id="edge109" class="edge">
<title>J&#45;&gt;K</title>
<path fill="none" stroke="black" d="M829.06,-223.58C832.34,-204.28 840.75,-174.36 862,-160.4 874.08,-152.46 885.69,-164.93 893.94,-178.46"/>
<polygon fill="black" stroke="black" points="898.86,-187.29 890.06,-180.74 896.43,-182.92 894,-178.55 894,-178.55 894,-178.55 896.43,-182.92 897.93,-176.36 898.86,-187.29 898.86,-187.29"/>
<text text-anchor="middle" x="866.5" y="-164.2" font-family="Times New Roman,serif" font-size="14.00">7</text>
</g>
<!-- J&#45;&gt;K -->
<g id="edge110" class="edge">
<title>J&#45;&gt;K</title>
<path fill="none" stroke="black" d="M827.26,-223.35C828.7,-199.58 835.18,-158.55 862,-139.4 879.21,-127.11 891.84,-153.88 899.05,-176.48"/>
<polygon fill="black" stroke="black" points="901.89,-186.09 894.74,-177.78 900.47,-181.3 899.06,-176.5 899.06,-176.5 899.06,-176.5 900.47,-181.3 903.37,-175.23 901.89,-186.09 901.89,-186.09"/>
<text text-anchor="middle" x="866.5" y="-143.2" font-family="Times New Roman,serif" font-size="14.00">8</text>
</g>
<!-- J&#45;&gt;K -->
<g id="edge111" class="edge">
<title>J&#45;&gt;K</title>
<path fill="none" stroke="black" d="M829.4,-223.48C833.98,-192.31 845.06,-130.22 862,-117.4 884.83,-100.12 896.78,-144.12 902.2,-175.36"/>
<polygon fill="black" stroke="black" points="903.8,-185.36 897.78,-176.2 903.01,-180.42 902.22,-175.49 902.22,-175.49 902.22,-175.49 903.01,-180.42 906.67,-174.78 903.8,-185.36 903.8,-185.36"/>
<text text-anchor="middle" x="866.5" y="-121.2" font-family="Times New Roman,serif" font-size="14.00">9</text>
</g>
<!-- C&#45;&gt;L -->
<g id="edge24" class="edge">
<title>C&#45;&gt;L</title>
<path fill="none" stroke="black" d="M270.01,-2017.37C271.08,-2061.28 280.42,-2170.4 347,-2170.4 347,-2170.4 347,-2170.4 1071.7,-2170.4 1093.97,-2170.4 1103.49,-2165.03 1115.7,-2146.4 1138.11,-2112.19 1150.33,-1828.35 1153.71,-1736.77"/>
<polygon fill="black" stroke="black" points="1154.08,-1726.58 1158.22,-1736.74 1153.9,-1731.58 1153.72,-1736.57 1153.72,-1736.57 1153.72,-1736.57 1153.9,-1731.58 1149.22,-1736.41 1154.08,-1726.58 1154.08,-1726.58"/>
<text text-anchor="middle" x="704.5" y="-2174.2" font-family="Times New Roman,serif" font-size="14.00">+</text>
</g>
<!-- C&#45;&gt;L -->
<g id="edge25" class="edge">
<title>C&#45;&gt;L</title>
<path fill="none" stroke="black" d="M272.01,-2017.33C277.17,-2053.64 294.44,-2132.4 347,-2132.4 347,-2132.4 347,-2132.4 1071.7,-2132.4 1093.97,-2132.4 1103.41,-2126.98 1115.7,-2108.4 1156.04,-2047.39 1156.46,-1818.06 1155.29,-1737"/>
<polygon fill="black" stroke="black" points="1155.12,-1726.58 1159.78,-1736.5 1155.2,-1731.58 1155.29,-1736.58 1155.29,-1736.58 1155.29,-1736.58 1155.2,-1731.58 1150.79,-1736.65 1155.12,-1726.58 1155.12,-1726.58"/>
<text text-anchor="middle" x="704.5" y="-2136.2" font-family="Times New Roman,serif" font-size="14.00">0</text>
</g>
<!-- C&#45;&gt;L -->
<g id="edge26" class="edge">
<title>C&#45;&gt;L</title>
<path fill="none" stroke="black" d="M275.11,-2016.38C284.51,-2043.71 307.3,-2094.4 347,-2094.4 347,-2094.4 347,-2094.4 1071.7,-2094.4 1093.97,-2094.4 1103.31,-2088.91 1115.7,-2070.4 1152.12,-2015.93 1155.13,-1812.3 1154.95,-1736.8"/>
<polygon fill="black" stroke="black" points="1154.91,-1726.62 1159.45,-1736.6 1154.93,-1731.62 1154.95,-1736.62 1154.95,-1736.62 1154.95,-1736.62 1154.93,-1731.62 1150.45,-1736.64 1154.91,-1726.62 1154.91,-1726.62"/>
<text text-anchor="middle" x="704.5" y="-2098.2" font-family="Times New Roman,serif" font-size="14.00">1</text>
</g>
<!-- C&#45;&gt;L -->
<g id="edge27" class="edge">
<title>C&#45;&gt;L</title>
<path fill="none" stroke="black" d="M280.19,-2013.78C293.47,-2030.67 318.39,-2056.4 347,-2056.4 347,-2056.4 347,-2056.4 1071.7,-2056.4 1093.97,-2056.4 1103.2,-2050.84 1115.7,-2032.4 1148.13,-1984.54 1153.64,-1807.08 1154.54,-1737.06"/>
<polygon fill="black" stroke="black" points="1154.65,-1726.79 1159.04,-1736.83 1154.59,-1731.79 1154.54,-1736.79 1154.54,-1736.79 1154.54,-1736.79 1154.59,-1731.79 1150.04,-1736.74 1154.65,-1726.79 1154.65,-1726.79"/>
<text text-anchor="middle" x="704.5" y="-2060.2" font-family="Times New Roman,serif" font-size="14.00">2</text>
</g>
<!-- C&#45;&gt;L -->
<g id="edge28" class="edge">
<title>C&#45;&gt;L</title>
<path fill="none" stroke="black" d="M285.94,-2005.72C301.32,-2011.25 325.38,-2018.4 347,-2018.4 347,-2018.4 347,-2018.4 1071.7,-2018.4 1093.97,-2018.4 1103.05,-2012.74 1115.7,-1994.4 1144.26,-1952.96 1152.01,-1800.45 1154.02,-1736.7"/>
<polygon fill="black" stroke="black" points="1154.32,-1726.57 1158.53,-1736.69 1154.17,-1731.56 1154.03,-1736.56 1154.03,-1736.56 1154.03,-1736.56 1154.17,-1731.56 1149.53,-1736.43 1154.32,-1726.57 1154.32,-1726.57"/>
<text text-anchor="middle" x="704.5" y="-2022.2" font-family="Times New Roman,serif" font-size="14.00">3</text>
</g>
<!-- C&#45;&gt;L -->
<g id="edge29" class="edge">
<title>C&#45;&gt;L</title>
<path fill="none" stroke="black" d="M285.94,-1993.07C301.32,-1987.54 325.38,-1980.4 347,-1980.4 347,-1980.4 347,-1980.4 1071.7,-1980.4 1093.97,-1980.4 1102.87,-1974.61 1115.7,-1956.4 1140.34,-1921.42 1150.12,-1794.21 1153.34,-1736.82"/>
<polygon fill="black" stroke="black" points="1153.89,-1726.64 1157.85,-1736.87 1153.62,-1731.63 1153.36,-1736.63 1153.36,-1736.63 1153.36,-1736.63 1153.62,-1731.63 1148.86,-1736.39 1153.89,-1726.64 1153.89,-1726.64"/>
<text text-anchor="middle" x="704.5" y="-1984.2" font-family="Times New Roman,serif" font-size="14.00">4</text>
</g>
<!-- C&#45;&gt;L -->
<g id="edge31" class="edge">
<title>C&#45;&gt;L</title>
<path fill="none" stroke="black" d="M280.19,-1985.01C293.47,-1968.13 318.39,-1942.4 347,-1942.4 347,-1942.4 347,-1942.4 1071.7,-1942.4 1093.97,-1942.4 1102.62,-1936.43 1115.7,-1918.4 1136.49,-1889.73 1147.96,-1786.96 1152.45,-1736.6"/>
<polygon fill="black" stroke="black" points="1153.33,-1726.42 1156.95,-1736.77 1152.9,-1731.4 1152.47,-1736.38 1152.47,-1736.38 1152.47,-1736.38 1152.9,-1731.4 1147.99,-1735.99 1153.33,-1726.42 1153.33,-1726.42"/>
<text text-anchor="middle" x="704.5" y="-1946.2" font-family="Times New Roman,serif" font-size="14.00">6</text>
</g>
<!-- C&#45;&gt;L -->
<g id="edge32" class="edge">
<title>C&#45;&gt;L</title>
<path fill="none" stroke="black" d="M275.11,-1982.41C284.51,-1955.09 307.3,-1904.4 347,-1904.4 347,-1904.4 347,-1904.4 1071.7,-1904.4 1143.61,-1904.4 1154.15,-1791.15 1155.07,-1736.82"/>
<polygon fill="black" stroke="black" points="1155.14,-1726.48 1159.58,-1736.52 1155.11,-1731.48 1155.08,-1736.48 1155.08,-1736.48 1155.08,-1736.48 1155.11,-1731.48 1150.58,-1736.45 1155.14,-1726.48 1155.14,-1726.48"/>
<text text-anchor="middle" x="704.5" y="-1908.2" font-family="Times New Roman,serif" font-size="14.00">7</text>
</g>
<!-- C&#45;&gt;L -->
<g id="edge33" class="edge">
<title>C&#45;&gt;L</title>
<path fill="none" stroke="black" d="M272.01,-1981.46C277.17,-1945.16 294.44,-1866.4 347,-1866.4 347,-1866.4 347,-1866.4 1071.7,-1866.4 1129.64,-1866.4 1147.22,-1782.08 1152.49,-1736.64"/>
<polygon fill="black" stroke="black" points="1153.53,-1726.52 1156.98,-1736.93 1153.02,-1731.5 1152.5,-1736.47 1152.5,-1736.47 1152.5,-1736.47 1153.02,-1731.5 1148.03,-1736.01 1153.53,-1726.52 1153.53,-1726.52"/>
<text text-anchor="middle" x="704.5" y="-1870.2" font-family="Times New Roman,serif" font-size="14.00">8</text>
</g>
<!-- C&#45;&gt;L -->
<g id="edge34" class="edge">
<title>C&#45;&gt;L</title>
<path fill="none" stroke="black" d="M270.01,-1981.42C271.08,-1937.52 280.42,-1828.4 347,-1828.4 347,-1828.4 347,-1828.4 1071.7,-1828.4 1116.54,-1828.4 1139.05,-1771.02 1148.68,-1735.61"/>
<polygon fill="black" stroke="black" points="1151.16,-1725.85 1153.06,-1736.65 1149.93,-1730.69 1148.69,-1735.54 1148.69,-1735.54 1148.69,-1735.54 1149.93,-1730.69 1144.33,-1734.43 1151.16,-1725.85 1151.16,-1725.85"/>
<text text-anchor="middle" x="704.5" y="-1832.2" font-family="Times New Roman,serif" font-size="14.00">9</text>
</g>
<!-- D -->
<g id="node15" class="node">
<title>D</title>
<ellipse fill="none" stroke="black" cx="348" cy="-1555.4" rx="18" ry="18"/>
<text text-anchor="middle" x="348" y="-1551.7" font-family="Times New Roman,serif" font-size="14.00">D</text>
</g>
<!-- C&#45;&gt;D -->
<g id="edge30" class="edge">
<title>C&#45;&gt;D</title>
<path fill="none" stroke="black" d="M273.07,-1981.72C284.91,-1913.42 327.73,-1666.5 342.19,-1583.12"/>
<polygon fill="black" stroke="black" points="343.93,-1573.13 346.65,-1583.75 343.07,-1578.05 342.22,-1582.98 342.22,-1582.98 342.22,-1582.98 343.07,-1578.05 337.78,-1582.21 343.93,-1573.13 343.93,-1573.13"/>
<text text-anchor="middle" x="308.5" y="-1795.2" font-family="Times New Roman,serif" font-size="14.00">5</text>
</g>
<!-- D&#45;&gt;L -->
<g id="edge35" class="edge">
<title>D&#45;&gt;L</title>
<path fill="none" stroke="black" d="M348.45,-1573.47C348.15,-1609.28 351.44,-1690.72 384,-1748.4 396.23,-1770.06 401.12,-1785.4 426,-1785.4 426,-1785.4 426,-1785.4 1071.7,-1785.4 1102.97,-1785.4 1127.42,-1755.66 1141.46,-1733.15"/>
<polygon fill="black" stroke="black" points="1146.66,-1724.35 1145.45,-1735.25 1144.12,-1728.66 1141.57,-1732.96 1141.57,-1732.96 1141.57,-1732.96 1144.12,-1728.66 1137.7,-1730.67 1146.66,-1724.35 1146.66,-1724.35"/>
<text text-anchor="middle" x="745" y="-1789.2" font-family="Times New Roman,serif" font-size="14.00">+</text>
</g>
<!-- D&#45;&gt;L -->
<g id="edge36" class="edge">
<title>D&#45;&gt;L</title>
<path fill="none" stroke="black" d="M348.69,-1573.55C348.95,-1619.05 356.48,-1734.4 426,-1734.4 426,-1734.4 426,-1734.4 1071.7,-1734.4 1091.95,-1734.4 1113.77,-1727.26 1129.96,-1720.46"/>
<polygon fill="black" stroke="black" points="1139.24,-1716.34 1131.92,-1724.51 1134.67,-1718.37 1130.1,-1720.4 1130.1,-1720.4 1130.1,-1720.4 1134.67,-1718.37 1128.27,-1716.28 1139.24,-1716.34 1139.24,-1716.34"/>
<text text-anchor="middle" x="745" y="-1738.2" font-family="Times New Roman,serif" font-size="14.00">0</text>
</g>
<!-- D&#45;&gt;L -->
<g id="edge38" class="edge">
<title>D&#45;&gt;L</title>
<path fill="none" stroke="black" d="M351.33,-1573.19C357.04,-1608.37 375.17,-1683.4 426,-1683.4 426,-1683.4 426,-1683.4 1071.7,-1683.4 1091.89,-1683.4 1113.71,-1690.26 1129.91,-1696.8"/>
<polygon fill="black" stroke="black" points="1139.2,-1700.76 1128.24,-1700.98 1134.6,-1698.8 1130,-1696.84 1130,-1696.84 1130,-1696.84 1134.6,-1698.8 1131.77,-1692.7 1139.2,-1700.76 1139.2,-1700.76"/>
<text text-anchor="middle" x="745" y="-1687.2" font-family="Times New Roman,serif" font-size="14.00">2</text>
</g>
<!-- D&#45;&gt;L -->
<g id="edge39" class="edge">
<title>D&#45;&gt;L</title>
<path fill="none" stroke="black" d="M356.33,-1571.73C367.73,-1594.33 391.97,-1632.4 426,-1632.4 426,-1632.4 426,-1632.4 1071.7,-1632.4 1102.78,-1632.4 1127.28,-1661.74 1141.38,-1683.97"/>
<polygon fill="black" stroke="black" points="1146.6,-1692.65 1137.59,-1686.4 1144.03,-1688.37 1141.45,-1684.08 1141.45,-1684.08 1141.45,-1684.08 1144.03,-1688.37 1145.31,-1681.76 1146.6,-1692.65 1146.6,-1692.65"/>
<text text-anchor="middle" x="745" y="-1636.2" font-family="Times New Roman,serif" font-size="14.00">3</text>
</g>
<!-- D&#45;&gt;L -->
<g id="edge40" class="edge">
<title>D&#45;&gt;L</title>
<path fill="none" stroke="black" d="M364.12,-1563.77C379.3,-1571.37 403.57,-1581.4 426,-1581.4 426,-1581.4 426,-1581.4 1071.7,-1581.4 1118.89,-1581.4 1140.68,-1643.6 1149.51,-1680.94"/>
<polygon fill="black" stroke="black" points="1151.66,-1690.74 1145.12,-1681.94 1150.59,-1685.85 1149.51,-1680.97 1149.51,-1680.97 1149.51,-1680.97 1150.59,-1685.85 1153.91,-1680 1151.66,-1690.74 1151.66,-1690.74"/>
<text text-anchor="middle" x="745" y="-1585.2" font-family="Times New Roman,serif" font-size="14.00">4</text>
</g>
<!-- D&#45;&gt;L -->
<g id="edge41" class="edge">
<title>D&#45;&gt;L</title>
<path fill="none" stroke="black" d="M364.16,-1547.35C379.36,-1540.04 403.65,-1530.4 426,-1530.4 426,-1530.4 426,-1530.4 1071.7,-1530.4 1136.98,-1530.4 1151.04,-1629.95 1153.98,-1680.15"/>
<polygon fill="black" stroke="black" points="1154.46,-1690.35 1149.49,-1680.57 1154.22,-1685.36 1153.99,-1680.36 1153.99,-1680.36 1153.99,-1680.36 1154.22,-1685.36 1158.48,-1680.15 1154.46,-1690.35 1154.46,-1690.35"/>
<text text-anchor="middle" x="745" y="-1534.2" font-family="Times New Roman,serif" font-size="14.00">5</text>
</g>
<!-- D&#45;&gt;L -->
<g id="edge42" class="edge">
<title>D&#45;&gt;L</title>
<path fill="none" stroke="black" d="M356.39,-1539.28C367.86,-1516.97 392.19,-1479.4 426,-1479.4 426,-1479.4 426,-1479.4 1071.7,-1479.4 1113.98,-1479.4 1140.85,-1619.16 1150.59,-1680.31"/>
<polygon fill="black" stroke="black" points="1152.16,-1690.43 1146.18,-1681.23 1151.39,-1685.49 1150.63,-1680.55 1150.63,-1680.55 1150.63,-1680.55 1151.39,-1685.49 1155.07,-1679.86 1152.16,-1690.43 1152.16,-1690.43"/>
<text text-anchor="middle" x="745" y="-1483.2" font-family="Times New Roman,serif" font-size="14.00">6</text>
</g>
<!-- D&#45;&gt;L -->
<g id="edge43" class="edge">
<title>D&#45;&gt;L</title>
<path fill="none" stroke="black" d="M351.42,-1537.47C357.27,-1502.46 375.59,-1428.4 426,-1428.4 426,-1428.4 426,-1428.4 1071.7,-1428.4 1123.9,-1428.4 1145.83,-1609.58 1152.4,-1680.45"/>
<polygon fill="black" stroke="black" points="1153.3,-1690.46 1147.93,-1680.9 1152.85,-1685.48 1152.41,-1680.5 1152.41,-1680.5 1152.41,-1680.5 1152.85,-1685.48 1156.89,-1680.09 1153.3,-1690.46 1153.3,-1690.46"/>
<text text-anchor="middle" x="745" y="-1432.2" font-family="Times New Roman,serif" font-size="14.00">7</text>
</g>
<!-- D&#45;&gt;L -->
<g id="edge44" class="edge">
<title>D&#45;&gt;L</title>
<path fill="none" stroke="black" d="M348.73,-1537.35C349.08,-1492.1 356.81,-1377.4 426,-1377.4 426,-1377.4 426,-1377.4 1071.7,-1377.4 1133.8,-1377.4 1149.85,-1599.37 1153.63,-1679.76"/>
<polygon fill="black" stroke="black" points="1154.08,-1690.13 1149.15,-1680.34 1153.86,-1685.13 1153.64,-1680.14 1153.64,-1680.14 1153.64,-1680.14 1153.86,-1685.13 1158.14,-1679.94 1154.08,-1690.13 1154.08,-1690.13"/>
<text text-anchor="middle" x="745" y="-1381.2" font-family="Times New Roman,serif" font-size="14.00">8</text>
</g>
<!-- D&#45;&gt;L -->
<g id="edge45" class="edge">
<title>D&#45;&gt;L</title>
<path fill="none" stroke="black" d="M351.1,-1537.43C357.91,-1483.44 381.54,-1326.4 426,-1326.4 426,-1326.4 426,-1326.4 1071.7,-1326.4 1144.09,-1326.4 1153.47,-1591.72 1154.58,-1680.12"/>
<polygon fill="black" stroke="black" points="1154.68,-1690.23 1150.08,-1680.27 1154.63,-1685.23 1154.58,-1680.23 1154.58,-1680.23 1154.58,-1680.23 1154.63,-1685.23 1159.08,-1680.19 1154.68,-1690.23 1154.68,-1690.23"/>
<text text-anchor="middle" x="745" y="-1330.2" font-family="Times New Roman,serif" font-size="14.00">9</text>
</g>
<!-- D&#45;&gt;E -->
<g id="edge37" class="edge">
<title>D&#45;&gt;E</title>
<path fill="none" stroke="black" d="M350.9,-1537.49C355.48,-1495.41 367.93,-1387.05 384,-1297.4 394.34,-1239.72 410.2,-1172.93 419.18,-1136.52"/>
<polygon fill="black" stroke="black" points="421.63,-1126.66 423.58,-1137.45 420.42,-1131.52 419.22,-1136.37 419.22,-1136.37 419.22,-1136.37 420.42,-1131.52 414.85,-1135.28 421.63,-1126.66 421.63,-1126.66"/>
<text text-anchor="middle" x="387.5" y="-1301.2" font-family="Times New Roman,serif" font-size="14.00">1</text>
</g>
<!-- O&#45;&gt;O -->
<g id="edge145" class="edge">
<title>O&#45;&gt;O</title>
<path fill="none" stroke="black" d="M1154.21,-120.61C1154.09,-130.19 1154.59,-138.4 1155.7,-138.4 1156.37,-138.4 1156.82,-135.35 1157.04,-130.8"/>
<polygon fill="black" stroke="black" points="1157.18,-120.61 1161.54,-130.67 1157.11,-125.61 1157.04,-130.61 1157.04,-130.61 1157.04,-130.61 1157.11,-125.61 1152.54,-130.55 1157.18,-120.61 1157.18,-120.61"/>
<text text-anchor="middle" x="1155.7" y="-142.2" font-family="Times New Roman,serif" font-size="14.00">+</text>
</g>
<!-- O&#45;&gt;O -->
<g id="edge146" class="edge">
<title>O&#45;&gt;O</title>
<path fill="none" stroke="black" d="M1153.12,-120.42C1152.09,-138.12 1152.95,-156.4 1155.7,-156.4 1157.91,-156.4 1158.9,-144.56 1158.66,-130.71"/>
<polygon fill="black" stroke="black" points="1158.27,-120.42 1163.15,-130.24 1158.46,-125.41 1158.65,-130.41 1158.65,-130.41 1158.65,-130.41 1158.46,-125.41 1154.15,-130.58 1158.27,-120.42 1158.27,-120.42"/>
<text text-anchor="middle" x="1155.7" y="-160.2" font-family="Times New Roman,serif" font-size="14.00">0</text>
</g>
<!-- O&#45;&gt;O -->
<g id="edge147" class="edge">
<title>O&#45;&gt;O</title>
<path fill="none" stroke="black" d="M1152.39,-120.18C1150.05,-145.3 1151.15,-174.4 1155.7,-174.4 1159.64,-174.4 1160.99,-152.52 1159.75,-130.32"/>
<polygon fill="black" stroke="black" points="1159,-120.18 1164.23,-129.82 1159.37,-125.17 1159.74,-130.15 1159.74,-130.15 1159.74,-130.15 1159.37,-125.17 1155.25,-130.49 1159,-120.18 1159,-120.18"/>
<text text-anchor="middle" x="1155.7" y="-178.2" font-family="Times New Roman,serif" font-size="14.00">1</text>
</g>
<!-- O&#45;&gt;O -->
<g id="edge148" class="edge">
<title>O&#45;&gt;O</title>
<path fill="none" stroke="black" d="M1151.87,-120.11C1148.01,-152.21 1149.29,-192.4 1155.7,-192.4 1161.45,-192.4 1163.07,-159.96 1160.54,-130.09"/>
<polygon fill="black" stroke="black" points="1159.53,-120.11 1165.01,-129.6 1160.03,-125.09 1160.54,-130.06 1160.54,-130.06 1160.54,-130.06 1160.03,-125.09 1156.06,-130.52 1159.53,-120.11 1159.53,-120.11"/>
<text text-anchor="middle" x="1155.7" y="-196.2" font-family="Times New Roman,serif" font-size="14.00">2</text>
</g>
<!-- O&#45;&gt;O -->
<g id="edge149" class="edge">
<title>O&#45;&gt;O</title>
<path fill="none" stroke="black" d="M1151.47,-120.11C1145.99,-158.95 1147.4,-210.4 1155.7,-210.4 1163.28,-210.4 1165.11,-167.41 1161.19,-130.36"/>
<polygon fill="black" stroke="black" points="1159.93,-120.11 1165.61,-129.49 1160.54,-125.08 1161.15,-130.04 1161.15,-130.04 1161.15,-130.04 1160.54,-125.08 1156.68,-130.59 1159.93,-120.11 1159.93,-120.11"/>
<text text-anchor="middle" x="1155.7" y="-214.2" font-family="Times New Roman,serif" font-size="14.00">3</text>
</g>
<!-- O&#45;&gt;O -->
<g id="edge150" class="edge">
<title>O&#45;&gt;O</title>
<path fill="none" stroke="black" d="M1151.15,-120.13C1143.96,-165.55 1145.48,-228.4 1155.7,-228.4 1165.18,-228.4 1167.17,-174.3 1161.67,-130.22"/>
<polygon fill="black" stroke="black" points="1160.25,-120.13 1166.1,-129.41 1160.94,-125.08 1161.64,-130.04 1161.64,-130.04 1161.64,-130.04 1160.94,-125.08 1157.19,-130.66 1160.25,-120.13 1160.25,-120.13"/>
<text text-anchor="middle" x="1155.7" y="-232.2" font-family="Times New Roman,serif" font-size="14.00">4</text>
</g>
<!-- O&#45;&gt;O -->
<g id="edge151" class="edge">
<title>O&#45;&gt;O</title>
<path fill="none" stroke="black" d="M1150.92,-119.97C1141.94,-171.86 1143.53,-246.4 1155.7,-246.4 1167.1,-246.4 1169.22,-180.89 1162.03,-129.94"/>
<polygon fill="black" stroke="black" points="1160.47,-119.97 1166.47,-129.15 1161.25,-124.91 1162.02,-129.85 1162.02,-129.85 1162.02,-129.85 1161.25,-124.91 1157.57,-130.54 1160.47,-119.97 1160.47,-119.97"/>
<text text-anchor="middle" x="1155.7" y="-250.2" font-family="Times New Roman,serif" font-size="14.00">5</text>
</g>
</g>
</svg>
